<?xml version="1.0" standalone="no"?>
<!DOCTYPE svg PUBLIC "-//W3C//DTD SVG 1.1//EN" "http://www.w3.org/Graphics/SVG/1.1/DTD/svg11.dtd" >
<svg xmlns="http://www.w3.org/2000/svg" xmlns:xlink="http://www.w3.org/1999/xlink" version="1.1">
<metadata>
Created by FontForge 20170731 at Thu Jul 16 17:13:44 2020
 By Aleksey,,,
Copyright (C) 2004, 2020 Hoefler &#38; Co. http://www.typography.com
</metadata>
<defs>
<font id="SentinelPro-Medium" horiz-adv-x="445" >
  <font-face 
    font-family="Sentinel Pro"
    font-weight="500"
    font-stretch="normal"
    units-per-em="1000"
    panose-1="2 6 6 3 6 5 6 3 2 3"
    ascent="800"
    descent="-200"
    x-height="458"
    cap-height="658"
    bbox="-187 -316 1565 1063"
    underline-thickness="50"
    underline-position="-225"
    unicode-range="U+000D-FEFF"
  />
<missing-glyph horiz-adv-x="500" 
d="M0 -200v1000h500v-1000h-500zM250 360l179 390h-358zM50 -76l172 376l-172 376v-752zM450 -76v752l-172 -376zM71 -150h358l-179 390z" />
    <glyph glyph-name="f_f" unicode="ff" horiz-adv-x="623" 
d="M36 0v66h70v326h-90v66h90v12q0 60 18 102.5t46 69t63 39t69 12.5q50 0 84.5 -20t47.5 -49q28 36 68 52.5t80 16.5q61 0 95 -26.5t34 -63.5q0 -24 -15.5 -43t-39.5 -19q-27 0 -44 15.5t-17 46.5q0 6 2 16t6 17q-6 4 -14 6t-21 2q-38 0 -62 -34t-24 -131v-21h132v-66h-132
v-326h104v-66h-264v66h66v326h-188v-326h66v-66h-230zM200 458h188v16q0 16 1.5 30.5t3.5 27.5q-2 -1 -4.5 -1h-4.5q-27 0 -44 15.5t-17 44.5q0 9 4 19.5t8 17.5q-7 6 -15.5 10.5t-27.5 4.5q-40 0 -66 -34.5t-26 -122.5v-28z" />
    <glyph glyph-name="uniFB01" unicode="fi" horiz-adv-x="586" 
d="M33 0v66h73v326h-90v66h90v9q0 63 19.5 106.5t49 69.5t66.5 38t71 12q32 0 61.5 -9t51.5 -24t35.5 -35t13.5 -41q0 -28 -16 -45.5t-41 -17.5q-27 0 -43.5 16t-16.5 43q0 12 5 22.5t10 17.5q-8 8 -27 15t-44 7q-43 0 -72 -36t-29 -110v-38h287v-392h83v-66h-243v66h66v326
h-193v-326h66v-66h-233z" />
    <glyph glyph-name="uniFB02" unicode="fl" horiz-adv-x="599" 
d="M33 0v66h73v326h-90v66h90v16q0 59 17.5 101t45 68t62.5 38t69 12q25 0 46 -5t37 -13l114 17v-626h83v-66h-248v66h71v326h-203v-326h71v-66h-238zM200 458h203v92q-6 -4 -13.5 -6.5t-15.5 -2.5q-27 0 -44 15.5t-17 46.5q0 6 2 16t6 17q-6 4 -14 6t-21 2q-38 0 -62 -34
t-24 -131v-21z" />
    <glyph glyph-name="f_f_i" unicode="ffi" horiz-adv-x="868" 
d="M36 0v66h70v326h-90v66h90v12q0 60 18 102.5t46 69t63 39t69 12.5q51 0 86.5 -21t46.5 -52q31 39 74.5 56t84.5 17q32 0 61.5 -9t51.5 -24t35.5 -35t13.5 -41q0 -28 -16 -45.5t-41 -17.5q-27 0 -43.5 16t-16.5 43q0 12 5 22.5t10 17.5q-8 8 -27 15t-44 7q-43 0 -72 -36
t-29 -110v-38h287v-392h83v-66h-243v66h66v326h-193v-326h66v-66h-226v66h66v326h-188v-326h66v-66h-230zM200 458h188v9q0 18 1.5 34.5t5.5 30.5q-3 -1 -5.5 -1h-5.5q-27 0 -44 15.5t-17 44.5q0 9 4 19.5t8 17.5q-7 6 -15.5 10.5t-27.5 4.5q-40 0 -66 -34.5t-26 -122.5v-28
z" />
    <glyph glyph-name="f_f_l" unicode="ffl" horiz-adv-x="881" 
d="M36 0v66h70v326h-90v66h90v12q0 60 18 102.5t46 69t63 39t69 12.5q50 0 84.5 -20t47.5 -49q28 36 68 52.5t80 16.5q25 0 46 -5t37 -13l114 17v-626h83v-66h-248v66h71v326h-203v-326h71v-66h-231v66h66v326h-188v-326h66v-66h-230zM482 458h203v92q-6 -4 -13.5 -6.5
t-15.5 -2.5q-27 0 -44 15.5t-17 46.5q0 6 2 16t6 17q-6 4 -14 6t-21 2q-38 0 -62 -34t-24 -131v-21zM200 458h188v16q0 16 1.5 30.5t3.5 27.5q-2 -1 -4.5 -1h-4.5q-27 0 -44 15.5t-17 44.5q0 9 4 19.5t8 17.5q-7 6 -15.5 10.5t-27.5 4.5q-40 0 -66 -34.5t-26 -122.5v-28z
" />
    <glyph glyph-name="f_b" unicode="fb" horiz-adv-x="858" 
d="M33 0v66h73v326h-90v66h90v16q0 59 17.5 101t45 68t62.5 38t69 12q25 0 45.5 -5t36.5 -13l101 17v-327q25 47 66 74t87 27q41 0 69.5 -12t49.5 -33q32 -32 47 -80t15 -111q0 -55 -17.5 -105t-49.5 -82q-24 -24 -57 -38t-66 -14q-54 0 -90.5 27t-61.5 67l-33 -91h-53v398
h-189v-326h71v-66h-238zM200 458h189v85q-4 -1 -7.5 -1.5t-7.5 -0.5q-27 0 -44 15.5t-17 46.5q0 6 2 16t6 17q-6 4 -14 6t-21 2q-38 0 -62 -34t-24 -131v-21zM608 54q47 0 76 45.5t29 130.5q0 82 -28 127.5t-77 45.5q-54 0 -90.5 -52.5t-36.5 -132.5q0 -79 39 -121.5
t88 -42.5z" />
    <glyph glyph-name="f_h" unicode="fh" horiz-adv-x="877" 
d="M33 0v66h73v326h-90v66h90v16q0 59 17.5 101t45 68t62.5 38t69 12q25 0 46 -5t37 -13l114 17v-348q39 64 80 92t90 28q54 0 88 -38t34 -105v-255h73v-66h-234v66h67v221q0 25 -6 46t-19 34q-10 10 -23.5 15t-30.5 5q-21 0 -42.5 -10t-38 -29t-27.5 -46.5t-11 -61.5v-174
h67v-66h-232v66h71v326h-203v-326h71v-66h-238zM200 458h203v92q-6 -4 -13.5 -6.5t-15.5 -2.5q-27 0 -44 15.5t-17 46.5q0 6 2 16t6 17q-6 4 -14 6t-21 2q-38 0 -62 -34t-24 -131v-21z" />
    <glyph glyph-name="f_j" unicode="fj" horiz-adv-x="563" 
d="M322 -167q-48 0 -79.5 21.5t-31.5 57.5q0 25 17.5 46t44.5 21q28 0 43.5 -17.5t15.5 -39.5q0 -8 -2.5 -17.5t-5.5 -15.5q4 -1 9.5 -2t7.5 -1q25 0 38.5 22t13.5 66v418h-193v-326h66v-66h-233v66h73v326h-90v66h90v9q0 63 19.5 106.5t49 69.5t66.5 38t71 12q32 0 61.5 -9
t51.5 -24t35.5 -35t13.5 -41q0 -28 -16 -45.5t-41 -17.5q-27 0 -43.5 16t-16.5 43q0 12 5 22.5t10 17.5q-8 8 -27 15t-44 7q-43 0 -72 -36t-29 -110v-38h287v-430q0 -88 -39 -141.5t-126 -53.5z" />
    <glyph glyph-name="f_k" unicode="fk" horiz-adv-x="848" 
d="M33 0v66h73v326h-90v66h90v16q0 59 17.5 101t45 68t62.5 38t69 12q25 0 46 -5t37 -13l114 17v-473l166 173h-75v66h224v-66h-69l-121 -121l158 -205h54v-66h-217v66h57l-111 150l-66 -65v-85h57v-66h-222v66h71v326h-203v-326h71v-66h-238zM200 458h203v92
q-6 -4 -13.5 -6.5t-15.5 -2.5q-27 0 -44 15.5t-17 46.5q0 6 2 16t6 17q-6 4 -14 6t-21 2q-38 0 -62 -34t-24 -131v-21z" />
    <glyph glyph-name="f_f_b" unicode="ffb" horiz-adv-x="1140" 
d="M36 0v66h70v326h-90v66h90v12q0 60 18 102.5t46 69t63 39t69 12.5q50 0 84.5 -20t47.5 -49q28 36 68 52.5t80 16.5q25 0 45.5 -5t36.5 -13l101 17v-327q25 47 66 74t87 27q41 0 69.5 -12t49.5 -33q32 -32 47 -80t15 -111q0 -55 -17.5 -105t-49.5 -82q-24 -24 -57 -38
t-66 -14q-54 0 -90.5 27t-61.5 67l-33 -91h-53v398h-189v-326h71v-66h-231v66h66v326h-188v-326h66v-66h-230zM482 458h189v85q-4 -1 -7.5 -1.5t-7.5 -0.5q-27 0 -44 15.5t-17 46.5q0 6 2 16t6 17q-6 4 -14 6t-21 2q-38 0 -62 -34t-24 -131v-21zM200 458h188v16
q0 16 1.5 30.5t3.5 27.5q-2 -1 -4.5 -1h-4.5q-27 0 -44 15.5t-17 44.5q0 9 4 19.5t8 17.5q-7 6 -15.5 10.5t-27.5 4.5q-40 0 -66 -34.5t-26 -122.5v-28zM890 54q47 0 76 45.5t29 130.5q0 82 -28 127.5t-77 45.5q-54 0 -90.5 -52.5t-36.5 -132.5q0 -79 39 -121.5t88 -42.5z
" />
    <glyph glyph-name="f_f_h" unicode="ffh" horiz-adv-x="1159" 
d="M36 0v66h70v326h-90v66h90v12q0 60 18 102.5t46 69t63 39t69 12.5q50 0 84.5 -20t47.5 -49q28 36 68 52.5t80 16.5q25 0 46 -5t37 -13l114 17v-348q39 64 80 92t90 28q54 0 88 -38t34 -105v-255h73v-66h-234v66h67v221q0 25 -6 46t-19 34q-10 10 -23.5 15t-30.5 5
q-21 0 -42.5 -10t-38 -29t-27.5 -46.5t-11 -61.5v-174h67v-66h-232v66h71v326h-203v-326h71v-66h-231v66h66v326h-188v-326h66v-66h-230zM482 458h203v92q-6 -4 -13.5 -6.5t-15.5 -2.5q-27 0 -44 15.5t-17 46.5q0 6 2 16t6 17q-6 4 -14 6t-21 2q-38 0 -62 -34t-24 -131v-21z
M200 458h188v16q0 16 1.5 30.5t3.5 27.5q-2 -1 -4.5 -1h-4.5q-27 0 -44 15.5t-17 44.5q0 9 4 19.5t8 17.5q-7 6 -15.5 10.5t-27.5 4.5q-40 0 -66 -34.5t-26 -122.5v-28z" />
    <glyph glyph-name="f_f_j" unicode="ffj" horiz-adv-x="845" 
d="M604 -167q-48 0 -79.5 21.5t-31.5 57.5q0 25 17.5 46t44.5 21q28 0 43.5 -17.5t15.5 -39.5q0 -8 -2.5 -17.5t-5.5 -15.5q4 -1 9.5 -2t7.5 -1q25 0 38.5 22t13.5 66v418h-193v-326h66v-66h-226v66h66v326h-188v-326h66v-66h-230v66h70v326h-90v66h90v12q0 60 18 102.5
t46 69t63 39t69 12.5q51 0 86.5 -21t46.5 -52q31 39 74.5 56t84.5 17q32 0 61.5 -9t51.5 -24t35.5 -35t13.5 -41q0 -28 -16 -45.5t-41 -17.5q-27 0 -43.5 16t-16.5 43q0 12 5 22.5t10 17.5q-8 8 -27 15t-44 7q-43 0 -72 -36t-29 -110v-38h287v-430q0 -88 -39 -141.5
t-126 -53.5zM200 458h188v9q0 18 1.5 34.5t5.5 30.5q-3 -1 -5.5 -1h-5.5q-27 0 -44 15.5t-17 44.5q0 9 4 19.5t8 17.5q-7 6 -15.5 10.5t-27.5 4.5q-40 0 -66 -34.5t-26 -122.5v-28z" />
    <glyph glyph-name="f_f_k" unicode="ffk" horiz-adv-x="1130" 
d="M36 0v66h70v326h-90v66h90v12q0 60 18 102.5t46 69t63 39t69 12.5q50 0 84.5 -20t47.5 -49q28 36 68 52.5t80 16.5q25 0 46 -5t37 -13l114 17v-473l166 173h-75v66h224v-66h-69l-121 -121l158 -205h54v-66h-217v66h57l-111 150l-66 -65v-85h57v-66h-222v66h71v326h-203
v-326h71v-66h-231v66h66v326h-188v-326h66v-66h-230zM482 458h203v92q-6 -4 -13.5 -6.5t-15.5 -2.5q-27 0 -44 15.5t-17 46.5q0 6 2 16t6 17q-6 4 -14 6t-21 2q-38 0 -62 -34t-24 -131v-21zM200 458h188v16q0 16 1.5 30.5t3.5 27.5q-2 -1 -4.5 -1h-4.5q-27 0 -44 15.5
t-17 44.5q0 9 4 19.5t8 17.5q-7 6 -15.5 10.5t-27.5 4.5q-40 0 -66 -34.5t-26 -122.5v-28z" />
    <glyph glyph-name=".notdef" horiz-adv-x="500" 
d="M0 -200v1000h500v-1000h-500zM250 360l179 390h-358zM50 -76l172 376l-172 376v-752zM450 -76v752l-172 -376zM71 -150h358l-179 390z" />
    <glyph glyph-name=".null" horiz-adv-x="0" 
 />
    <glyph glyph-name="uni000D" unicode="&#xd;" horiz-adv-x="184" 
 />
    <glyph glyph-name="space" unicode=" " horiz-adv-x="184" 
 />
    <glyph glyph-name="exclam" unicode="!" horiz-adv-x="279" 
d="M116 180q-4 80 -11.5 151.5t-14.5 129.5q-5 46 -8.5 84t-3.5 66q0 37 17 55t45 18t44.5 -18t16.5 -55q0 -28 -3.5 -66t-8.5 -84q-7 -58 -14.5 -129.5t-11.5 -151.5h-47zM140 -16q-28 0 -47 19t-19 45t19 45t47 19q27 0 46 -19t19 -45t-19 -45t-46 -19z" />
    <glyph glyph-name="quotedbl" unicode="&#x22;" horiz-adv-x="412" 
d="M89 410l-33 16l20 88q11 50 18 78t13 41q7 16 18 22.5t22 6.5q20 0 36.5 -11.5t16.5 -30.5q0 -10 -1.5 -16.5t-4.5 -13.5q-9 -18 -21 -41.5t-37 -63.5zM253 410l-33 16l20 88q11 50 18 78t13 41q7 16 18 22.5t22 6.5q20 0 36.5 -11.5t16.5 -30.5q0 -10 -1.5 -16.5
t-4.5 -13.5q-9 -18 -21 -41.5t-37 -63.5z" />
    <glyph glyph-name="numbersign" unicode="#" horiz-adv-x="663" 
d="M116 -40l39 198h-124v59h135l39 196h-133v59h145l37 191h70l-38 -191h157l38 191h70l-37 -191h122v-59h-134l-39 -196h132v-59h-143l-39 -198h-70l39 198h-157l-39 -198h-70zM236 217h157l39 196h-157z" />
    <glyph glyph-name="dollar" unicode="$" horiz-adv-x="562" 
d="M259 -80v81q-92 6 -149.5 46.5t-57.5 91.5q0 26 18.5 48t46.5 22t45 -19.5t17 -42.5q0 -18 -9.5 -32t-22.5 -22q9 -12 39 -24t73 -16v227q-38 13 -72 27t-59 33t-40 46t-15 65q0 68 48 120t138 63v71h58v-69q44 -2 78.5 -14.5t58.5 -31t37 -40.5t13 -43
q0 -31 -14.5 -49.5t-39.5 -18.5q-31 0 -47 16.5t-16 41.5q0 15 8.5 28.5t18.5 20.5q-12 13 -36.5 23.5t-60.5 13.5v-216q89 -29 139 -66.5t50 -112.5q0 -29 -9 -60.5t-30 -58t-58 -45.5t-92 -23v-81h-58zM161 485q0 -37 20 -58t78 -41v195q-50 -8 -74 -36.5t-24 -59.5z
M426 151q0 38 -24.5 63t-84.5 47v-209q54 5 81.5 33t27.5 66z" />
    <glyph glyph-name="percent" unicode="%" horiz-adv-x="808" 
d="M140 -26l391 576l-3 3q-21 -16 -50.5 -27t-69.5 -11q-10 0 -23 1t-29 4q1 -4 1 -7.5v-7.5q0 -31 -11.5 -72.5t-35 -78.5t-59 -63t-82.5 -26q-62 0 -95.5 38.5t-33.5 98.5q0 41 16 81.5t43 72.5t64 52t78 20q32 0 57 -12t39 -35q22 -10 45 -13t44 -3q40 0 82 16.5t79 60.5
h68l-439 -668h-76zM178 313q27 0 50 19t39.5 47.5t26 62t9.5 61.5q0 9 -1 16.5t-2 14.5q-15 6 -30 16t-31 24q-24 -4 -45 -24.5t-36 -48.5t-24 -59.5t-9 -57.5q0 -37 15 -54t38 -17zM580 -14q-62 0 -95.5 38.5t-33.5 98.5q0 41 16 81.5t43 72.5t64 52t78 20q52 0 84 -31.5
t32 -91.5q0 -31 -11.5 -72.5t-35 -78.5t-59 -63t-82.5 -26zM589 34q27 0 50 19t39.5 47.5t26 62t9.5 61.5q0 36 -13.5 54t-39.5 18t-48.5 -19.5t-39.5 -48t-27 -62t-10 -61.5q0 -37 15 -54t38 -17z" />
    <glyph glyph-name="ampersand" unicode="&#x26;" horiz-adv-x="730" 
d="M250 -16q-53 0 -90.5 15t-61.5 38.5t-35 52.5t-11 57q0 66 41 113t123 82q-29 31 -46.5 63.5t-17.5 66.5q0 73 49 115.5t121 42.5q69 0 108 -37t39 -87q0 -56 -36.5 -92.5t-94.5 -68.5q43 -43 75.5 -83.5t59.5 -83.5q25 31 47 67.5t37 73.5h-77v61h223v-61h-76
q-23 -49 -52 -96t-68 -92q29 -48 45 -62.5t36 -14.5q18 0 31.5 12t27.5 44l44 -19q-17 -48 -50 -77.5t-83 -29.5q-43 0 -68.5 19t-54.5 69q-40 -42 -85 -65t-100 -23zM238 499q0 -22 13.5 -51.5t52.5 -69.5q38 23 60 51.5t22 65.5q0 31 -17 56t-56 25q-34 0 -54.5 -21
t-20.5 -56zM156 172q0 -46 31.5 -81.5t87.5 -35.5q37 0 68 16.5t61 47.5q-28 46 -63 90t-89 98q-50 -25 -73 -57t-23 -78z" />
    <glyph glyph-name="quotesingle" unicode="'" horiz-adv-x="248" 
d="M89 410l-33 16l20 88q11 50 18 78t13 41q7 16 18 22.5t22 6.5q20 0 36.5 -11.5t16.5 -30.5q0 -10 -1.5 -16.5t-4.5 -13.5q-9 -18 -21 -41.5t-37 -63.5z" />
    <glyph glyph-name="parenleft" unicode="(" horiz-adv-x="361" 
d="M349 -157q-54 25 -104.5 64t-89 93t-62 124.5t-23.5 157.5t23.5 157.5t62 124.5t89 93t104.5 64l29 -46q-93 -54 -151 -148.5t-58 -244.5t58 -244.5t151 -148.5z" />
    <glyph glyph-name="parenright" unicode=")" horiz-adv-x="361" 
d="M12 721q54 -25 104.5 -64t89 -93t62 -124.5t23.5 -157.5t-23.5 -157.5t-62 -124.5t-89 -93t-104.5 -64l-29 46q93 54 151 148.5t58 244.5t-58 244.5t-151 148.5z" />
    <glyph glyph-name="asterisk" unicode="*" horiz-adv-x="437" 
d="M280 332q-19 -6 -31.5 1.5t-20.5 31.5q-3 8 -4.5 23t-2 32t-0.5 35t-1 32l-13 5q-18 -22 -41.5 -53.5t-37.5 -41.5q-20 -15 -34.5 -13.5t-26.5 17.5t-8.5 30.5t23.5 28.5q7 5 21 11t30.5 12t33.5 12t30 11v13q-13 5 -30.5 11.5t-33.5 12.5t-30 12t-21 11q-20 14 -23 28.5
t8 30.5t26 17.5t35 -13.5q14 -10 37.5 -41.5t41.5 -53.5l12 5q1 14 1.5 32t1 35t2 32t4.5 23q8 24 20.5 31.5t31.5 1.5q18 -6 24 -19.5t-2 -37.5q-5 -16 -27 -47.5t-38 -55.5l9 -11q28 7 65 18t53 11q25 0 36 -10t11 -29t-11 -29t-36 -10q-16 0 -53 11.5t-65 18.5l-8 -11
q15 -24 36.5 -56t27.5 -48q8 -24 2 -37.5t-24 -19.5z" />
    <glyph glyph-name="plus" unicode="+" horiz-adv-x="525" 
d="M230 103v183h-179v62h179v183h66v-183h178v-62h-178v-183h-66z" />
    <glyph glyph-name="comma" unicode="," horiz-adv-x="231" 
d="M35 -151l-19 34q57 25 84.5 53.5t33.5 60.5l-6 3q-5 -4 -12 -6t-15 -2q-19 0 -34 16t-15 39q0 26 17.5 45.5t44.5 19.5q34 0 54 -23t20 -59q0 -56 -34.5 -100t-118.5 -81z" />
    <glyph glyph-name="hyphen" unicode="-" horiz-adv-x="366" 
d="M55 211v77h256v-77h-256z" />
    <glyph glyph-name="period" unicode="." horiz-adv-x="231" 
d="M116 -16q-28 0 -47 19t-19 45t19 45t47 19q27 0 46 -19t19 -45t-19 -45t-46 -19z" />
    <glyph glyph-name="slash" unicode="/" horiz-adv-x="430" 
d="M-48 -203l386 907h73l-386 -907h-73z" />
    <glyph glyph-name="zero" unicode="0" horiz-adv-x="568" 
d="M283 -16q-59 0 -104.5 26t-76 70.5t-46.5 105t-16 129.5t17 130.5t48.5 106.5t77 71.5t102.5 26.5q59 0 104.5 -26t76 -70.5t46.5 -105t16 -129.5t-17 -130.5t-48.5 -106.5t-77 -71.5t-102.5 -26.5zM285 45q72 0 101.5 71t29.5 200q0 130 -32 201.5t-101 71.5
q-72 0 -101.5 -71t-29.5 -200q0 -130 32 -201.5t101 -71.5z" />
    <glyph glyph-name="one" unicode="1" horiz-adv-x="474" 
d="M65 0v66h143v446q-13 -6 -34.5 -10t-44.5 -4q-16 0 -36.5 3t-32.5 7v54q54 -3 104.5 18t72.5 61h70v-575h143v-66h-385z" />
    <glyph glyph-name="two" unicode="2" horiz-adv-x="569" 
d="M114 -16q-30 0 -47 21t-17 52q0 49 45.5 104t138.5 110q46 27 77 48.5t50 43t27.5 46.5t8.5 59q0 54 -32.5 87.5t-89.5 33.5q-42 0 -73.5 -16.5t-47.5 -44.5q23 -8 36.5 -25.5t13.5 -40.5q0 -29 -18.5 -49.5t-49.5 -20.5q-32 0 -52.5 23t-20.5 57t17 66.5t46.5 57
t71.5 39.5t91 15q53 0 93 -16t67 -42t41 -60t14 -71q0 -72 -50.5 -122t-146.5 -96q-84 -40 -117 -70.5t-51 -62.5l2 -4q19 12 44 18t45 6q26 0 50.5 -8t45.5 -18t39 -18t33 -8q31 0 48.5 27t33.5 93l50 -5q-12 -113 -51.5 -161t-96.5 -48q-34 0 -61 14t-50.5 30t-45.5 30
t-46 14q-4 0 -10.5 -1t-7.5 -1q4 -5 6.5 -13t2.5 -17q0 -22 -15.5 -39t-40.5 -17z" />
    <glyph glyph-name="three" unicode="3" horiz-adv-x="546" 
d="M255 -16q-46 0 -85.5 11t-68.5 30t-45.5 45t-16.5 57q0 30 20.5 53t53.5 23q29 0 45.5 -20t16.5 -45q0 -19 -9.5 -33.5t-20.5 -24.5q16 -16 45 -26t66 -10q70 0 101 35.5t31 89.5q0 56 -37.5 92t-138.5 36h-28v59h23q99 0 132.5 37.5t33.5 90.5q0 51 -30 78.5t-81 27.5
q-40 0 -69.5 -11.5t-45.5 -26.5q16 -7 28 -23t12 -37q0 -24 -16 -44.5t-47 -20.5q-28 0 -48.5 20.5t-20.5 54.5q0 29 16 55.5t44.5 47t68.5 33t87 12.5q51 0 90.5 -13t66 -34.5t40.5 -50.5t14 -61q0 -49 -43.5 -96t-139.5 -64v-3q95 -4 146.5 -48.5t51.5 -106.5
q0 -38 -17 -72.5t-48.5 -60.5t-76.5 -41t-100 -15z" />
    <glyph glyph-name="four" unicode="4" horiz-adv-x="566" 
d="M220 0v64h99v119h-289v68l291 394h95v-396h131v-66h-131v-119h98v-64h-294zM106 249h214v289h-4z" />
    <glyph glyph-name="five" unicode="5" horiz-adv-x="535" 
d="M255 -16q-39 0 -76.5 11.5t-66.5 31t-46.5 47t-17.5 59.5q0 33 19.5 57t50.5 24t46 -19.5t15 -44.5q0 -19 -10 -36t-24 -26q14 -17 42.5 -31t67.5 -14q66 0 99.5 40.5t33.5 115.5q0 73 -32 110.5t-92 37.5q-43 0 -73 -15t-56 -39l-46 12l22 327l14 13q46 -19 93.5 -28
t90.5 -9q46 0 84.5 10t68.5 26l15 -38q-28 -43 -72.5 -67.5t-104.5 -24.5q-38 0 -71.5 8.5t-57.5 17.5l-12 -175q21 16 56.5 29t77.5 13q51 0 89 -16.5t62.5 -43.5t36.5 -63t12 -74q0 -40 -14 -80.5t-42.5 -73t-74 -52.5t-107.5 -20z" />
    <glyph glyph-name="six" unicode="6" horiz-adv-x="554" 
d="M282 -16q-54 0 -97 23.5t-73 63.5t-46 96t-16 120q0 83 21 150.5t58.5 114.5t89.5 72.5t114 25.5q78 0 119.5 -37t41.5 -85q0 -33 -18.5 -54.5t-47.5 -21.5q-28 0 -43.5 16.5t-15.5 41.5q0 19 10 35t25 24q-10 9 -28.5 15.5t-46.5 6.5q-75 0 -126 -67.5t-48 -215.5
q30 43 69 68.5t94 25.5q46 0 81.5 -15t59 -40.5t35.5 -61t12 -76.5q0 -42 -13.5 -82.5t-41 -72t-70 -51t-99.5 -19.5zM287 44q60 0 87 44t27 114q0 57 -27.5 98.5t-86.5 41.5q-56 0 -91 -41.5t-35 -107.5q0 -29 9.5 -56t26.5 -47.5t40 -33t50 -12.5z" />
    <glyph glyph-name="seven" unicode="7" horiz-adv-x="523" 
d="M221 -16q-24 0 -41 17.5t-17 51.5q0 38 14.5 86.5t40 101t62 107t80.5 103.5q10 11 33 35.5t41 40.5l-5 6q-24 -13 -53 -21.5t-55 -8.5q-28 0 -49 6.5t-37 15t-30 15t-29 6.5q-28 0 -42.5 -28.5t-25.5 -111.5h-62v229h68l4 -72h5q15 44 37 60.5t51 16.5t51 -14t41 -30
t37.5 -30t41.5 -14q9 0 16.5 1t11.5 2q-5 7 -9.5 16.5t-4.5 21.5q0 22 16 39.5t42 17.5q27 0 42.5 -18.5t15.5 -42.5q0 -27 -17 -52.5t-45 -56.5q-72 -80 -115 -178t-53 -243q-3 -37 -18 -56t-43 -19z" />
    <glyph glyph-name="eight" unicode="8" horiz-adv-x="541" 
d="M268 -16q-52 0 -93 13.5t-69 37t-43 55t-15 66.5q0 42 27 83.5t91 67.5q-49 22 -74.5 61.5t-25.5 96.5q0 36 15 69.5t42.5 59t67 41t88.5 15.5q46 0 83 -13t63 -35t40.5 -51.5t14.5 -61.5q0 -46 -26 -83.5t-83 -59.5q65 -25 96.5 -67t31.5 -95q0 -41 -17.5 -78t-48 -64
t-73 -42.5t-92.5 -15.5zM156 489q0 -54 39 -81t122 -46q45 22 62 56.5t17 67.5q0 40 -30.5 72.5t-90.5 32.5q-58 0 -88.5 -30.5t-30.5 -71.5zM142 171q0 -53 35.5 -90.5t101.5 -37.5q62 0 96.5 35.5t34.5 76.5q0 53 -42.5 79.5t-151.5 55.5q-35 -17 -54.5 -47.5t-19.5 -71.5
z" />
    <glyph glyph-name="nine" unicode="9" horiz-adv-x="554" 
d="M225 -16q-84 0 -128.5 37.5t-44.5 88.5q0 33 18.5 54.5t47.5 21.5q28 0 43.5 -16.5t15.5 -41.5q0 -19 -10 -35t-25 -24q16 -13 36.5 -19.5t48.5 -6.5q76 0 125.5 65.5t46.5 209.5q-30 -43 -69 -68.5t-94 -25.5q-92 0 -140 56t-48 140q0 44 13.5 85.5t41 73.5t70 51.5
t99.5 19.5q54 0 97 -23.5t73 -63.5t46 -96t16 -120q0 -84 -20 -151.5t-56 -114.5t-88 -72t-115 -25zM267 284q56 0 91 42.5t35 111.5q0 30 -9.5 58t-26.5 48.5t-40 33t-50 12.5q-60 0 -87 -45t-27 -118q0 -60 27.5 -101.5t86.5 -41.5z" />
    <glyph glyph-name="colon" unicode=":" horiz-adv-x="241" 
d="M121 277q-28 0 -47 19t-19 45t19 45t47 19q27 0 46 -19t19 -45t-19 -45t-46 -19zM121 -16q-28 0 -47 19t-19 45t19 45t47 19q27 0 46 -19t19 -45t-19 -45t-46 -19z" />
    <glyph glyph-name="semicolon" unicode=";" horiz-adv-x="241" 
d="M124 277q-28 0 -47 19t-19 45t19 45t47 19q27 0 46 -19t19 -45t-19 -45t-46 -19zM35 -151l-19 34q57 25 84.5 53.5t33.5 60.5l-6 3q-5 -4 -12 -6t-15 -2q-19 0 -34 16t-15 39q0 26 17.5 45.5t44.5 19.5q34 0 54 -23t20 -59q0 -56 -34.5 -100t-118.5 -81z" />
    <glyph glyph-name="less" unicode="&#x3c;" horiz-adv-x="524" 
d="M447 97l-370 191v59l370 190v-69l-304 -151l304 -150v-70z" />
    <glyph glyph-name="equal" unicode="=" horiz-adv-x="525" 
d="M54 381v62h417v-62h-417zM54 191v62h417v-62h-417z" />
    <glyph glyph-name="greater" unicode="&#x3e;" horiz-adv-x="524" 
d="M77 97v69l304 151l-304 150v70l370 -191v-59z" />
    <glyph glyph-name="question" unicode="?" horiz-adv-x="453" 
d="M173 194q2 43 17 89t46 84t61.5 71.5t30.5 87.5q0 46 -28 74.5t-76 28.5q-38 0 -68 -15.5t-40 -42.5q17 -8 29.5 -26.5t12.5 -37.5q0 -27 -17.5 -48.5t-48.5 -21.5t-52.5 22.5t-21.5 55.5q0 32 15 62.5t42 54t64.5 38t81.5 14.5q54 0 93.5 -15t65.5 -39.5t38.5 -55.5
t12.5 -63q0 -50 -28 -91t-94 -92q-36 -28 -50.5 -61.5t-21.5 -72.5h-64zM208 -16q-28 0 -47 19t-19 45t19 45t47 19q27 0 46 -19t19 -45t-19 -45t-46 -19z" />
    <glyph glyph-name="at" unicode="@" horiz-adv-x="906" 
d="M461 -146q-85 0 -159 26t-128.5 76t-86 123t-31.5 166q0 96 34 177t92 139t137 90.5t169 32.5q73 0 139 -24.5t115.5 -69.5t78.5 -109.5t29 -144.5q0 -67 -19.5 -118.5t-50.5 -86t-71.5 -52.5t-81.5 -18q-55 0 -86 28.5t-19 81.5h-2q-27 -51 -65.5 -76.5t-73.5 -25.5
q-53 0 -91.5 39t-38.5 113q0 51 22 101t56 84q32 32 72.5 51.5t83.5 19.5q36 0 62 -21t29 -61l25 77h76l-80 -244q-23 -72 -10 -96t54 -24q28 0 55.5 16t49.5 45.5t36 71t14 91.5q0 68 -23.5 125t-65.5 97.5t-99.5 63t-124.5 22.5q-81 0 -149.5 -31t-118 -84t-77.5 -125.5
t-28 -154.5q0 -78 25 -142.5t71.5 -109.5t112.5 -70t147 -25q75 0 139 23t118 63l24 -37q-58 -44 -131 -68.5t-155 -24.5zM399 124q35 0 61.5 24.5t44.5 59t27.5 73.5t9.5 67q0 37 -12 60t-46 23q-36 0 -63.5 -24t-45.5 -59t-27.5 -75t-9.5 -71q0 -34 14.5 -56t46.5 -22z
" />
    <glyph glyph-name="A" unicode="A" horiz-adv-x="682" 
d="M-13 0v66h71l229 596h101l215 -596h91v-66h-308v66h104l-57 165h-237l-61 -165h83v-66h-231zM316 558l-99 -269h196l-93 269h-4z" />
    <glyph glyph-name="B" unicode="B" horiz-adv-x="639" 
d="M30 0v66h111v526h-111v66h299q74 0 121.5 -13t75 -35t38.5 -51t11 -60q0 -20 -8 -42.5t-27 -43.5t-51.5 -38t-82.5 -26v-5q101 -7 151 -52t50 -104q0 -36 -12.5 -70t-43.5 -60t-85 -42t-136 -16h-300zM244 375h79q82 0 113 33t31 84q0 47 -28.5 73.5t-113.5 26.5h-81
v-217zM244 66h78q97 0 136 31t39 100q0 51 -40.5 85.5t-136.5 34.5h-76v-251z" />
    <glyph glyph-name="C" unicode="C" horiz-adv-x="676" 
d="M351 -16q-70 0 -128 27t-99 74t-63.5 110.5t-22.5 135.5q0 69 25 132t67 109.5t99 74t120 27.5q59 0 106 -21.5t77 -55.5l18 74h66v-258h-60q-34 89 -84.5 142t-116.5 53q-41 0 -77.5 -15t-63 -47.5t-41.5 -84.5t-15 -124q0 -134 54.5 -208.5t154.5 -74.5q44 0 79.5 16.5
t61 45t41 66.5t21.5 81h71q-6 -66 -30.5 -118t-63 -87.5t-89 -54.5t-107.5 -19z" />
    <glyph glyph-name="D" unicode="D" horiz-adv-x="722" 
d="M30 0v66h111v526h-111v66h282q92 0 162 -23.5t116.5 -65.5t70 -100.5t23.5 -129.5q0 -68 -21.5 -129.5t-65.5 -108t-113 -74t-163 -27.5h-291zM244 66h78q125 0 183.5 62t58.5 211q0 131 -60 192t-192 61h-68v-526z" />
    <glyph glyph-name="E" unicode="E" horiz-adv-x="678" 
d="M30 0v66h111v526h-111v66h582v-214h-48q-13 44 -23.5 73t-23 45.5t-30 23t-46.5 6.5h-197v-226h69q28 0 44.5 3t27 13.5t17 30.5t13.5 54h53v-262h-53q-6 35 -12.5 56t-17 32t-27.5 14t-45 3h-69v-244h193q33 0 53 7t34 25.5t24.5 51.5t24.5 84h48v-234h-591z" />
    <glyph glyph-name="F" unicode="F" horiz-adv-x="642" 
d="M30 0v66h111v526h-111v66h569v-219h-48q-16 48 -28.5 78t-26.5 46.5t-33 22.5t-48 6h-171v-237h57q55 0 73.5 17.5t28.5 84.5h53v-266h-53q-9 70 -28 89t-74 19h-57v-233h122v-66h-336z" />
    <glyph glyph-name="G" unicode="G" horiz-adv-x="718" 
d="M351 -16q-70 0 -128 27t-99 74t-63.5 110.5t-22.5 135.5q0 69 25 132t67 109.5t99 74t120 27.5q59 0 106 -21.5t77 -55.5l18 74h66v-258h-60q-34 89 -84.5 142t-116.5 53q-41 0 -77.5 -15t-63 -47.5t-41.5 -84.5t-15 -124q0 -134 54.5 -208.5t154.5 -74.5q54 0 86 24.5
t48 54.5q10 19 15.5 52t5.5 55v25h-121v66h312v-66h-88v-272h-64l-28 89q-31 -45 -77 -71.5t-105 -26.5z" />
    <glyph glyph-name="H" unicode="H" horiz-adv-x="789" 
d="M30 0v66h111v526h-111v66h309v-66h-95v-222h301v222h-95v66h309v-66h-111v-526h111v-66h-309v66h95v246h-301v-246h95v-66h-309z" />
    <glyph glyph-name="I" unicode="I" horiz-adv-x="405" 
d="M40 0v66h111v526h-111v66h325v-66h-111v-526h111v-66h-325z" />
    <glyph glyph-name="J" unicode="J" horiz-adv-x="556" 
d="M230 -16q-90 0 -147 44.5t-57 114.5q0 39 23 64t54 25q27 0 49 -19t22 -56q0 -23 -12.5 -40t-30.5 -26q16 -22 43 -32.5t59 -10.5q49 0 76 30t27 89v425h-110v66h318v-66h-105v-410q0 -93 -55 -145.5t-154 -52.5z" />
    <glyph glyph-name="K" unicode="K" horiz-adv-x="724" 
d="M30 0v66h111v526h-111v66h309v-66h-95v-279l267 279h-86v66h262v-66h-83l-207 -207l236 -319h83v-66h-292v66h84l-179 251l-85 -85v-166h95v-66h-309z" />
    <glyph glyph-name="L" unicode="L" horiz-adv-x="610" 
d="M30 0v66h111v526h-111v66h325v-66h-111v-526h138q30 0 50 5t35 23.5t28.5 54.5t32.5 96h48v-245h-546z" />
    <glyph glyph-name="M" unicode="M" horiz-adv-x="949" 
d="M35 0v66h101v526h-101v66h272l167 -487h3l170 487h267v-66h-106v-526h106v-66h-297v66h88v518h-9l-211 -584h-52l-214 584h-9v-518h94v-66h-269z" />
    <glyph glyph-name="N" unicode="N" horiz-adv-x="792" 
d="M591 -16l-372 541h-9v-459h104v-66h-279v66h101v526h-101v66h218l331 -480h9v414h-104v66h279v-66h-101v-608h-76z" />
    <glyph glyph-name="O" unicode="O" horiz-adv-x="720" 
d="M360 -16q-67 0 -126 26t-102.5 71.5t-68.5 109t-25 138.5q0 73 26 136.5t70 109.5t102.5 72.5t123.5 26.5q67 0 126 -25.5t102.5 -71t68.5 -109.5t25 -139q0 -74 -26 -137t-70 -109t-102.5 -72.5t-123.5 -26.5zM360 50q98 0 150 74t52 205t-52 205t-150 74t-150 -74.5
t-52 -204.5t52 -204.5t150 -74.5z" />
    <glyph glyph-name="P" unicode="P" horiz-adv-x="621" 
d="M30 0v66h111v526h-111v66h288q76 0 129.5 -16t86 -42t47 -60t14.5 -71q0 -34 -12.5 -69.5t-43 -64t-82.5 -47t-130 -18.5h-83v-204h122v-66h-336zM244 330h76q49 0 80 10.5t48 29t23 43.5t6 54q0 49 -32.5 87t-125.5 38h-75v-262z" />
    <glyph glyph-name="Q" unicode="Q" horiz-adv-x="730" 
d="M360 -16q-67 0 -126 26t-102.5 71.5t-68.5 109t-25 138.5q0 73 26 136.5t70 109.5t102.5 72.5t123.5 26.5q67 0 126 -25.5t102.5 -71t68.5 -109.5t25 -139q0 -87 -36 -159.5t-94 -118.5q26 -45 46 -59t41 -14q25 0 39 19.5t21 62.5h55q-5 -73 -36.5 -120t-92.5 -47
q-53 0 -89 27.5t-63 85.5q-26 -10 -54.5 -16t-58.5 -6zM355 244q53 0 89.5 -32t67.5 -86q25 36 37.5 87.5t12.5 115.5q0 131 -52 205t-150 74t-150 -74.5t-52 -204.5q0 -60 12 -111t37 -89q13 51 52 83t96 32zM261 106q0 -22 20.5 -39t78.5 -17q25 0 46.5 4.5t40.5 14.5
q-21 46 -48.5 78t-64.5 32q-34 0 -53.5 -21t-19.5 -52z" />
    <glyph glyph-name="R" unicode="R" horiz-adv-x="685" 
d="M589 -11q-44 0 -80 25t-37 93l-2 80q-1 51 -21 77t-91 26h-114v-224h108v-66h-322v66h111v526h-111v66h322q75 0 124.5 -15t78.5 -39.5t40.5 -55t11.5 -61.5q0 -51 -36 -97.5t-131 -62.5v-9q76 -16 104.5 -53t32.5 -88l6 -73q2 -25 9.5 -35t20.5 -10q12 0 22 10t22 32
l44 -21q-16 -41 -44 -66t-68 -25zM244 350h106q80 0 109.5 34.5t29.5 94.5q0 54 -28 83.5t-99 29.5h-118v-242z" />
    <glyph glyph-name="S" unicode="S" horiz-adv-x="585" 
d="M326 -16q-55 0 -104 19t-79 53l-24 -69h-66v238h60q27 -50 50.5 -84.5t48 -55.5t51.5 -30t62 -9q58 0 91.5 29t33.5 80q0 30 -14.5 50.5t-39 34.5t-56 24t-65.5 20q-38 11 -76.5 24.5t-68.5 35.5t-49 55.5t-19 83.5q0 37 15 71.5t42 61t65 42.5t85 16q42 0 88 -18t74 -52
l21 67h66v-228h-60q-46 97 -92 133t-102 36q-48 0 -76 -27.5t-28 -72.5q0 -33 15 -55t40 -36.5t58 -23.5t67 -18q38 -10 75 -22t66.5 -32.5t48 -52.5t18.5 -82q0 -43 -17 -80.5t-46 -65.5t-70 -44t-89 -16z" />
    <glyph glyph-name="T" unicode="T" horiz-adv-x="677" 
d="M171 0v66h116v536h-44q-33 0 -54.5 -7t-38 -26t-31 -54t-32.5 -91h-47v234h597v-234h-47q-18 56 -32.5 91t-31 54t-38 26t-54.5 7h-44v-536h116v-66h-335z" />
    <glyph glyph-name="U" unicode="U" horiz-adv-x="751" 
d="M374 -16q-125 0 -191.5 60.5t-66.5 154.5v393h-96v66h297v-66h-98v-360q0 -95 47.5 -135.5t138.5 -40.5q40 0 68.5 12.5t50.5 34.5q25 25 33 61t8 92v336h-103v66h271v-66h-94v-393q0 -42 -17.5 -81t-50.5 -68.5t-83 -47.5t-114 -18z" />
    <glyph glyph-name="V" unicode="V" horiz-adv-x="684" 
d="M300 -4l-222 596h-91v66h309v-66h-104l168 -481h9l179 481h-83v66h231v-66h-71l-232 -596h-93z" />
    <glyph glyph-name="W" unicode="W" horiz-adv-x="992" 
d="M265 -4l-187 596h-91v66h310v-66h-106l141 -474h9l138 410l-18 64h-91v66h317v-66h-117l127 -474h9l145 474h-83v66h231v-66h-71l-198 -596h-101l-117 425l-147 -425h-100z" />
    <glyph glyph-name="X" unicode="X" horiz-adv-x="684" 
d="M7 0v66h83l196 264l-181 262h-90v66h295v-66h-85l133 -201l143 201h-91v66h254v-66h-83l-183 -248l190 -278h89v-66h-295v66h88l-144 217l-158 -217h93v-66h-254z" />
    <glyph glyph-name="Y" unicode="Y" horiz-adv-x="647" 
d="M174 0v66h99v208l-181 318h-82v66h289v-66h-90l140 -258l149 258h-84v66h232v-66h-77l-193 -317v-209h101v-66h-303z" />
    <glyph glyph-name="Z" unicode="Z" horiz-adv-x="629" 
d="M42 0v51l413 541h-199q-30 0 -50 -4t-35.5 -21t-29.5 -52t-33 -95h-48v238h524v-51l-411 -541h220q30 0 50 5t35 23.5t28.5 54.5t32.5 96h48v-245h-545z" />
    <glyph glyph-name="bracketleft" unicode="[" horiz-adv-x="343" 
d="M89 -156v877h265v-62h-171v-753h171v-62h-265z" />
    <glyph glyph-name="backslash" unicode="\" horiz-adv-x="430" 
d="M405 -203l-386 907h73l386 -907h-73z" />
    <glyph glyph-name="bracketright" unicode="]" horiz-adv-x="343" 
d="M254 -156h-265v62h171v753h-171v62h265v-877z" />
    <glyph glyph-name="asciicircum" unicode="^" horiz-adv-x="524" 
d="M42 275l191 370h59l190 -370h-74l-146 296l-145 -296h-75z" />
    <glyph glyph-name="underscore" unicode="_" horiz-adv-x="440" 
d="M-2 0v66h444v-66h-444z" />
    <glyph glyph-name="grave" unicode="`" horiz-adv-x="238" 
d="M126 533l-66 81q-22 28 -31 44t-9 30q0 17 12.5 30t29.5 13q22 0 37 -18.5t29 -55.5l48 -124h-50z" />
    <glyph glyph-name="a" unicode="a" horiz-adv-x="491" 
d="M177 -5q-63 0 -98 33.5t-35 84.5q0 24 8 45t26 39q28 28 68 40t102 21q44 7 57 11t13 17v47q0 44 -22 62.5t-69 18.5q-22 0 -40.5 -4.5t-36.5 -14.5q13 -6 21 -19.5t8 -29.5q0 -22 -15 -39t-43 -17q-29 0 -45 18t-16 40q0 27 15 49t40.5 37t60 23t72.5 8q78 0 121 -33.5
t43 -105.5v-232q0 -17 6.5 -25t24.5 -8q10 0 19.5 10t16.5 26l35 -21q-18 -42 -43.5 -60.5t-59.5 -18.5q-31 0 -56.5 19t-25.5 61h-5q-19 -37 -61 -59.5t-86 -22.5zM220 59q34 0 66 26t32 66v79q-7 -3 -16.5 -5t-28.5 -5q-72 -11 -99.5 -26.5t-27.5 -60.5q0 -33 18 -53.5
t56 -20.5z" />
    <glyph glyph-name="b" unicode="b" horiz-adv-x="546" 
d="M315 -9q-54 0 -90.5 27t-61.5 67l-33 -91h-53v621h-73v72h167v-322q25 47 66 74t87 27q41 0 69.5 -12t49.5 -33q32 -32 47 -80t15 -111q0 -55 -17.5 -105t-49.5 -82q-24 -24 -57 -38t-66 -14zM296 54q47 0 76 45.5t29 130.5q0 82 -28 127.5t-77 45.5q-54 0 -90.5 -52.5
t-36.5 -132.5q0 -79 39 -121.5t88 -42.5z" />
    <glyph glyph-name="c" unicode="c" horiz-adv-x="481" 
d="M257 -9q-52 0 -93.5 17.5t-69.5 48.5t-43 73.5t-15 91.5q0 53 18 98t49.5 77.5t75.5 50.5t94 18q37 0 69.5 -12t56 -30t37 -41.5t13.5 -45.5q0 -35 -17 -58t-48 -23q-30 0 -46 18t-16 43q0 20 13 37.5t26 22.5q-10 16 -33 28t-59 12q-52 0 -90.5 -47t-38.5 -136
q0 -85 36.5 -132.5t105.5 -47.5q42 0 75 24.5t50 73.5h48q-18 -77 -70.5 -119t-127.5 -42z" />
    <glyph glyph-name="d" unicode="d" horiz-adv-x="551" 
d="M227 -9q-35 0 -67 13.5t-54 35.5q-33 33 -49 81t-16 101q0 55 18.5 108t50.5 85q25 25 56.5 38t68.5 13q50 0 84 -22.5t56 -57.5v229h-76v72h170v-621h67v-66h-159v94q-25 -51 -64.5 -77t-85.5 -26zM260 54q45 0 81 46t36 130q0 34 -7 65.5t-21 55t-36.5 38t-52.5 14.5
q-54 0 -84.5 -46t-30.5 -127q0 -84 34.5 -130t80.5 -46z" />
    <glyph glyph-name="e" unicode="e" horiz-adv-x="490" 
d="M255 -9q-52 0 -93 18t-69 49t-42.5 74t-14.5 92q0 51 17 95.5t47 77t71 51t90 18.5q51 0 88.5 -21t61.5 -55t35 -78t10 -89h-316q2 -84 38.5 -126.5t101.5 -42.5q42 0 73.5 19.5t52.5 65.5h48q-19 -73 -71.5 -110.5t-127.5 -37.5zM254 413q-47 0 -77 -33t-36 -110h219
q-5 63 -29.5 103t-76.5 40z" />
    <glyph glyph-name="f" unicode="f" horiz-adv-x="341" 
d="M33 0v66h73v326h-90v66h90v16q0 59 17.5 101t45 68t62.5 38t69 12q61 0 95 -26.5t34 -63.5q0 -24 -15.5 -43t-39.5 -19q-27 0 -44 15.5t-17 46.5q0 6 2 16t6 17q-6 4 -14 6t-21 2q-38 0 -62 -34t-24 -131v-21h132v-66h-132v-326h104v-66h-271z" />
    <glyph glyph-name="g" unicode="g" horiz-adv-x="477" 
d="M225 -167q-92 0 -147 29t-55 74q0 31 26.5 57.5t69.5 31.5v5q-40 13 -56.5 34.5t-16.5 46.5t25 50t61 32q-37 18 -59.5 47.5t-22.5 75.5q0 72 54 111t133 39q19 0 37.5 -3t34.5 -8q22 38 55 63.5t73 25.5q29 0 47 -16t18 -41q0 -21 -13.5 -35.5t-32.5 -14.5
q-20 0 -31.5 11t-11.5 30v5t1 6q-13 3 -32.5 -12.5t-32.5 -38.5q34 -19 54 -49.5t20 -67.5q0 -72 -53.5 -111t-132.5 -39q-16 0 -31 1.5t-29 1.5q-24 0 -36 -13t-12 -27q0 -18 15 -29t52 -11h121q78 0 112 -31.5t34 -79.5q0 -60 -59.5 -105t-178.5 -45zM240 217
q42 0 63.5 25.5t21.5 76.5q0 43 -24 72t-68 29q-43 0 -64.5 -24.5t-21.5 -77.5t25 -77t68 -24zM231 -116q66 0 108 20.5t42 54.5q0 24 -15.5 39t-54.5 15h-112q-45 0 -66.5 -15.5t-21.5 -46.5q0 -25 24 -46t96 -21z" />
    <glyph glyph-name="h" unicode="h" horiz-adv-x="570" 
d="M23 0v66h73v549h-73v72h167v-343q39 64 80 92t90 28q54 0 88 -38t34 -105v-255h73v-66h-234v66h67v221q0 25 -6 46t-19 34q-10 10 -23.5 15t-30.5 5q-21 0 -42.5 -10t-38 -29t-27.5 -46.5t-11 -61.5v-174h67v-66h-234z" />
    <glyph glyph-name="i" unicode="i" horiz-adv-x="316" 
d="M164 554q-29 0 -47 17.5t-18 47.5t18 49t47 19t47 -18t18 -48t-18 -48.5t-47 -18.5zM40 0v66h83v326h-83v66h177v-392h83v-66h-260z" />
    <glyph glyph-name="j" unicode="j" horiz-adv-x="291" 
d="M162 554q-29 0 -47 17.5t-18 47.5t18 49t47 19t47 -18t18 -48t-18 -48.5t-47 -18.5zM50 -167q-48 0 -79.5 21.5t-31.5 57.5q0 25 17.5 46t44.5 21q28 0 43.5 -17.5t15.5 -39.5q0 -8 -2.5 -17.5t-5.5 -15.5q4 -1 9.5 -2t7.5 -1q25 0 38.5 22t13.5 66v418h-83v66h177v-430
q0 -88 -39 -141.5t-126 -53.5z" />
    <glyph glyph-name="k" unicode="k" horiz-adv-x="541" 
d="M23 0v66h73v549h-73v72h167v-468l166 173h-75v66h224v-66h-69l-121 -121l158 -205h54v-66h-217v66h57l-111 150l-66 -65v-85h57v-66h-224z" />
    <glyph glyph-name="l" unicode="l" horiz-adv-x="298" 
d="M19 0v66h83v549h-83v72h177v-621h83v-66h-260z" />
    <glyph glyph-name="m" unicode="m" horiz-adv-x="856" 
d="M35 0v66h73v326h-73v66h165v-116q39 64 81 93t87 29q48 0 79.5 -28t35.5 -89q40 63 81.5 90t86.5 27q54 0 85.5 -38t31.5 -105v-255h73v-66h-229v66h62v221q0 27 -5.5 48t-18.5 34q-9 9 -21.5 13.5t-28.5 4.5q-19 0 -39 -10t-37 -29t-28 -46.5t-11 -61.5v-174h62v-66
h-218v66h62v221q0 27 -5.5 48t-18.5 34q-9 9 -21.5 13.5t-28.5 4.5q-19 0 -39.5 -10t-37 -29t-27.5 -46.5t-11 -61.5v-174h62v-66h-229z" />
    <glyph glyph-name="n" unicode="n" horiz-adv-x="582" 
d="M35 0v66h73v326h-73v66h165v-116q39 64 81 93t91 29q54 0 88 -38t34 -105v-255h73v-66h-234v66h67v221q0 25 -6 46t-19 34q-10 10 -23.5 15t-30.5 5q-21 0 -42.5 -10t-38 -29t-27.5 -46.5t-11 -61.5v-174h67v-66h-234z" />
    <glyph glyph-name="o" unicode="o" horiz-adv-x="529" 
d="M265 -9q-107 0 -168 66t-61 170q0 52 16.5 96t46.5 75.5t72.5 49.5t93.5 18q105 0 166.5 -65.5t61.5 -169.5q0 -52 -16.5 -96.5t-46.5 -76t-72 -49.5t-93 -18zM269 45q58 0 89 45t31 139t-34.5 138.5t-94.5 44.5q-59 0 -89.5 -44.5t-30.5 -138.5t34.5 -139t94.5 -45z" />
    <glyph glyph-name="p" unicode="p" horiz-adv-x="557" 
d="M19 -154v66h73v480h-73v66h165v-105q25 60 66.5 86.5t87.5 26.5q36 0 65.5 -13t51.5 -35q31 -31 46 -78.5t15 -103.5t-18 -105.5t-49 -80.5q-23 -23 -53.5 -36.5t-62.5 -13.5q-52 0 -89 24.5t-58 61.5v-174h96v-66h-263zM301 63q53 0 82 45.5t29 132.5q0 83 -31 122.5
t-77 39.5q-22 0 -43.5 -13t-38.5 -36.5t-27.5 -56.5t-10.5 -72q0 -68 30 -115t87 -47z" />
    <glyph glyph-name="q" unicode="q" horiz-adv-x="538" 
d="M278 -154v66h96v184q-22 -47 -60.5 -71.5t-84.5 -24.5q-39 0 -71.5 14t-55.5 37q-31 31 -46 79t-15 100q0 50 18.5 100.5t49.5 81.5q25 25 57 39.5t66 14.5q54 0 89.5 -27t60.5 -67l33 89h53v-549h73v-66h-263zM260 63q45 0 80.5 46t35.5 124q0 75 -32.5 122.5
t-83.5 47.5q-54 0 -84.5 -45.5t-30.5 -127.5q0 -88 32.5 -127.5t82.5 -39.5z" />
    <glyph glyph-name="r" unicode="r" horiz-adv-x="422" 
d="M35 0v66h73v326h-73v66h165v-106q17 57 56.5 84.5t78.5 27.5q38 0 59 -23t21 -55q0 -26 -17.5 -45.5t-42.5 -19.5q-26 0 -44.5 15.5t-18.5 43.5q0 4 0.5 8.5t1.5 8.5q-34 1 -57 -31.5t-35 -77.5v-222h87v-66h-254z" />
    <glyph glyph-name="s" unicode="s" horiz-adv-x="442" 
d="M45 -9v173h61q19 -54 58.5 -89t87.5 -35q40 0 58.5 18t18.5 46q0 30 -27 47.5t-94 36.5q-82 23 -118.5 55.5t-36.5 86.5q0 55 44 95.5t114 40.5q35 0 65 -13.5t46 -39.5l10 53h59v-157h-60q-23 50 -49.5 79t-72.5 29q-26 0 -48.5 -15t-22.5 -43q0 -30 28 -48.5t89 -34.5
q79 -22 117.5 -52.5t38.5 -88.5q0 -26 -11 -51.5t-32 -46t-52 -33.5t-69 -13q-43 0 -77 16.5t-56 43.5l-11 -60h-58z" />
    <glyph glyph-name="t" unicode="t" horiz-adv-x="362" 
d="M217 -9q-60 0 -90.5 33t-30.5 89v279h-90v66h90v109l94 10v-119h150v-66h-150v-270q0 -34 12 -50.5t43 -16.5q21 0 38 19.5t32 59.5l45 -19q-19 -66 -57 -95t-86 -29z" />
    <glyph glyph-name="u" unicode="u" horiz-adv-x="565" 
d="M211 -6q-54 0 -86.5 38t-32.5 105v255h-73v66h167v-287q0 -26 5.5 -47t18.5 -34q9 -9 22 -14t30 -5q21 0 42.5 10t38 29t27.5 46.5t11 61.5v174h-76v66h170v-392h73v-66h-165v116q-39 -64 -81 -93t-91 -29z" />
    <glyph glyph-name="v" unicode="v" horiz-adv-x="513" 
d="M213 -6l-149 398h-64v66h242v-66h-78l108 -307h4l109 307h-65v66h193v-66h-58l-154 -398h-88z" />
    <glyph glyph-name="w" unicode="w" horiz-adv-x="767" 
d="M199 -6l-135 398h-64v66h235v-66h-75l98 -310h4l101 252l-20 58h-62v66h238v-66h-84l103 -310h4l97 310h-65v66h193v-66h-58l-138 -398h-92l-87 257l-105 -257h-88z" />
    <glyph glyph-name="x" unicode="x" horiz-adv-x="505" 
d="M14 0v66h52l141 156l-140 170h-53v66h227v-64h-71l95 -122l105 122h-66v64h187v-66h-49l-140 -155l137 -171h52v-66h-222v64h70l-95 124l-108 -124h64v-64h-186z" />
    <glyph glyph-name="y" unicode="y" horiz-adv-x="506" 
d="M107 -167q-44 0 -70 21.5t-26 57.5q0 25 18 45t45 20q28 0 43.5 -18t15.5 -40q0 -8 -2.5 -17.5t-4.5 -13.5q29 6 50.5 28.5t46.5 86.5q-15 37 -42 103t-53 129t-45 110l-19 47h-64v66h242v-66h-78l107 -288l113 288h-64v66h193v-66h-59l-159 -381q-45 -106 -91 -142
t-97 -36z" />
    <glyph glyph-name="z" unicode="z" horiz-adv-x="465" 
d="M39 0v53l285 351h-114q-26 0 -43 -4t-28.5 -16t-20.5 -34.5t-20 -58.5h-46v167h382v-53l-286 -351h137q25 0 41 4.5t27 18t19 38t18 63.5h46v-178h-397z" />
    <glyph glyph-name="braceleft" unicode="{" horiz-adv-x="388" 
d="M395 -156q-110 4 -169 51.5t-59 132.5q0 34 8 67.5t8 71.5q0 40 -32.5 63t-104.5 23h-30v59h30q72 0 104.5 23t32.5 63q0 38 -8 71.5t-8 67.5q0 85 59 132.5t169 51.5v-60q-42 -3 -68 -12t-39.5 -24t-18 -36t-4.5 -49q0 -9 2 -39.5t2 -58.5q0 -75 -34.5 -112.5
t-121.5 -44.5v-5q87 -7 121.5 -44.5t34.5 -112.5q0 -28 -2 -58.5t-2 -39.5q0 -28 4.5 -49t18 -36t39.5 -24t68 -12v-60z" />
    <glyph glyph-name="bar" unicode="|" horiz-adv-x="289" 
d="M113 -203v907h64v-907h-64z" />
    <glyph glyph-name="braceright" unicode="}" horiz-adv-x="388" 
d="M-7 721q110 -4 169 -51.5t59 -132.5q0 -34 -8 -67.5t-8 -71.5q0 -40 32.5 -63t104.5 -23h30v-59h-30q-72 0 -104.5 -23t-32.5 -63q0 -38 8 -71.5t8 -67.5q0 -85 -59 -132.5t-169 -51.5v60q42 3 68 12t39.5 24t18 36t4.5 49q0 9 -2 39.5t-2 58.5q0 75 34.5 112.5
t121.5 44.5v5q-87 7 -121.5 44.5t-34.5 112.5q0 28 2 58.5t2 39.5q0 28 -4.5 49t-18 36t-39.5 24t-68 12v60z" />
    <glyph glyph-name="asciitilde" unicode="~" horiz-adv-x="706" 
d="M112 204l-60 31q39 102 83 147t101 45q38 0 70.5 -23t61 -51t54.5 -51t51 -23q40 0 67 42.5t54 108.5l60 -29q-39 -102 -83 -148t-101 -46q-38 0 -70.5 23t-61 51t-54.5 51t-51 23q-40 0 -67 -42.5t-54 -108.5z" />
    <glyph glyph-name="asciitilde" unicode="&#x223c;" horiz-adv-x="706" 
d="M112 204l-60 31q39 102 83 147t101 45q38 0 70.5 -23t61 -51t54.5 -51t51 -23q40 0 67 42.5t54 108.5l60 -29q-39 -102 -83 -148t-101 -46q-38 0 -70.5 23t-61 51t-54.5 51t-51 23q-40 0 -67 -42.5t-54 -108.5z" />
    <glyph glyph-name="uni00A0" unicode="&#xa0;" horiz-adv-x="184" 
 />
    <glyph glyph-name="exclamdown" unicode="&#xa1;" horiz-adv-x="279" 
d="M139 684q28 0 47 -19t19 -45t-19 -45t-47 -19q-27 0 -46 19t-19 45t19 45t46 19zM163 488q4 -80 11.5 -151.5t14.5 -129.5q5 -46 8.5 -84t3.5 -66q0 -37 -17 -55t-45 -18t-44.5 18t-16.5 55q0 28 3.5 66t8.5 84q7 58 14.5 129.5t11.5 151.5h47z" />
    <glyph glyph-name="cent" unicode="&#xa2;" horiz-adv-x="521" 
d="M287 -101l-57 4l7 92q-88 15 -134.5 77.5t-46.5 149.5q0 100 62 168t161 75l8 83l57 -4l-7 -80q66 -10 110 -49t44 -82q0 -34 -17.5 -53.5t-47.5 -19.5t-46 18t-16 43q0 20 13 37.5t26 22.5q-8 13 -27 21.5t-44 12.5l-33 -361h5.5h5.5q42 0 79 24t54 74h48
q-17 -75 -70.5 -117t-125.5 -44zM160 234q0 -63 20.5 -106.5t63.5 -61.5l32 349q-51 -8 -83.5 -54.5t-32.5 -126.5z" />
    <glyph glyph-name="sterling" unicode="&#xa3;" horiz-adv-x="611" 
d="M113 -16q-37 0 -60 20.5t-23 52.5q0 21 10.5 41t32 36t55 26t79.5 10h7.5t7.5 -1q3 13 4.5 23.5t1.5 20.5q0 19 -5.5 36t-12.5 33h-152v63h119q-9 19 -15 41.5t-6 50.5q0 48 17.5 87.5t47 67t69.5 43t86 15.5q40 0 72.5 -11t55.5 -29.5t36 -42t13 -48.5
q0 -38 -22.5 -58.5t-49.5 -20.5q-31 0 -50 18.5t-19 48.5q0 19 9 33t17 21q-7 11 -28 19.5t-43 8.5q-51 0 -81 -28.5t-30 -77.5q0 -37 12 -70.5t24 -67.5h186v-63h-170q1 -5 1 -10.5v-10.5q0 -21 -7 -47t-24 -56q29 -7 52 -20t43 -24.5t38.5 -20.5t37.5 -9q32 0 51.5 19
t29.5 82l51 -3q-5 -101 -37.5 -149t-102.5 -48q-27 0 -52.5 10.5t-49 26t-47.5 32.5t-48 30q-19 -54 -57 -77t-74 -23zM96 65q0 -10 7.5 -18t21.5 -8q17 0 35.5 16t28.5 48q-9 2 -17.5 3.5t-16.5 1.5q-31 0 -45 -14t-14 -29z" />
    <glyph glyph-name="yen" unicode="&#xa5;" horiz-adv-x="658" 
d="M160 0v66h121v69h-191v57h191v69h-191v57h159l-141 250h-81v66h283v-66h-91l129 -246l136 246h-81v66h229v-66h-75l-150 -250h160v-57h-190v-69h190v-57h-190v-69h119v-66h-336z" />
    <glyph glyph-name="section" unicode="&#xa7;" horiz-adv-x="525" 
d="M256 -118q-35 0 -69.5 9.5t-61 26t-42.5 39.5t-16 50t16 48.5t47 21.5q28 0 43.5 -17.5t15.5 -41.5q0 -15 -7.5 -29t-20.5 -22q13 -11 38.5 -20t64.5 -9q57 0 79 20t22 45q0 13 -3.5 25t-16 24.5t-37 25.5t-67.5 28q-94 32 -130 64.5t-36 87.5q0 44 32 75.5t83 47.5v7
q-46 20 -72.5 47t-26.5 68q0 66 55.5 107t137.5 41q37 0 67 -10.5t51.5 -26.5t33 -36.5t11.5 -41.5q0 -28 -15.5 -45.5t-40.5 -17.5q-27 0 -42 17t-15 38q0 13 6 25t16 20q-12 8 -32 15t-45 7q-53 0 -77.5 -19.5t-24.5 -43.5q0 -13 4.5 -25t19.5 -23.5t42 -25t72 -29.5
q78 -28 114 -60.5t36 -90.5q0 -35 -26.5 -69.5t-75.5 -53.5v-6q37 -16 62.5 -43t25.5 -67q0 -28 -10 -56t-33 -50.5t-60.5 -36.5t-91.5 -14zM297 179q49 11 66.5 32.5t17.5 43.5q0 24 -19 48t-88 49l-24 8q-51 -12 -69 -35.5t-18 -47.5q0 -27 24.5 -48t94.5 -45z" />
    <glyph glyph-name="dieresis" unicode="&#xa8;" horiz-adv-x="322" 
d="M70 556q-25 0 -42 18t-17 43t17 43.5t42 18.5t42 -18.5t17 -43.5t-17 -43t-42 -18zM252 556q-25 0 -42 18t-17 43t17 43.5t42 18.5t42 -18.5t17 -43.5t-17 -43t-42 -18z" />
    <glyph glyph-name="copyright" unicode="&#xa9;" horiz-adv-x="787" 
d="M393 -32q-76 0 -142 28t-114.5 76.5t-76.5 115t-28 142.5t28 142t76.5 114t114.5 76t142 28t142.5 -28t115 -76t76.5 -114t28 -142t-28 -142.5t-76.5 -115t-115 -76.5t-142.5 -28zM393 6q68 0 126.5 25t101 68.5t67 103t24.5 127.5q0 67 -24.5 126t-67 102.5t-101 68.5
t-126.5 25q-67 0 -125 -25t-101 -68.5t-67.5 -102.5t-24.5 -126q0 -68 24.5 -127.5t67.5 -103t101 -68.5t125 -25zM397 141q-39 0 -72.5 15.5t-57.5 41.5t-37.5 62t-13.5 76q0 39 15 73.5t40 59.5t58.5 40t68.5 15q33 0 57 -12t41 -31l10 42h42v-140h-39q-19 48 -45 73.5
t-63 25.5q-45 0 -76 -33t-31 -110q0 -75 28 -114t84 -39q50 0 75.5 32t31.5 80h45q-7 -74 -51.5 -115.5t-109.5 -41.5z" />
    <glyph glyph-name="ordfeminine" unicode="&#xaa;" horiz-adv-x="410" 
d="M148 316q-45 0 -71 23.5t-26 60.5q0 22 9.5 40.5t31.5 33.5q19 13 47 20t71 13q24 4 31.5 7.5t7.5 11.5v30q0 33 -15.5 44t-49.5 11q-16 0 -29.5 -2.5t-26.5 -8.5q9 -4 14.5 -14t5.5 -21q0 -16 -11 -28t-30 -12q-21 0 -32.5 12.5t-11.5 28.5q0 39 40.5 62.5t95.5 23.5
t88.5 -24.5t33.5 -75.5v-163q0 -13 4.5 -19.5t17.5 -6.5q7 0 14.5 7.5t12.5 19.5l29 -16q-13 -31 -33.5 -44t-45.5 -13q-22 0 -42.5 13.5t-20.5 43.5h-4q-13 -26 -43.5 -42t-61.5 -16zM179 365q24 0 47 19t23 47v50q-5 -2 -12 -3.5t-20 -3.5q-54 -8 -71 -18t-17 -42
q0 -23 11 -36t39 -13z" />
    <glyph glyph-name="guillemotleft" unicode="&#xab;" horiz-adv-x="500" 
d="M219 30l-152 154q-16 16 -21.5 24.5t-5.5 15.5t5.5 15.5t21.5 24.5l152 154l35 -24l-117 -168l117 -172zM419 30l-152 154q-16 16 -21.5 24.5t-5.5 15.5t5.5 15.5t21.5 24.5l152 154l35 -24l-117 -168l117 -172z" />
    <glyph glyph-name="uni00AD" unicode="&#xad;" horiz-adv-x="0" 
 />
    <glyph glyph-name="registered" unicode="&#xae;" horiz-adv-x="517" 
d="M258 248q-47 0 -87.5 17t-70 46.5t-46.5 70.5t-17 88t17 87.5t46.5 70t70 46t87.5 16.5t88 -16.5t70.5 -46t46.5 -70t17 -87.5t-17 -88t-46.5 -70.5t-70.5 -46.5t-88 -17zM258 278q85 0 136 53.5t51 138.5q0 84 -51 137t-136 53q-84 0 -135 -53t-51 -137q0 -85 51 -138.5
t135 -53.5zM348 354q-20 0 -33 11t-13 36v22q0 17 -7 26t-29 9h-35v-74h35v-25h-115v25h36v177h-36v26h118q51 0 70 -19t19 -41q0 -18 -14 -34.5t-49 -20.5v-3q28 -4 39 -17t13 -32l2 -21q1 -10 3.5 -13.5t6.5 -3.5t8 4t7 13l17 -7q-5 -16 -15.5 -27t-27.5 -11zM231 482h34
q24 0 34 11t10 31q0 18 -9 27.5t-32 9.5h-37v-79z" />
    <glyph glyph-name="macron" unicode="&#xaf;" horiz-adv-x="321" 
d="M35 550v75h251v-75h-251z" />
    <glyph glyph-name="degree" unicode="&#xb0;" horiz-adv-x="402" 
d="M202 353q-77 0 -121.5 46t-44.5 113t46.5 114.5t119.5 47.5q75 0 119.5 -46t44.5 -113t-46 -114.5t-118 -47.5zM204 410q37 0 61 26.5t24 77.5t-26 77t-65 26q-37 0 -60.5 -26t-23.5 -77t26 -77.5t64 -26.5z" />
    <glyph glyph-name="plusminus" unicode="&#xb1;" horiz-adv-x="538" 
d="M236 139v156h-154v61h154v156h66v-156h154v-61h-154v-156h-66zM82 0v63h373v-63h-373z" />
    <glyph glyph-name="two.sup" unicode="&#xb2;" 
d="M105 233q-22 0 -36 17.5t-14 43.5q0 41 34 81t91 77q53 36 79.5 62.5t26.5 72.5q0 37 -21 58.5t-59 21.5q-28 0 -49 -13t-31 -36q18 -6 28 -19.5t10 -31.5q0 -22 -13.5 -37.5t-38.5 -15.5q-24 0 -39.5 19t-15.5 47q0 26 11 50.5t32 43t52 30t69 11.5q78 0 119.5 -41
t41.5 -95q0 -27 -11.5 -48.5t-31 -38t-45 -31t-53.5 -28.5q-53 -29 -82 -51t-42 -53l1 -2q15 10 33.5 16t38.5 6q18 0 34 -5.5t30 -11.5t26.5 -11.5t24.5 -5.5q20 0 30 18t20 61l37 -4q-6 -85 -32 -121t-66 -36q-27 0 -46.5 11t-35.5 24t-30.5 24t-31.5 11q-4 0 -7.5 -0.5
t-5.5 -1.5q4 -3 6.5 -9.5t2.5 -15.5q0 -17 -11 -30t-30 -13z" />
    <glyph glyph-name="three.sup" unicode="&#xb3;" 
d="M215 233q-72 0 -115.5 30.5t-43.5 75.5q0 25 15 41.5t40 16.5q24 0 36.5 -15t12.5 -34q0 -14 -7.5 -25.5t-17.5 -18.5q9 -11 29 -18t45 -7q40 0 62 23t22 63q0 42 -22.5 66t-84.5 24h-18v49h16q58 0 79.5 24.5t21.5 65.5q0 37 -20 56t-57 19q-23 0 -41 -7.5t-28 -16.5
q13 -6 21 -18t8 -28q0 -19 -12 -34t-37 -15q-23 0 -38 16t-15 41q0 43 43.5 75.5t113.5 32.5q77 0 117.5 -35t40.5 -81q0 -40 -29 -71.5t-94 -43.5v-3q66 -5 98.5 -35.5t32.5 -76.5q0 -56 -46.5 -96t-127.5 -40z" />
    <glyph glyph-name="acute" unicode="&#xb4;" horiz-adv-x="238" 
d="M49 533l48 124q14 37 29 55.5t37 18.5q17 0 29.5 -13t12.5 -30q0 -14 -9 -30t-31 -44l-66 -81h-50z" />
    <glyph glyph-name="mu" unicode="&#xb5;" horiz-adv-x="537" 
d="M108 -167q-22 0 -36 16t-14 44q0 20 2 40t4 44t4 54.5t2 72.5v354h96v-241q0 -41 6 -66t20 -44q8 -11 23 -19t34 -8q35 0 68 37.5t33 104.5v236h96v-364q0 -17 6 -25t21 -8q13 0 23 10t17 26l35 -21q-18 -42 -43.5 -60.5t-59.5 -18.5q-36 0 -59.5 21.5t-23.5 75.5v21
q-29 -57 -57.5 -86t-72.5 -29q-40 0 -73 27.5t-49 83.5h-4v-9q0 -48 8.5 -81t18 -56t18 -40t8.5 -34q0 -28 -14.5 -43t-36.5 -15z" />
    <glyph glyph-name="paragraph" unicode="&#xb6;" horiz-adv-x="652" 
d="M312 -104v273q-56 0 -104.5 15t-83.5 43.5t-55 69.5t-20 94q0 99 72.5 160.5t211.5 61.5h286v-66h-96v-651h-69v651h-73v-651h-69z" />
    <glyph glyph-name="periodcentered" unicode="&#xb7;" horiz-adv-x="231" 
d="M116 254q-28 0 -47 19t-19 45t19 45t47 19q27 0 46 -19t19 -45t-19 -45t-46 -19z" />
    <glyph glyph-name="cedilla" unicode="&#xb8;" horiz-adv-x="282" 
d="M112 -243q-25 0 -53 8t-52 24l22 36q19 -12 36 -16.5t34 -4.5q28 0 41.5 9.5t13.5 27.5q0 19 -19.5 31t-50.5 12q-9 0 -17 -1t-17 -3l-16 22l98 103h57l-69 -70l1 -4q49 -4 75 -27t26 -54q0 -43 -31 -68t-79 -25z" />
    <glyph glyph-name="one.sup" unicode="&#xb9;" 
d="M90 245v53h104v310q-9 -4 -23 -6.5t-30 -2.5q-13 0 -28 2.5t-25 5.5v44q43 -2 81.5 13.5t55.5 43.5h57v-410h102v-53h-294z" />
    <glyph glyph-name="ordmasculine" unicode="&#xba;" horiz-adv-x="421" 
d="M211 312q-77 0 -122 47t-45 122t47 123t120 48q75 0 120.5 -46.5t45.5 -121.5t-47 -123.5t-119 -48.5zM214 355q41 0 63 32.5t22 95.5t-24.5 95t-67.5 32q-42 0 -64 -32t-22 -95t25 -95.5t68 -32.5z" />
    <glyph glyph-name="guillemotright" unicode="&#xbb;" horiz-adv-x="500" 
d="M281 418l152 -154q16 -16 21.5 -24.5t5.5 -15.5t-5.5 -15.5t-21.5 -24.5l-152 -154l-35 24l117 168l-117 172zM81 418l152 -154q16 -16 21.5 -24.5t5.5 -15.5t-5.5 -15.5t-21.5 -24.5l-152 -154l-35 24l117 168l-117 172z" />
    <glyph glyph-name="onequarter" unicode="&#xbc;" horiz-adv-x="1085" 
d="M90 170v53h104v310q-9 -4 -23 -6.5t-30 -2.5q-13 0 -28 2.5t-25 5.5v44q43 -2 81.5 13.5t55.5 43.5h57v-410h102v-53h-294zM288 -82l249 361l247 361h69l-249 -361l-247 -361h-69zM818 -70v52h75v79h-210v55l180 280h112v-283h73v-52h-73v-79h62v-52h-219zM745 113h149
v222h-11l-138 -220v-2z" />
    <glyph glyph-name="onehalf" unicode="&#xbd;" horiz-adv-x="1110" 
d="M90 170v53h104v310q-9 -4 -23 -6.5t-30 -2.5q-13 0 -28 2.5t-25 5.5v44q43 -2 81.5 13.5t55.5 43.5h57v-410h102v-53h-294zM288 -82l249 361l247 361h69l-249 -361l-247 -361h-69zM770 -82q-22 0 -36 17.5t-14 43.5q0 41 34 81t91 77q53 36 79.5 62.5t26.5 72.5
q0 37 -21 58.5t-59 21.5q-28 0 -49 -13t-31 -36q18 -6 28 -19.5t10 -31.5q0 -22 -13.5 -37.5t-38.5 -15.5q-24 0 -39.5 19t-15.5 47q0 26 11 50.5t32 43t52 30t69 11.5q78 0 119.5 -41t41.5 -95q0 -27 -11.5 -48.5t-31 -38t-45 -31t-53.5 -28.5q-53 -29 -82 -51t-42 -53
l1 -2q15 10 33.5 16t38.5 6q18 0 34 -5.5t30 -11.5t26.5 -11.5t24.5 -5.5q20 0 30 18t20 61l37 -4q-6 -85 -32 -121t-66 -36q-27 0 -46.5 11t-35.5 24t-30.5 24t-31.5 11q-4 0 -7.5 -0.5t-5.5 -1.5q4 -3 6.5 -9.5t2.5 -15.5q0 -17 -11 -30t-30 -13z" />
    <glyph glyph-name="threequarters" unicode="&#xbe;" horiz-adv-x="1055" 
d="M215 158q-72 0 -115.5 30.5t-43.5 75.5q0 25 15 41.5t40 16.5q24 0 36.5 -15t12.5 -34q0 -14 -7.5 -25.5t-17.5 -18.5q9 -11 29 -18t45 -7q40 0 62 23t22 63q0 42 -22.5 66t-84.5 24h-18v49h16q58 0 79.5 24.5t21.5 65.5q0 37 -20 56t-57 19q-23 0 -41 -7.5t-28 -16.5
q13 -6 21 -18t8 -28q0 -19 -12 -34t-37 -15q-23 0 -38 16t-15 41q0 43 43.5 75.5t113.5 32.5q77 0 117.5 -35t40.5 -81q0 -40 -29 -71.5t-94 -43.5v-3q66 -5 98.5 -35.5t32.5 -76.5q0 -56 -46.5 -96t-127.5 -40zM258 -82l249 361l247 361h69l-249 -361l-247 -361h-69z
M788 -70v52h75v79h-210v55l180 280h112v-283h73v-52h-73v-79h62v-52h-219zM715 113h149v222h-11l-138 -220v-2z" />
    <glyph glyph-name="questiondown" unicode="&#xbf;" horiz-adv-x="453" 
d="M245 684q28 0 47 -19t19 -45t-19 -45t-47 -19q-27 0 -46 19t-19 45t19 45t46 19zM280 474q-2 -43 -17 -89t-46 -84t-61.5 -71.5t-30.5 -87.5q0 -46 28 -74.5t76 -28.5q38 0 68 15.5t40 42.5q-17 8 -29.5 26.5t-12.5 37.5q0 27 17.5 48.5t48.5 21.5t52.5 -22.5t21.5 -55.5
q0 -32 -15 -62.5t-42 -54t-64.5 -38t-81.5 -14.5q-54 0 -93.5 15t-65.5 39.5t-38.5 55.5t-12.5 63q0 50 28 91t94 92q36 28 50.5 61.5t21.5 72.5h64z" />
    <glyph glyph-name="Agrave" unicode="&#xc0;" horiz-adv-x="682" 
d="M-13 0v66h71l229 596h101l215 -596h91v-66h-308v66h104l-57 165h-237l-61 -165h83v-66h-231zM316 558l-99 -269h196l-93 269h-4zM321 741l-66 81q-22 28 -31 44t-9 30q0 17 12.5 30t29.5 13q22 0 37 -18.5t29 -55.5l48 -124h-50z" />
    <glyph glyph-name="Aacute" unicode="&#xc1;" horiz-adv-x="682" 
d="M-13 0v66h71l229 596h101l215 -596h91v-66h-308v66h104l-57 165h-237l-61 -165h83v-66h-231zM316 558l-99 -269h196l-93 269h-4zM309 741l48 124q14 37 29 55.5t37 18.5q17 0 29.5 -13t12.5 -30q0 -14 -9 -30t-31 -44l-66 -81h-50z" />
    <glyph glyph-name="Acircumflex" unicode="&#xc2;" horiz-adv-x="682" 
d="M-13 0v66h71l229 596h101l215 -596h91v-66h-308v66h104l-57 165h-237l-61 -165h83v-66h-231zM316 558l-99 -269h196l-93 269h-4zM208 742l111 183h41l111 -183h-49l-83 93l-82 -93h-49z" />
    <glyph glyph-name="Atilde" unicode="&#xc3;" horiz-adv-x="682" 
d="M-13 0v66h71l229 596h101l215 -596h91v-66h-308v66h104l-57 165h-237l-61 -165h83v-66h-231zM316 558l-99 -269h196l-93 269h-4zM188 745q9 68 31 96t67 28q19 0 37.5 -7.5t34 -16.5t29 -16.5t23.5 -7.5q14 0 22 14t13 43h48q-9 -68 -31 -96t-67 -28q-19 0 -37.5 7.5
t-34 16.5t-29 16.5t-23.5 7.5q-14 0 -22 -14t-13 -43h-48z" />
    <glyph glyph-name="Adieresis" unicode="&#xc4;" horiz-adv-x="682" 
d="M-13 0v66h71l229 596h101l215 -596h91v-66h-308v66h104l-57 165h-237l-61 -165h83v-66h-231zM316 558l-99 -269h196l-93 269h-4zM249 764q-25 0 -42 18t-17 43t17 43.5t42 18.5t42 -18.5t17 -43.5t-17 -43t-42 -18zM431 764q-25 0 -42 18t-17 43t17 43.5t42 18.5
t42 -18.5t17 -43.5t-17 -43t-42 -18z" />
    <glyph glyph-name="Aring" unicode="&#xc5;" horiz-adv-x="682" 
d="M-13 0v66h71l219 571q-22 13 -33 36t-11 50q0 41 26.5 71.5t78.5 30.5q51 0 78 -30.5t27 -71.5q0 -27 -12 -50.5t-34 -36.5l206 -570h91v-66h-308v66h104l-57 165h-237l-61 -165h83v-66h-231zM338 656q27 0 41.5 19.5t14.5 47.5t-14.5 47.5t-41.5 19.5q-26 0 -41 -19.5
t-15 -47.5t15 -47.5t41 -19.5zM316 558l-99 -269h196l-93 269h-4z" />
    <glyph glyph-name="AE" unicode="&#xc6;" horiz-adv-x="989" 
d="M-33 0v66h81l318 526h-99v66h656v-214h-48q-13 44 -23.5 73t-23 45.5t-30 23t-46.5 6.5h-197v-226h69q28 0 44.5 3t27 13.5t17 30.5t13.5 54h53v-262h-53q-6 35 -12.5 56t-17 32t-27.5 14t-45 3h-69v-244h193q33 0 53 7t34 25.5t24.5 51.5t24.5 84h48v-234h-591v66h111
v175h-220l-104 -175h89v-66h-250zM267 299h185v294h-9z" />
    <glyph glyph-name="Ccedilla" unicode="&#xc7;" horiz-adv-x="676" 
d="M340 -243q-25 0 -53 8t-52 24l22 36q19 -12 36 -16.5t34 -4.5q28 0 41.5 9.5t13.5 27.5q0 19 -19.5 31t-50.5 12q-9 0 -17 -1t-17 -3l-16 22l78 82q-68 2 -124 30t-95.5 74.5t-61 109t-21.5 133.5q0 69 25 132t67 109.5t99 74t120 27.5q59 0 106 -21.5t77 -55.5l18 74h66
v-258h-60q-34 89 -84.5 142t-116.5 53q-41 0 -77.5 -15t-63 -47.5t-41.5 -84.5t-15 -124q0 -134 54.5 -208.5t154.5 -74.5q44 0 79.5 16.5t61 45t41 66.5t21.5 81h71q-11 -118 -77.5 -189.5t-163.5 -85.5l-52 -53l1 -4q49 -4 75 -27t26 -54q0 -43 -31 -68t-79 -25z" />
    <glyph glyph-name="Egrave" unicode="&#xc8;" horiz-adv-x="678" 
d="M30 0v66h111v526h-111v66h582v-214h-48q-13 44 -23.5 73t-23 45.5t-30 23t-46.5 6.5h-197v-226h69q28 0 44.5 3t27 13.5t17 30.5t13.5 54h53v-262h-53q-6 35 -12.5 56t-17 32t-27.5 14t-45 3h-69v-244h193q33 0 53 7t34 25.5t24.5 51.5t24.5 84h48v-234h-591zM346 741
l-66 81q-22 28 -31 44t-9 30q0 17 12.5 30t29.5 13q22 0 37 -18.5t29 -55.5l48 -124h-50z" />
    <glyph glyph-name="Eacute" unicode="&#xc9;" horiz-adv-x="678" 
d="M30 0v66h111v526h-111v66h582v-214h-48q-13 44 -23.5 73t-23 45.5t-30 23t-46.5 6.5h-197v-226h69q28 0 44.5 3t27 13.5t17 30.5t13.5 54h53v-262h-53q-6 35 -12.5 56t-17 32t-27.5 14t-45 3h-69v-244h193q33 0 53 7t34 25.5t24.5 51.5t24.5 84h48v-234h-591zM334 741
l48 124q14 37 29 55.5t37 18.5q17 0 29.5 -13t12.5 -30q0 -14 -9 -30t-31 -44l-66 -81h-50z" />
    <glyph glyph-name="Ecircumflex" unicode="&#xca;" horiz-adv-x="678" 
d="M30 0v66h111v526h-111v66h582v-214h-48q-13 44 -23.5 73t-23 45.5t-30 23t-46.5 6.5h-197v-226h69q28 0 44.5 3t27 13.5t17 30.5t13.5 54h53v-262h-53q-6 35 -12.5 56t-17 32t-27.5 14t-45 3h-69v-244h193q33 0 53 7t34 25.5t24.5 51.5t24.5 84h48v-234h-591zM233 742
l111 183h41l111 -183h-49l-83 93l-82 -93h-49z" />
    <glyph glyph-name="Edieresis" unicode="&#xcb;" horiz-adv-x="678" 
d="M30 0v66h111v526h-111v66h582v-214h-48q-13 44 -23.5 73t-23 45.5t-30 23t-46.5 6.5h-197v-226h69q28 0 44.5 3t27 13.5t17 30.5t13.5 54h53v-262h-53q-6 35 -12.5 56t-17 32t-27.5 14t-45 3h-69v-244h193q33 0 53 7t34 25.5t24.5 51.5t24.5 84h48v-234h-591zM274 764
q-25 0 -42 18t-17 43t17 43.5t42 18.5t42 -18.5t17 -43.5t-17 -43t-42 -18zM456 764q-25 0 -42 18t-17 43t17 43.5t42 18.5t42 -18.5t17 -43.5t-17 -43t-42 -18z" />
    <glyph glyph-name="Igrave" unicode="&#xcc;" horiz-adv-x="405" 
d="M40 0v66h111v526h-111v66h325v-66h-111v-526h111v-66h-325zM183 741l-66 81q-22 28 -31 44t-9 30q0 17 12.5 30t29.5 13q22 0 37 -18.5t29 -55.5l48 -124h-50z" />
    <glyph glyph-name="Iacute" unicode="&#xcd;" horiz-adv-x="405" 
d="M40 0v66h111v526h-111v66h325v-66h-111v-526h111v-66h-325zM171 741l48 124q14 37 29 55.5t37 18.5q17 0 29.5 -13t12.5 -30q0 -14 -9 -30t-31 -44l-66 -81h-50z" />
    <glyph glyph-name="Icircumflex" unicode="&#xce;" horiz-adv-x="405" 
d="M40 0v66h111v526h-111v66h325v-66h-111v-526h111v-66h-325zM70 742l111 183h41l111 -183h-49l-83 93l-82 -93h-49z" />
    <glyph glyph-name="Idieresis" unicode="&#xcf;" horiz-adv-x="405" 
d="M40 0v66h111v526h-111v66h325v-66h-111v-526h111v-66h-325zM111 764q-25 0 -42 18t-17 43t17 43.5t42 18.5t42 -18.5t17 -43.5t-17 -43t-42 -18zM293 764q-25 0 -42 18t-17 43t17 43.5t42 18.5t42 -18.5t17 -43.5t-17 -43t-42 -18z" />
    <glyph glyph-name="Eth" unicode="&#xd0;" horiz-adv-x="722" 
d="M30 0v66h111v244h-111v66h111v216h-111v66h282q92 0 162 -23.5t116.5 -65.5t70 -100.5t23.5 -129.5q0 -68 -21.5 -129.5t-65.5 -108t-113 -74t-163 -27.5h-291zM244 66h78q125 0 183.5 62t58.5 211q0 131 -60 192t-192 61h-68v-216h136v-66h-136v-244z" />
    <glyph glyph-name="Ntilde" unicode="&#xd1;" horiz-adv-x="792" 
d="M591 -16l-372 541h-9v-459h104v-66h-279v66h101v526h-101v66h218l331 -480h9v414h-104v66h279v-66h-101v-608h-76zM243 745q9 68 31 96t67 28q19 0 37.5 -7.5t34 -16.5t29 -16.5t23.5 -7.5q14 0 22 14t13 43h48q-9 -68 -31 -96t-67 -28q-19 0 -37.5 7.5t-34 16.5
t-29 16.5t-23.5 7.5q-14 0 -22 -14t-13 -43h-48z" />
    <glyph glyph-name="Ograve" unicode="&#xd2;" horiz-adv-x="720" 
d="M360 -16q-67 0 -126 26t-102.5 71.5t-68.5 109t-25 138.5q0 73 26 136.5t70 109.5t102.5 72.5t123.5 26.5q67 0 126 -25.5t102.5 -71t68.5 -109.5t25 -139q0 -74 -26 -137t-70 -109t-102.5 -72.5t-123.5 -26.5zM360 50q98 0 150 74t52 205t-52 205t-150 74t-150 -74.5
t-52 -204.5t52 -204.5t150 -74.5zM341 741l-66 81q-22 28 -31 44t-9 30q0 17 12.5 30t29.5 13q22 0 37 -18.5t29 -55.5l48 -124h-50z" />
    <glyph glyph-name="Oacute" unicode="&#xd3;" horiz-adv-x="720" 
d="M360 -16q-67 0 -126 26t-102.5 71.5t-68.5 109t-25 138.5q0 73 26 136.5t70 109.5t102.5 72.5t123.5 26.5q67 0 126 -25.5t102.5 -71t68.5 -109.5t25 -139q0 -74 -26 -137t-70 -109t-102.5 -72.5t-123.5 -26.5zM360 50q98 0 150 74t52 205t-52 205t-150 74t-150 -74.5
t-52 -204.5t52 -204.5t150 -74.5zM329 741l48 124q14 37 29 55.5t37 18.5q17 0 29.5 -13t12.5 -30q0 -14 -9 -30t-31 -44l-66 -81h-50z" />
    <glyph glyph-name="Ocircumflex" unicode="&#xd4;" horiz-adv-x="720" 
d="M360 -16q-67 0 -126 26t-102.5 71.5t-68.5 109t-25 138.5q0 73 26 136.5t70 109.5t102.5 72.5t123.5 26.5q67 0 126 -25.5t102.5 -71t68.5 -109.5t25 -139q0 -74 -26 -137t-70 -109t-102.5 -72.5t-123.5 -26.5zM360 50q98 0 150 74t52 205t-52 205t-150 74t-150 -74.5
t-52 -204.5t52 -204.5t150 -74.5zM228 742l111 183h41l111 -183h-49l-83 93l-82 -93h-49z" />
    <glyph glyph-name="Otilde" unicode="&#xd5;" horiz-adv-x="720" 
d="M360 -16q-67 0 -126 26t-102.5 71.5t-68.5 109t-25 138.5q0 73 26 136.5t70 109.5t102.5 72.5t123.5 26.5q67 0 126 -25.5t102.5 -71t68.5 -109.5t25 -139q0 -74 -26 -137t-70 -109t-102.5 -72.5t-123.5 -26.5zM360 50q98 0 150 74t52 205t-52 205t-150 74t-150 -74.5
t-52 -204.5t52 -204.5t150 -74.5zM208 745q9 68 31 96t67 28q19 0 37.5 -7.5t34 -16.5t29 -16.5t23.5 -7.5q14 0 22 14t13 43h48q-9 -68 -31 -96t-67 -28q-19 0 -37.5 7.5t-34 16.5t-29 16.5t-23.5 7.5q-14 0 -22 -14t-13 -43h-48z" />
    <glyph glyph-name="Odieresis" unicode="&#xd6;" horiz-adv-x="720" 
d="M360 -16q-67 0 -126 26t-102.5 71.5t-68.5 109t-25 138.5q0 73 26 136.5t70 109.5t102.5 72.5t123.5 26.5q67 0 126 -25.5t102.5 -71t68.5 -109.5t25 -139q0 -74 -26 -137t-70 -109t-102.5 -72.5t-123.5 -26.5zM360 50q98 0 150 74t52 205t-52 205t-150 74t-150 -74.5
t-52 -204.5t52 -204.5t150 -74.5zM269 764q-25 0 -42 18t-17 43t17 43.5t42 18.5t42 -18.5t17 -43.5t-17 -43t-42 -18zM451 764q-25 0 -42 18t-17 43t17 43.5t42 18.5t42 -18.5t17 -43.5t-17 -43t-42 -18z" />
    <glyph glyph-name="multiply" unicode="&#xd7;" horiz-adv-x="520" 
d="M122 128l-45 45l140 144l-140 144l45 45l138 -144l138 144l45 -45l-140 -144l140 -144l-45 -45l-138 144z" />
    <glyph glyph-name="Oslash" unicode="&#xd8;" horiz-adv-x="720" 
d="M48 -34l85 113q-44 46 -69.5 110t-25.5 140q0 73 26 136.5t70 109.5t102.5 72.5t123.5 26.5q49 0 95 -14.5t84 -40.5l52 73h81l-86 -113q44 -46 70 -110t26 -140q0 -74 -26 -137t-70 -109t-102.5 -72.5t-123.5 -26.5q-50 0 -95.5 14t-83.5 41l-52 -73h-81zM193 152
l296 406q-24 24 -56.5 37t-72.5 13q-98 0 -150 -74.5t-52 -204.5q0 -53 9 -98t26 -79zM360 50q98 0 150 74t52 205q0 53 -9 97.5t-26 78.5l-297 -405q25 -25 57.5 -37.5t72.5 -12.5z" />
    <glyph glyph-name="Ugrave" unicode="&#xd9;" horiz-adv-x="751" 
d="M374 -16q-125 0 -191.5 60.5t-66.5 154.5v393h-96v66h297v-66h-98v-360q0 -95 47.5 -135.5t138.5 -40.5q40 0 68.5 12.5t50.5 34.5q25 25 33 61t8 92v336h-103v66h271v-66h-94v-393q0 -42 -17.5 -81t-50.5 -68.5t-83 -47.5t-114 -18zM368 741l-66 81q-22 28 -31 44t-9 30
q0 17 12.5 30t29.5 13q22 0 37 -18.5t29 -55.5l48 -124h-50z" />
    <glyph glyph-name="Uacute" unicode="&#xda;" horiz-adv-x="751" 
d="M374 -16q-125 0 -191.5 60.5t-66.5 154.5v393h-96v66h297v-66h-98v-360q0 -95 47.5 -135.5t138.5 -40.5q40 0 68.5 12.5t50.5 34.5q25 25 33 61t8 92v336h-103v66h271v-66h-94v-393q0 -42 -17.5 -81t-50.5 -68.5t-83 -47.5t-114 -18zM356 741l48 124q14 37 29 55.5
t37 18.5q17 0 29.5 -13t12.5 -30q0 -14 -9 -30t-31 -44l-66 -81h-50z" />
    <glyph glyph-name="Ucircumflex" unicode="&#xdb;" horiz-adv-x="751" 
d="M374 -16q-125 0 -191.5 60.5t-66.5 154.5v393h-96v66h297v-66h-98v-360q0 -95 47.5 -135.5t138.5 -40.5q40 0 68.5 12.5t50.5 34.5q25 25 33 61t8 92v336h-103v66h271v-66h-94v-393q0 -42 -17.5 -81t-50.5 -68.5t-83 -47.5t-114 -18zM255 742l111 183h41l111 -183h-49
l-83 93l-82 -93h-49z" />
    <glyph glyph-name="Udieresis" unicode="&#xdc;" horiz-adv-x="751" 
d="M374 -16q-125 0 -191.5 60.5t-66.5 154.5v393h-96v66h297v-66h-98v-360q0 -95 47.5 -135.5t138.5 -40.5q40 0 68.5 12.5t50.5 34.5q25 25 33 61t8 92v336h-103v66h271v-66h-94v-393q0 -42 -17.5 -81t-50.5 -68.5t-83 -47.5t-114 -18zM296 764q-25 0 -42 18t-17 43
t17 43.5t42 18.5t42 -18.5t17 -43.5t-17 -43t-42 -18zM478 764q-25 0 -42 18t-17 43t17 43.5t42 18.5t42 -18.5t17 -43.5t-17 -43t-42 -18z" />
    <glyph glyph-name="Yacute" unicode="&#xdd;" horiz-adv-x="647" 
d="M174 0v66h99v208l-181 318h-82v66h289v-66h-90l140 -258l149 258h-84v66h232v-66h-77l-193 -317v-209h101v-66h-303zM314 741l48 124q14 37 29 55.5t37 18.5q17 0 29.5 -13t12.5 -30q0 -14 -9 -30t-31 -44l-66 -81h-50z" />
    <glyph glyph-name="Thorn" unicode="&#xde;" horiz-adv-x="629" 
d="M30 0v66h111v526h-111v66h319v-66h-105v-65h74q76 0 129.5 -14.5t86 -39t47 -57.5t14.5 -70q0 -34 -12.5 -68t-43 -61.5t-82.5 -44.5t-130 -17h-83v-89h105v-66h-319zM244 218h76q49 0 80 9t48 26t23 41t6 53q0 49 -32.5 83t-125.5 34h-75v-246z" />
    <glyph glyph-name="germandbls" unicode="&#xdf;" horiz-adv-x="566" 
d="M399 -9q-57 0 -99.5 27t-42.5 74q0 22 14 39.5t40 17.5q23 0 36 -16t13 -36q0 -11 -5 -22t-14 -18q11 -9 26.5 -13t36.5 -4q31 0 50.5 19t19.5 47q0 18 -17.5 42.5t-71.5 57.5q-58 35 -81.5 63t-23.5 71q0 22 13 45t41 51q34 34 47 56.5t13 52.5q0 40 -24 67t-67 27
q-54 0 -78.5 -34t-24.5 -102v-503h-167v66h73v326h-90v66h90v7q0 64 17.5 108t46.5 70.5t65.5 38t73.5 11.5q76 0 126.5 -41.5t50.5 -101.5q0 -40 -20.5 -68t-60.5 -58q-33 -24 -41 -37t-8 -26q0 -18 16 -31t71 -47q46 -28 77 -61t31 -81q0 -29 -10.5 -56.5t-30 -48t-48 -33
t-63.5 -12.5z" />
    <glyph glyph-name="agrave" unicode="&#xe0;" horiz-adv-x="491" 
d="M177 -5q-63 0 -98 33.5t-35 84.5q0 24 8 45t26 39q28 28 68 40t102 21q44 7 57 11t13 17v47q0 44 -22 62.5t-69 18.5q-22 0 -40.5 -4.5t-36.5 -14.5q13 -6 21 -19.5t8 -29.5q0 -22 -15 -39t-43 -17q-29 0 -45 18t-16 40q0 27 15 49t40.5 37t60 23t72.5 8q78 0 121 -33.5
t43 -105.5v-232q0 -17 6.5 -25t24.5 -8q10 0 19.5 10t16.5 26l35 -21q-18 -42 -43.5 -60.5t-59.5 -18.5q-31 0 -56.5 19t-25.5 61h-5q-19 -37 -61 -59.5t-86 -22.5zM220 59q34 0 66 26t32 66v79q-7 -3 -16.5 -5t-28.5 -5q-72 -11 -99.5 -26.5t-27.5 -60.5q0 -33 18 -53.5
t56 -20.5zM231 533l-66 81q-22 28 -31 44t-9 30q0 17 12.5 30t29.5 13q22 0 37 -18.5t29 -55.5l48 -124h-50z" />
    <glyph glyph-name="aacute" unicode="&#xe1;" horiz-adv-x="491" 
d="M177 -5q-63 0 -98 33.5t-35 84.5q0 24 8 45t26 39q28 28 68 40t102 21q44 7 57 11t13 17v47q0 44 -22 62.5t-69 18.5q-22 0 -40.5 -4.5t-36.5 -14.5q13 -6 21 -19.5t8 -29.5q0 -22 -15 -39t-43 -17q-29 0 -45 18t-16 40q0 27 15 49t40.5 37t60 23t72.5 8q78 0 121 -33.5
t43 -105.5v-232q0 -17 6.5 -25t24.5 -8q10 0 19.5 10t16.5 26l35 -21q-18 -42 -43.5 -60.5t-59.5 -18.5q-31 0 -56.5 19t-25.5 61h-5q-19 -37 -61 -59.5t-86 -22.5zM220 59q34 0 66 26t32 66v79q-7 -3 -16.5 -5t-28.5 -5q-72 -11 -99.5 -26.5t-27.5 -60.5q0 -33 18 -53.5
t56 -20.5zM219 533l48 124q14 37 29 55.5t37 18.5q17 0 29.5 -13t12.5 -30q0 -14 -9 -30t-31 -44l-66 -81h-50z" />
    <glyph glyph-name="acircumflex" unicode="&#xe2;" horiz-adv-x="491" 
d="M177 -5q-63 0 -98 33.5t-35 84.5q0 24 8 45t26 39q28 28 68 40t102 21q44 7 57 11t13 17v47q0 44 -22 62.5t-69 18.5q-22 0 -40.5 -4.5t-36.5 -14.5q13 -6 21 -19.5t8 -29.5q0 -22 -15 -39t-43 -17q-29 0 -45 18t-16 40q0 27 15 49t40.5 37t60 23t72.5 8q78 0 121 -33.5
t43 -105.5v-232q0 -17 6.5 -25t24.5 -8q10 0 19.5 10t16.5 26l35 -21q-18 -42 -43.5 -60.5t-59.5 -18.5q-31 0 -56.5 19t-25.5 61h-5q-19 -37 -61 -59.5t-86 -22.5zM220 59q34 0 66 26t32 66v79q-7 -3 -16.5 -5t-28.5 -5q-72 -11 -99.5 -26.5t-27.5 -60.5q0 -33 18 -53.5
t56 -20.5zM118 534l111 183h41l111 -183h-49l-83 93l-82 -93h-49z" />
    <glyph glyph-name="atilde" unicode="&#xe3;" horiz-adv-x="491" 
d="M177 -5q-63 0 -98 33.5t-35 84.5q0 24 8 45t26 39q28 28 68 40t102 21q44 7 57 11t13 17v47q0 44 -22 62.5t-69 18.5q-22 0 -40.5 -4.5t-36.5 -14.5q13 -6 21 -19.5t8 -29.5q0 -22 -15 -39t-43 -17q-29 0 -45 18t-16 40q0 27 15 49t40.5 37t60 23t72.5 8q78 0 121 -33.5
t43 -105.5v-232q0 -17 6.5 -25t24.5 -8q10 0 19.5 10t16.5 26l35 -21q-18 -42 -43.5 -60.5t-59.5 -18.5q-31 0 -56.5 19t-25.5 61h-5q-19 -37 -61 -59.5t-86 -22.5zM220 59q34 0 66 26t32 66v79q-7 -3 -16.5 -5t-28.5 -5q-72 -11 -99.5 -26.5t-27.5 -60.5q0 -33 18 -53.5
t56 -20.5zM98 537q9 68 31 96t67 28q19 0 37.5 -7.5t34 -16.5t29 -16.5t23.5 -7.5q14 0 22 14t13 43h48q-9 -68 -31 -96t-67 -28q-19 0 -37.5 7.5t-34 16.5t-29 16.5t-23.5 7.5q-14 0 -22 -14t-13 -43h-48z" />
    <glyph glyph-name="adieresis" unicode="&#xe4;" horiz-adv-x="491" 
d="M177 -5q-63 0 -98 33.5t-35 84.5q0 24 8 45t26 39q28 28 68 40t102 21q44 7 57 11t13 17v47q0 44 -22 62.5t-69 18.5q-22 0 -40.5 -4.5t-36.5 -14.5q13 -6 21 -19.5t8 -29.5q0 -22 -15 -39t-43 -17q-29 0 -45 18t-16 40q0 27 15 49t40.5 37t60 23t72.5 8q78 0 121 -33.5
t43 -105.5v-232q0 -17 6.5 -25t24.5 -8q10 0 19.5 10t16.5 26l35 -21q-18 -42 -43.5 -60.5t-59.5 -18.5q-31 0 -56.5 19t-25.5 61h-5q-19 -37 -61 -59.5t-86 -22.5zM220 59q34 0 66 26t32 66v79q-7 -3 -16.5 -5t-28.5 -5q-72 -11 -99.5 -26.5t-27.5 -60.5q0 -33 18 -53.5
t56 -20.5zM159 556q-25 0 -42 18t-17 43t17 43.5t42 18.5t42 -18.5t17 -43.5t-17 -43t-42 -18zM341 556q-25 0 -42 18t-17 43t17 43.5t42 18.5t42 -18.5t17 -43.5t-17 -43t-42 -18z" />
    <glyph glyph-name="aring" unicode="&#xe5;" horiz-adv-x="491" 
d="M177 -5q-63 0 -98 33.5t-35 84.5q0 24 8 45t26 39q28 28 68 40t102 21q44 7 57 11t13 17v47q0 44 -22 62.5t-69 18.5q-22 0 -40.5 -4.5t-36.5 -14.5q13 -6 21 -19.5t8 -29.5q0 -22 -15 -39t-43 -17q-29 0 -45 18t-16 40q0 27 15 49t40.5 37t60 23t72.5 8q78 0 121 -33.5
t43 -105.5v-232q0 -17 6.5 -25t24.5 -8q10 0 19.5 10t16.5 26l35 -21q-18 -42 -43.5 -60.5t-59.5 -18.5q-31 0 -56.5 19t-25.5 61h-5q-19 -37 -61 -59.5t-86 -22.5zM220 59q34 0 66 26t32 66v79q-7 -3 -16.5 -5t-28.5 -5q-72 -11 -99.5 -26.5t-27.5 -60.5q0 -33 18 -53.5
t56 -20.5zM250 527q-52 0 -78.5 30.5t-26.5 71.5t26.5 71.5t78.5 30.5q51 0 78 -30.5t27 -71.5t-27 -71.5t-78 -30.5zM250 562q27 0 41.5 19.5t14.5 47.5t-14.5 47.5t-41.5 19.5q-26 0 -41 -19.5t-15 -47.5t15 -47.5t41 -19.5z" />
    <glyph glyph-name="ae" unicode="&#xe6;" horiz-adv-x="756" 
d="M177 -5q-63 0 -98 33.5t-35 84.5q0 24 8 45t26 39q28 28 68 40t102 21q44 7 57 11t13 17v47q0 44 -22 62.5t-69 18.5q-22 0 -40.5 -4.5t-36.5 -14.5q13 -6 21 -19.5t8 -29.5q0 -22 -15 -39t-43 -17q-29 0 -45 18t-16 40q0 27 15 49t40.5 37t60 23t72.5 8q52 0 86.5 -15.5
t50.5 -48.5q25 31 61 48t83 17q50 0 87.5 -21t61 -55t34.5 -78t10 -89h-310q1 -84 35.5 -126.5t100.5 -42.5q41 0 72 19.5t52 65.5h48q-19 -73 -70.5 -110.5t-126.5 -37.5q-67 0 -111.5 28.5t-66.5 77.5q-31 -55 -79.5 -78.5t-88.5 -23.5zM413 270h213q-5 63 -29 103t-75 40
q-46 0 -74.5 -33t-34.5 -110zM220 59q34 0 66 26t32 66v79q-7 -3 -16.5 -5t-28.5 -5q-72 -11 -99.5 -26.5t-27.5 -60.5q0 -33 18 -53.5t56 -20.5z" />
    <glyph glyph-name="ccedilla" unicode="&#xe7;" horiz-adv-x="481" 
d="M242 -243q-25 0 -53 8t-52 24l22 36q19 -12 36 -16.5t34 -4.5q28 0 41.5 9.5t13.5 27.5q0 19 -19.5 31t-50.5 12q-9 0 -17 -1t-17 -3l-16 22l85 89q-50 1 -90 19.5t-67 49t-41.5 72.5t-14.5 90q0 53 18 98t49.5 77.5t75.5 50.5t94 18q37 0 69.5 -12t56 -30t37 -41.5
t13.5 -45.5q0 -35 -17 -58t-48 -23q-30 0 -46 18t-16 43q0 20 13 37.5t26 22.5q-10 16 -33 28t-59 12q-52 0 -90.5 -47t-38.5 -136q0 -85 36.5 -132.5t105.5 -47.5q42 0 75 24.5t50 73.5h48q-14 -62 -52 -102t-92 -53l-61 -62l1 -4q49 -4 75 -27t26 -54q0 -43 -31 -68
t-79 -25z" />
    <glyph glyph-name="egrave" unicode="&#xe8;" horiz-adv-x="490" 
d="M255 -9q-52 0 -93 18t-69 49t-42.5 74t-14.5 92q0 51 17 95.5t47 77t71 51t90 18.5q51 0 88.5 -21t61.5 -55t35 -78t10 -89h-316q2 -84 38.5 -126.5t101.5 -42.5q42 0 73.5 19.5t52.5 65.5h48q-19 -73 -71.5 -110.5t-127.5 -37.5zM254 413q-47 0 -77 -33t-36 -110h219
q-5 63 -29.5 103t-76.5 40zM236 533l-66 81q-22 28 -31 44t-9 30q0 17 12.5 30t29.5 13q22 0 37 -18.5t29 -55.5l48 -124h-50z" />
    <glyph glyph-name="eacute" unicode="&#xe9;" horiz-adv-x="490" 
d="M255 -9q-52 0 -93 18t-69 49t-42.5 74t-14.5 92q0 51 17 95.5t47 77t71 51t90 18.5q51 0 88.5 -21t61.5 -55t35 -78t10 -89h-316q2 -84 38.5 -126.5t101.5 -42.5q42 0 73.5 19.5t52.5 65.5h48q-19 -73 -71.5 -110.5t-127.5 -37.5zM254 413q-47 0 -77 -33t-36 -110h219
q-5 63 -29.5 103t-76.5 40zM224 533l48 124q14 37 29 55.5t37 18.5q17 0 29.5 -13t12.5 -30q0 -14 -9 -30t-31 -44l-66 -81h-50z" />
    <glyph glyph-name="ecircumflex" unicode="&#xea;" horiz-adv-x="490" 
d="M255 -9q-52 0 -93 18t-69 49t-42.5 74t-14.5 92q0 51 17 95.5t47 77t71 51t90 18.5q51 0 88.5 -21t61.5 -55t35 -78t10 -89h-316q2 -84 38.5 -126.5t101.5 -42.5q42 0 73.5 19.5t52.5 65.5h48q-19 -73 -71.5 -110.5t-127.5 -37.5zM254 413q-47 0 -77 -33t-36 -110h219
q-5 63 -29.5 103t-76.5 40zM123 534l111 183h41l111 -183h-49l-83 93l-82 -93h-49z" />
    <glyph glyph-name="edieresis" unicode="&#xeb;" horiz-adv-x="490" 
d="M255 -9q-52 0 -93 18t-69 49t-42.5 74t-14.5 92q0 51 17 95.5t47 77t71 51t90 18.5q51 0 88.5 -21t61.5 -55t35 -78t10 -89h-316q2 -84 38.5 -126.5t101.5 -42.5q42 0 73.5 19.5t52.5 65.5h48q-19 -73 -71.5 -110.5t-127.5 -37.5zM254 413q-47 0 -77 -33t-36 -110h219
q-5 63 -29.5 103t-76.5 40zM164 556q-25 0 -42 18t-17 43t17 43.5t42 18.5t42 -18.5t17 -43.5t-17 -43t-42 -18zM346 556q-25 0 -42 18t-17 43t17 43.5t42 18.5t42 -18.5t17 -43.5t-17 -43t-42 -18z" />
    <glyph glyph-name="igrave" unicode="&#xec;" horiz-adv-x="316" 
d="M40 0v66h83v326h-83v66h177v-392h83v-66h-260zM136 533l-66 81q-22 28 -31 44t-9 30q0 17 12.5 30t29.5 13q22 0 37 -18.5t29 -55.5l48 -124h-50z" />
    <glyph glyph-name="iacute" unicode="&#xed;" horiz-adv-x="316" 
d="M40 0v66h83v326h-83v66h177v-392h83v-66h-260zM124 533l48 124q14 37 29 55.5t37 18.5q17 0 29.5 -13t12.5 -30q0 -14 -9 -30t-31 -44l-66 -81h-50z" />
    <glyph glyph-name="icircumflex" unicode="&#xee;" horiz-adv-x="316" 
d="M40 0v66h83v326h-83v66h177v-392h83v-66h-260zM23 534l111 183h41l111 -183h-49l-83 93l-82 -93h-49z" />
    <glyph glyph-name="idieresis" unicode="&#xef;" horiz-adv-x="316" 
d="M40 0v66h83v326h-83v66h177v-392h83v-66h-260zM64 556q-25 0 -42 18t-17 43t17 43.5t42 18.5t42 -18.5t17 -43.5t-17 -43t-42 -18zM246 556q-25 0 -42 18t-17 43t17 43.5t42 18.5t42 -18.5t17 -43.5t-17 -43t-42 -18z" />
    <glyph glyph-name="eth" unicode="&#xf0;" horiz-adv-x="535" 
d="M252 -9q-49 0 -89 18t-68 49t-43.5 73t-15.5 90q0 52 16.5 97t45.5 77.5t69.5 51.5t87.5 19q45 0 79 -22t52 -60q-6 43 -29.5 88t-57.5 90l-111 -49l-21 49l98 43q-16 19 -33 37.5t-34 36.5l81 10q13 -13 26.5 -27t26.5 -27l101 44l21 -49l-85 -37q52 -63 88 -137
t36 -161q0 -68 -16 -124.5t-46.5 -96t-76 -61.5t-102.5 -22zM269 45q55 0 87.5 47t32.5 137q0 94 -34.5 138.5t-94.5 44.5q-59 0 -89.5 -44.5t-30.5 -138.5t34.5 -139t94.5 -45z" />
    <glyph glyph-name="ntilde" unicode="&#xf1;" horiz-adv-x="582" 
d="M35 0v66h73v326h-73v66h165v-116q39 64 81 93t91 29q54 0 88 -38t34 -105v-255h73v-66h-234v66h67v221q0 25 -6 46t-19 34q-10 10 -23.5 15t-30.5 5q-21 0 -42.5 -10t-38 -29t-27.5 -46.5t-11 -61.5v-174h67v-66h-234zM149 537q9 68 31 96t67 28q19 0 37.5 -7.5t34 -16.5
t29 -16.5t23.5 -7.5q14 0 22 14t13 43h48q-9 -68 -31 -96t-67 -28q-19 0 -37.5 7.5t-34 16.5t-29 16.5t-23.5 7.5q-14 0 -22 -14t-13 -43h-48z" />
    <glyph glyph-name="ograve" unicode="&#xf2;" horiz-adv-x="529" 
d="M265 -9q-107 0 -168 66t-61 170q0 52 16.5 96t46.5 75.5t72.5 49.5t93.5 18q105 0 166.5 -65.5t61.5 -169.5q0 -52 -16.5 -96.5t-46.5 -76t-72 -49.5t-93 -18zM269 45q58 0 89 45t31 139t-34.5 138.5t-94.5 44.5q-59 0 -89.5 -44.5t-30.5 -138.5t34.5 -139t94.5 -45z
M245 533l-66 81q-22 28 -31 44t-9 30q0 17 12.5 30t29.5 13q22 0 37 -18.5t29 -55.5l48 -124h-50z" />
    <glyph glyph-name="oacute" unicode="&#xf3;" horiz-adv-x="529" 
d="M265 -9q-107 0 -168 66t-61 170q0 52 16.5 96t46.5 75.5t72.5 49.5t93.5 18q105 0 166.5 -65.5t61.5 -169.5q0 -52 -16.5 -96.5t-46.5 -76t-72 -49.5t-93 -18zM269 45q58 0 89 45t31 139t-34.5 138.5t-94.5 44.5q-59 0 -89.5 -44.5t-30.5 -138.5t34.5 -139t94.5 -45z
M233 533l48 124q14 37 29 55.5t37 18.5q17 0 29.5 -13t12.5 -30q0 -14 -9 -30t-31 -44l-66 -81h-50z" />
    <glyph glyph-name="ocircumflex" unicode="&#xf4;" horiz-adv-x="529" 
d="M265 -9q-107 0 -168 66t-61 170q0 52 16.5 96t46.5 75.5t72.5 49.5t93.5 18q105 0 166.5 -65.5t61.5 -169.5q0 -52 -16.5 -96.5t-46.5 -76t-72 -49.5t-93 -18zM269 45q58 0 89 45t31 139t-34.5 138.5t-94.5 44.5q-59 0 -89.5 -44.5t-30.5 -138.5t34.5 -139t94.5 -45z
M132 534l111 183h41l111 -183h-49l-83 93l-82 -93h-49z" />
    <glyph glyph-name="otilde" unicode="&#xf5;" horiz-adv-x="529" 
d="M265 -9q-107 0 -168 66t-61 170q0 52 16.5 96t46.5 75.5t72.5 49.5t93.5 18q105 0 166.5 -65.5t61.5 -169.5q0 -52 -16.5 -96.5t-46.5 -76t-72 -49.5t-93 -18zM269 45q58 0 89 45t31 139t-34.5 138.5t-94.5 44.5q-59 0 -89.5 -44.5t-30.5 -138.5t34.5 -139t94.5 -45z
M112 537q9 68 31 96t67 28q19 0 37.5 -7.5t34 -16.5t29 -16.5t23.5 -7.5q14 0 22 14t13 43h48q-9 -68 -31 -96t-67 -28q-19 0 -37.5 7.5t-34 16.5t-29 16.5t-23.5 7.5q-14 0 -22 -14t-13 -43h-48z" />
    <glyph glyph-name="odieresis" unicode="&#xf6;" horiz-adv-x="529" 
d="M265 -9q-107 0 -168 66t-61 170q0 52 16.5 96t46.5 75.5t72.5 49.5t93.5 18q105 0 166.5 -65.5t61.5 -169.5q0 -52 -16.5 -96.5t-46.5 -76t-72 -49.5t-93 -18zM269 45q58 0 89 45t31 139t-34.5 138.5t-94.5 44.5q-59 0 -89.5 -44.5t-30.5 -138.5t34.5 -139t94.5 -45z
M173 556q-25 0 -42 18t-17 43t17 43.5t42 18.5t42 -18.5t17 -43.5t-17 -43t-42 -18zM355 556q-25 0 -42 18t-17 43t17 43.5t42 18.5t42 -18.5t17 -43.5t-17 -43t-42 -18z" />
    <glyph glyph-name="divide" unicode="&#xf7;" horiz-adv-x="520" 
d="M260 408q-25 0 -43.5 18.5t-18.5 43.5t18.5 43.5t43.5 18.5t43.5 -18.5t18.5 -43.5t-18.5 -43.5t-43.5 -18.5zM45 286v62h430v-62h-430zM260 102q-25 0 -43.5 18.5t-18.5 43.5t18.5 43.5t43.5 18.5t43.5 -18.5t18.5 -43.5t-18.5 -43.5t-43.5 -18.5z" />
    <glyph glyph-name="oslash" unicode="&#xf8;" horiz-adv-x="529" 
d="M30 -27l66 84q-29 31 -44.5 74.5t-15.5 95.5t16.5 96t46.5 75.5t72.5 49.5t93.5 18q38 0 71 -9.5t59 -25.5l41 53h63l-67 -84q29 -31 45 -74.5t16 -94.5q0 -52 -16.5 -96.5t-46.5 -76t-72 -49.5t-93 -18q-39 0 -72 9t-59 26l-41 -53h-63zM154 128l195 246
q-16 19 -38.5 28.5t-50.5 9.5q-59 0 -89.5 -44.5t-30.5 -138.5q0 -31 3.5 -56t10.5 -45zM269 45q58 0 89 45t31 139q0 30 -4 55.5t-11 44.5l-194 -247q16 -19 38.5 -28t50.5 -9z" />
    <glyph glyph-name="ugrave" unicode="&#xf9;" horiz-adv-x="565" 
d="M211 -6q-54 0 -86.5 38t-32.5 105v255h-73v66h167v-287q0 -26 5.5 -47t18.5 -34q9 -9 22 -14t30 -5q21 0 42.5 10t38 29t27.5 46.5t11 61.5v174h-76v66h170v-392h73v-66h-165v116q-39 -64 -81 -93t-91 -29zM264 533l-66 81q-22 28 -31 44t-9 30q0 17 12.5 30t29.5 13
q22 0 37 -18.5t29 -55.5l48 -124h-50z" />
    <glyph glyph-name="uacute" unicode="&#xfa;" horiz-adv-x="565" 
d="M211 -6q-54 0 -86.5 38t-32.5 105v255h-73v66h167v-287q0 -26 5.5 -47t18.5 -34q9 -9 22 -14t30 -5q21 0 42.5 10t38 29t27.5 46.5t11 61.5v174h-76v66h170v-392h73v-66h-165v116q-39 -64 -81 -93t-91 -29zM252 533l48 124q14 37 29 55.5t37 18.5q17 0 29.5 -13t12.5 -30
q0 -14 -9 -30t-31 -44l-66 -81h-50z" />
    <glyph glyph-name="ucircumflex" unicode="&#xfb;" horiz-adv-x="565" 
d="M211 -6q-54 0 -86.5 38t-32.5 105v255h-73v66h167v-287q0 -26 5.5 -47t18.5 -34q9 -9 22 -14t30 -5q21 0 42.5 10t38 29t27.5 46.5t11 61.5v174h-76v66h170v-392h73v-66h-165v116q-39 -64 -81 -93t-91 -29zM151 534l111 183h41l111 -183h-49l-83 93l-82 -93h-49z" />
    <glyph glyph-name="udieresis" unicode="&#xfc;" horiz-adv-x="565" 
d="M211 -6q-54 0 -86.5 38t-32.5 105v255h-73v66h167v-287q0 -26 5.5 -47t18.5 -34q9 -9 22 -14t30 -5q21 0 42.5 10t38 29t27.5 46.5t11 61.5v174h-76v66h170v-392h73v-66h-165v116q-39 -64 -81 -93t-91 -29zM192 556q-25 0 -42 18t-17 43t17 43.5t42 18.5t42 -18.5
t17 -43.5t-17 -43t-42 -18zM374 556q-25 0 -42 18t-17 43t17 43.5t42 18.5t42 -18.5t17 -43.5t-17 -43t-42 -18z" />
    <glyph glyph-name="yacute" unicode="&#xfd;" horiz-adv-x="506" 
d="M107 -167q-44 0 -70 21.5t-26 57.5q0 25 18 45t45 20q28 0 43.5 -18t15.5 -40q0 -8 -2.5 -17.5t-4.5 -13.5q29 6 50.5 28.5t46.5 86.5q-15 37 -42 103t-53 129t-45 110l-19 47h-64v66h242v-66h-78l107 -288l113 288h-64v66h193v-66h-59l-159 -381q-45 -106 -91 -142
t-97 -36zM239 533l48 124q14 37 29 55.5t37 18.5q17 0 29.5 -13t12.5 -30q0 -14 -9 -30t-31 -44l-66 -81h-50z" />
    <glyph glyph-name="thorn" unicode="&#xfe;" horiz-adv-x="546" 
d="M4 -154v66h73v703h-73v72h167v-322q25 47 66 74t87 27q41 0 69.5 -12t49.5 -33q32 -32 47 -80t15 -111q0 -48 -16 -95.5t-51 -84.5q-23 -23 -55 -36.5t-64 -13.5q-52 0 -89.5 23.5t-58.5 60.5v-172h96v-66h-263zM296 53q47 0 76 46t29 131q0 82 -28 127.5t-77 45.5
q-54 0 -90.5 -51.5t-36.5 -131.5q0 -79 39 -123t88 -44z" />
    <glyph glyph-name="ydieresis" unicode="&#xff;" horiz-adv-x="506" 
d="M107 -167q-44 0 -70 21.5t-26 57.5q0 25 18 45t45 20q28 0 43.5 -18t15.5 -40q0 -8 -2.5 -17.5t-4.5 -13.5q29 6 50.5 28.5t46.5 86.5q-15 37 -42 103t-53 129t-45 110l-19 47h-64v66h242v-66h-78l107 -288l113 288h-64v66h193v-66h-59l-159 -381q-45 -106 -91 -142
t-97 -36zM179 556q-25 0 -42 18t-17 43t17 43.5t42 18.5t42 -18.5t17 -43.5t-17 -43t-42 -18zM361 556q-25 0 -42 18t-17 43t17 43.5t42 18.5t42 -18.5t17 -43.5t-17 -43t-42 -18z" />
    <glyph glyph-name="Amacron" unicode="&#x100;" horiz-adv-x="682" 
d="M-13 0v66h71l229 596h101l215 -596h91v-66h-308v66h104l-57 165h-237l-61 -165h83v-66h-231zM316 558l-99 -269h196l-93 269h-4zM214 758v75h251v-75h-251z" />
    <glyph glyph-name="amacron" unicode="&#x101;" horiz-adv-x="491" 
d="M177 -5q-63 0 -98 33.5t-35 84.5q0 24 8 45t26 39q28 28 68 40t102 21q44 7 57 11t13 17v47q0 44 -22 62.5t-69 18.5q-22 0 -40.5 -4.5t-36.5 -14.5q13 -6 21 -19.5t8 -29.5q0 -22 -15 -39t-43 -17q-29 0 -45 18t-16 40q0 27 15 49t40.5 37t60 23t72.5 8q78 0 121 -33.5
t43 -105.5v-232q0 -17 6.5 -25t24.5 -8q10 0 19.5 10t16.5 26l35 -21q-18 -42 -43.5 -60.5t-59.5 -18.5q-31 0 -56.5 19t-25.5 61h-5q-19 -37 -61 -59.5t-86 -22.5zM220 59q34 0 66 26t32 66v79q-7 -3 -16.5 -5t-28.5 -5q-72 -11 -99.5 -26.5t-27.5 -60.5q0 -33 18 -53.5
t56 -20.5zM124 550v75h251v-75h-251z" />
    <glyph glyph-name="Abreve" unicode="&#x102;" horiz-adv-x="682" 
d="M-13 0v66h71l229 596h101l215 -596h91v-66h-308v66h104l-57 165h-237l-61 -165h83v-66h-231zM316 558l-99 -269h196l-93 269h-4zM340 748q-60 0 -97.5 41.5t-41.5 115.5h41q12 -40 35 -63.5t63 -23.5t62 23.5t34 63.5h41q-2 -74 -39.5 -115.5t-97.5 -41.5z" />
    <glyph glyph-name="abreve" unicode="&#x103;" horiz-adv-x="491" 
d="M177 -5q-63 0 -98 33.5t-35 84.5q0 24 8 45t26 39q28 28 68 40t102 21q44 7 57 11t13 17v47q0 44 -22 62.5t-69 18.5q-22 0 -40.5 -4.5t-36.5 -14.5q13 -6 21 -19.5t8 -29.5q0 -22 -15 -39t-43 -17q-29 0 -45 18t-16 40q0 27 15 49t40.5 37t60 23t72.5 8q78 0 121 -33.5
t43 -105.5v-232q0 -17 6.5 -25t24.5 -8q10 0 19.5 10t16.5 26l35 -21q-18 -42 -43.5 -60.5t-59.5 -18.5q-31 0 -56.5 19t-25.5 61h-5q-19 -37 -61 -59.5t-86 -22.5zM220 59q34 0 66 26t32 66v79q-7 -3 -16.5 -5t-28.5 -5q-72 -11 -99.5 -26.5t-27.5 -60.5q0 -33 18 -53.5
t56 -20.5zM250 540q-60 0 -97.5 41.5t-41.5 115.5h41q12 -40 35 -63.5t63 -23.5t62 23.5t34 63.5h41q-2 -74 -39.5 -115.5t-97.5 -41.5z" />
    <glyph glyph-name="Aogonek" unicode="&#x104;" horiz-adv-x="682" 
d="M-13 0v66h71l229 596h101l215 -596h91v-66h-94l-12 -12q-50 -50 -64 -78t-14 -49q0 -28 15.5 -39.5t34.5 -11.5q17 0 31.5 7t24.5 14l22 -35q-22 -17 -48 -28t-53 -11q-50 0 -78 24.5t-28 65.5q0 34 21 65.5t67 71.5l19 16h-152v66h104l-57 165h-237l-61 -165h83v-66
h-231zM316 558l-99 -269h196l-93 269h-4z" />
    <glyph glyph-name="aogonek" unicode="&#x105;" horiz-adv-x="491" 
d="M395 -243q-50 0 -78 24.5t-28 65.5q0 34 22.5 67.5t82.5 83.5q-27 4 -46 24t-19 55h-5q-19 -37 -61 -59.5t-86 -22.5q-63 0 -98 33.5t-35 84.5q0 30 13.5 56.5t44.5 46.5q27 18 64.5 27t96.5 17q35 5 45 10t10 16v47q0 44 -22 62.5t-69 18.5q-22 0 -40.5 -4.5
t-36.5 -14.5q13 -6 21 -19.5t8 -29.5q0 -22 -15 -39t-43 -17q-29 0 -45 18t-16 40q0 27 15 49t40.5 37t60 23t72.5 8q78 0 121 -33.5t43 -105.5v-232q0 -17 6.5 -25t24.5 -8q10 0 19.5 10t16.5 26l35 -21q-7 -16 -17 -31.5t-32 -37.5q-65 -63 -81 -93.5t-16 -52.5
q0 -28 15.5 -39.5t34.5 -11.5q17 0 31.5 7t24.5 14l22 -35q-22 -17 -48 -28t-53 -11zM220 59q34 0 66 26t32 66v79q-7 -3 -16.5 -5t-28.5 -5q-72 -11 -99.5 -26.5t-27.5 -60.5q0 -33 18 -53.5t56 -20.5z" />
    <glyph glyph-name="Cacute" unicode="&#x106;" horiz-adv-x="676" 
d="M351 -16q-70 0 -128 27t-99 74t-63.5 110.5t-22.5 135.5q0 69 25 132t67 109.5t99 74t120 27.5q59 0 106 -21.5t77 -55.5l18 74h66v-258h-60q-34 89 -84.5 142t-116.5 53q-41 0 -77.5 -15t-63 -47.5t-41.5 -84.5t-15 -124q0 -134 54.5 -208.5t154.5 -74.5q44 0 79.5 16.5
t61 45t41 66.5t21.5 81h71q-6 -66 -30.5 -118t-63 -87.5t-89 -54.5t-107.5 -19zM319 741l48 124q14 37 29 55.5t37 18.5q17 0 29.5 -13t12.5 -30q0 -14 -9 -30t-31 -44l-66 -81h-50z" />
    <glyph glyph-name="cacute" unicode="&#x107;" horiz-adv-x="481" 
d="M257 -9q-52 0 -93.5 17.5t-69.5 48.5t-43 73.5t-15 91.5q0 53 18 98t49.5 77.5t75.5 50.5t94 18q37 0 69.5 -12t56 -30t37 -41.5t13.5 -45.5q0 -35 -17 -58t-48 -23q-30 0 -46 18t-16 43q0 20 13 37.5t26 22.5q-10 16 -33 28t-59 12q-52 0 -90.5 -47t-38.5 -136
q0 -85 36.5 -132.5t105.5 -47.5q42 0 75 24.5t50 73.5h48q-18 -77 -70.5 -119t-127.5 -42zM234 533l48 124q14 37 29 55.5t37 18.5q17 0 29.5 -13t12.5 -30q0 -14 -9 -30t-31 -44l-66 -81h-50z" />
    <glyph glyph-name="Cdotaccent" unicode="&#x10a;" horiz-adv-x="676" 
d="M351 -16q-70 0 -128 27t-99 74t-63.5 110.5t-22.5 135.5q0 69 25 132t67 109.5t99 74t120 27.5q59 0 106 -21.5t77 -55.5l18 74h66v-258h-60q-34 89 -84.5 142t-116.5 53q-41 0 -77.5 -15t-63 -47.5t-41.5 -84.5t-15 -124q0 -134 54.5 -208.5t154.5 -74.5q44 0 79.5 16.5
t61 45t41 66.5t21.5 81h71q-6 -66 -30.5 -118t-63 -87.5t-89 -54.5t-107.5 -19zM350 745q-28 0 -45 17.5t-17 45.5q0 26 18 45t44 19q28 0 45 -18t17 -46q0 -26 -18 -44.5t-44 -18.5z" />
    <glyph glyph-name="cdotaccent" unicode="&#x10b;" horiz-adv-x="481" 
d="M257 -9q-52 0 -93.5 17.5t-69.5 48.5t-43 73.5t-15 91.5q0 53 18 98t49.5 77.5t75.5 50.5t94 18q37 0 69.5 -12t56 -30t37 -41.5t13.5 -45.5q0 -35 -17 -58t-48 -23q-30 0 -46 18t-16 43q0 20 13 37.5t26 22.5q-10 16 -33 28t-59 12q-52 0 -90.5 -47t-38.5 -136
q0 -85 36.5 -132.5t105.5 -47.5q42 0 75 24.5t50 73.5h48q-18 -77 -70.5 -119t-127.5 -42zM265 537q-28 0 -45 17.5t-17 45.5q0 26 18 45t44 19q28 0 45 -18t17 -46q0 -26 -18 -44.5t-44 -18.5z" />
    <glyph glyph-name="Ccaron" unicode="&#x10c;" horiz-adv-x="676" 
d="M351 -16q-70 0 -128 27t-99 74t-63.5 110.5t-22.5 135.5q0 69 25 132t67 109.5t99 74t120 27.5q59 0 106 -21.5t77 -55.5l18 74h66v-258h-60q-34 89 -84.5 142t-116.5 53q-41 0 -77.5 -15t-63 -47.5t-41.5 -84.5t-15 -124q0 -134 54.5 -208.5t154.5 -74.5q44 0 79.5 16.5
t61 45t41 66.5t21.5 81h71q-6 -66 -30.5 -118t-63 -87.5t-89 -54.5t-107.5 -19zM333 751l-111 183h49l83 -93l82 93h49l-111 -183h-41z" />
    <glyph glyph-name="ccaron" unicode="&#x10d;" horiz-adv-x="481" 
d="M257 -9q-52 0 -93.5 17.5t-69.5 48.5t-43 73.5t-15 91.5q0 53 18 98t49.5 77.5t75.5 50.5t94 18q37 0 69.5 -12t56 -30t37 -41.5t13.5 -45.5q0 -35 -17 -58t-48 -23q-30 0 -46 18t-16 43q0 20 13 37.5t26 22.5q-10 16 -33 28t-59 12q-52 0 -90.5 -47t-38.5 -136
q0 -85 36.5 -132.5t105.5 -47.5q42 0 75 24.5t50 73.5h48q-18 -77 -70.5 -119t-127.5 -42zM248 543l-111 183h49l83 -93l82 93h49l-111 -183h-41z" />
    <glyph glyph-name="Dcaron" unicode="&#x10e;" horiz-adv-x="722" 
d="M30 0v66h111v526h-111v66h282q92 0 162 -23.5t116.5 -65.5t70 -100.5t23.5 -129.5q0 -68 -21.5 -129.5t-65.5 -108t-113 -74t-163 -27.5h-291zM244 66h78q125 0 183.5 62t58.5 211q0 131 -60 192t-192 61h-68v-526zM354 751l-111 183h49l83 -93l82 93h49l-111 -183h-41z
" />
    <glyph glyph-name="dcaron" unicode="&#x10f;" horiz-adv-x="551" 
d="M227 -9q-35 0 -67 13.5t-54 35.5q-33 33 -49 81t-16 101q0 55 18.5 108t50.5 85q25 25 56.5 38t68.5 13q50 0 84 -22.5t56 -57.5v229h-76v72h170v-621h67v-66h-159v94q-25 -51 -64.5 -77t-85.5 -26zM260 54q45 0 81 46t36 130q0 34 -7 65.5t-21 55t-36.5 38t-52.5 14.5
q-54 0 -84.5 -46t-30.5 -127q0 -84 34.5 -130t80.5 -46zM544 523l-4 144q-1 43 11.5 63.5t37.5 20.5q19 0 30.5 -13.5t11.5 -35.5q0 -11 -3 -25t-9 -36l-34 -118h-41z" />
    <glyph glyph-name="Dcroat" unicode="&#x110;" horiz-adv-x="722" 
d="M30 0v66h111v244h-111v66h111v216h-111v66h282q92 0 162 -23.5t116.5 -65.5t70 -100.5t23.5 -129.5q0 -68 -21.5 -129.5t-65.5 -108t-113 -74t-163 -27.5h-291zM244 66h78q125 0 183.5 62t58.5 211q0 131 -60 192t-192 61h-68v-216h136v-66h-136v-244z" />
    <glyph glyph-name="dcroat" unicode="&#x111;" horiz-adv-x="551" 
d="M227 -9q-35 0 -67 13.5t-54 35.5q-33 33 -49 81t-16 101q0 55 18.5 108t50.5 85q25 25 56.5 38t68.5 13q50 0 84 -22.5t56 -57.5v118h-129v56h129v55h-76v72h170v-127h67v-56h-67v-438h67v-66h-159v94q-25 -51 -64.5 -77t-85.5 -26zM260 54q45 0 81 46t36 130
q0 34 -7 65.5t-21 55t-36.5 38t-52.5 14.5q-54 0 -84.5 -46t-30.5 -127q0 -84 34.5 -130t80.5 -46z" />
    <glyph glyph-name="Emacron" unicode="&#x112;" horiz-adv-x="678" 
d="M30 0v66h111v526h-111v66h582v-214h-48q-13 44 -23.5 73t-23 45.5t-30 23t-46.5 6.5h-197v-226h69q28 0 44.5 3t27 13.5t17 30.5t13.5 54h53v-262h-53q-6 35 -12.5 56t-17 32t-27.5 14t-45 3h-69v-244h193q33 0 53 7t34 25.5t24.5 51.5t24.5 84h48v-234h-591zM239 758v75
h251v-75h-251z" />
    <glyph glyph-name="emacron" unicode="&#x113;" horiz-adv-x="490" 
d="M255 -9q-52 0 -93 18t-69 49t-42.5 74t-14.5 92q0 51 17 95.5t47 77t71 51t90 18.5q51 0 88.5 -21t61.5 -55t35 -78t10 -89h-316q2 -84 38.5 -126.5t101.5 -42.5q42 0 73.5 19.5t52.5 65.5h48q-19 -73 -71.5 -110.5t-127.5 -37.5zM254 413q-47 0 -77 -33t-36 -110h219
q-5 63 -29.5 103t-76.5 40zM129 550v75h251v-75h-251z" />
    <glyph glyph-name="Ebreve" unicode="&#x114;" horiz-adv-x="678" 
d="M30 0v66h111v526h-111v66h582v-214h-48q-13 44 -23.5 73t-23 45.5t-30 23t-46.5 6.5h-197v-226h69q28 0 44.5 3t27 13.5t17 30.5t13.5 54h53v-262h-53q-6 35 -12.5 56t-17 32t-27.5 14t-45 3h-69v-244h193q33 0 53 7t34 25.5t24.5 51.5t24.5 84h48v-234h-591zM365 748
q-60 0 -97.5 41.5t-41.5 115.5h41q12 -40 35 -63.5t63 -23.5t62 23.5t34 63.5h41q-2 -74 -39.5 -115.5t-97.5 -41.5z" />
    <glyph glyph-name="ebreve" unicode="&#x115;" horiz-adv-x="490" 
d="M255 -9q-52 0 -93 18t-69 49t-42.5 74t-14.5 92q0 51 17 95.5t47 77t71 51t90 18.5q51 0 88.5 -21t61.5 -55t35 -78t10 -89h-316q2 -84 38.5 -126.5t101.5 -42.5q42 0 73.5 19.5t52.5 65.5h48q-19 -73 -71.5 -110.5t-127.5 -37.5zM254 413q-47 0 -77 -33t-36 -110h219
q-5 63 -29.5 103t-76.5 40zM255 540q-60 0 -97.5 41.5t-41.5 115.5h41q12 -40 35 -63.5t63 -23.5t62 23.5t34 63.5h41q-2 -74 -39.5 -115.5t-97.5 -41.5z" />
    <glyph glyph-name="Edotaccent" unicode="&#x116;" horiz-adv-x="678" 
d="M30 0v66h111v526h-111v66h582v-214h-48q-13 44 -23.5 73t-23 45.5t-30 23t-46.5 6.5h-197v-226h69q28 0 44.5 3t27 13.5t17 30.5t13.5 54h53v-262h-53q-6 35 -12.5 56t-17 32t-27.5 14t-45 3h-69v-244h193q33 0 53 7t34 25.5t24.5 51.5t24.5 84h48v-234h-591zM365 745
q-28 0 -45 17.5t-17 45.5q0 26 18 45t44 19q28 0 45 -18t17 -46q0 -26 -18 -44.5t-44 -18.5z" />
    <glyph glyph-name="edotaccent" unicode="&#x117;" horiz-adv-x="490" 
d="M255 -9q-52 0 -93 18t-69 49t-42.5 74t-14.5 92q0 51 17 95.5t47 77t71 51t90 18.5q51 0 88.5 -21t61.5 -55t35 -78t10 -89h-316q2 -84 38.5 -126.5t101.5 -42.5q42 0 73.5 19.5t52.5 65.5h48q-19 -73 -71.5 -110.5t-127.5 -37.5zM254 413q-47 0 -77 -33t-36 -110h219
q-5 63 -29.5 103t-76.5 40zM255 537q-28 0 -45 17.5t-17 45.5q0 26 18 45t44 19q28 0 45 -18t17 -46q0 -26 -18 -44.5t-44 -18.5z" />
    <glyph glyph-name="Eogonek" unicode="&#x118;" horiz-adv-x="678" 
d="M30 0v66h111v526h-111v66h582v-214h-48q-13 44 -23.5 73t-23 45.5t-30 23t-46.5 6.5h-197v-226h69q28 0 44.5 3t27 13.5t17 30.5t13.5 54h53v-262h-53q-6 35 -12.5 56t-17 32t-27.5 14t-45 3h-69v-244h193q33 0 53 7t34 25.5t24.5 51.5t24.5 84h48v-234h-45l-12 -12
q-50 -50 -64 -78t-14 -49q0 -28 15.5 -39.5t34.5 -11.5q17 0 31.5 7t24.5 14l22 -35q-22 -17 -48 -28t-53 -11q-50 0 -78 24.5t-28 65.5q0 34 21 65.5t67 71.5l19 16h-484z" />
    <glyph glyph-name="eogonek" unicode="&#x119;" horiz-adv-x="490" 
d="M309 -243q-50 0 -78 24.5t-28 65.5q0 34 20.5 64.5t64.5 70.5l14 13q-14 -2 -27 -3t-20 -1q-52 0 -93 18t-69 49t-42.5 74t-14.5 92q0 51 17 95.5t47 77t71 51t90 18.5q51 0 88.5 -21t61.5 -55t35 -78t10 -89h-316q2 -84 38.5 -126.5t101.5 -42.5q42 0 73.5 19.5
t52.5 65.5h48q-12 -44 -33 -72.5t-42 -52.5l-37 -43q-40 -46 -50 -68.5t-10 -41.5q0 -28 15.5 -39.5t34.5 -11.5q17 0 31.5 7t24.5 14l22 -35q-22 -17 -48 -28t-53 -11zM254 413q-47 0 -77 -33t-36 -110h219q-5 63 -29.5 103t-76.5 40z" />
    <glyph glyph-name="Ecaron" unicode="&#x11a;" horiz-adv-x="678" 
d="M30 0v66h111v526h-111v66h582v-214h-48q-13 44 -23.5 73t-23 45.5t-30 23t-46.5 6.5h-197v-226h69q28 0 44.5 3t27 13.5t17 30.5t13.5 54h53v-262h-53q-6 35 -12.5 56t-17 32t-27.5 14t-45 3h-69v-244h193q33 0 53 7t34 25.5t24.5 51.5t24.5 84h48v-234h-591zM348 751
l-111 183h49l83 -93l82 93h49l-111 -183h-41z" />
    <glyph glyph-name="ecaron" unicode="&#x11b;" horiz-adv-x="490" 
d="M255 -9q-52 0 -93 18t-69 49t-42.5 74t-14.5 92q0 51 17 95.5t47 77t71 51t90 18.5q51 0 88.5 -21t61.5 -55t35 -78t10 -89h-316q2 -84 38.5 -126.5t101.5 -42.5q42 0 73.5 19.5t52.5 65.5h48q-19 -73 -71.5 -110.5t-127.5 -37.5zM254 413q-47 0 -77 -33t-36 -110h219
q-5 63 -29.5 103t-76.5 40zM238 543l-111 183h49l83 -93l82 93h49l-111 -183h-41z" />
    <glyph glyph-name="Gbreve" unicode="&#x11e;" horiz-adv-x="718" 
d="M351 -16q-70 0 -128 27t-99 74t-63.5 110.5t-22.5 135.5q0 69 25 132t67 109.5t99 74t120 27.5q59 0 106 -21.5t77 -55.5l18 74h66v-258h-60q-34 89 -84.5 142t-116.5 53q-41 0 -77.5 -15t-63 -47.5t-41.5 -84.5t-15 -124q0 -134 54.5 -208.5t154.5 -74.5q54 0 86 24.5
t48 54.5q10 19 15.5 52t5.5 55v25h-121v66h312v-66h-88v-272h-64l-28 89q-31 -45 -77 -71.5t-105 -26.5zM355 748q-60 0 -97.5 41.5t-41.5 115.5h41q12 -40 35 -63.5t63 -23.5t62 23.5t34 63.5h41q-2 -74 -39.5 -115.5t-97.5 -41.5z" />
    <glyph glyph-name="gbreve" unicode="&#x11f;" horiz-adv-x="477" 
d="M225 -167q-92 0 -147 29t-55 74q0 31 26.5 57.5t69.5 31.5v5q-40 13 -56.5 34.5t-16.5 46.5t25 50t61 32q-37 18 -59.5 47.5t-22.5 75.5q0 72 54 111t133 39q19 0 37.5 -3t34.5 -8q22 38 55 63.5t73 25.5q29 0 47 -16t18 -41q0 -21 -13.5 -35.5t-32.5 -14.5
q-20 0 -31.5 11t-11.5 30v5t1 6q-13 3 -32.5 -12.5t-32.5 -38.5q34 -19 54 -49.5t20 -67.5q0 -72 -53.5 -111t-132.5 -39q-16 0 -31 1.5t-29 1.5q-24 0 -36 -13t-12 -27q0 -18 15 -29t52 -11h121q78 0 112 -31.5t34 -79.5q0 -60 -59.5 -105t-178.5 -45zM240 217
q42 0 63.5 25.5t21.5 76.5q0 43 -24 72t-68 29q-43 0 -64.5 -24.5t-21.5 -77.5t25 -77t68 -24zM231 -116q66 0 108 20.5t42 54.5q0 24 -15.5 39t-54.5 15h-112q-45 0 -66.5 -15.5t-21.5 -46.5q0 -25 24 -46t96 -21zM236 540q-60 0 -97.5 41.5t-41.5 115.5h41
q12 -40 35 -63.5t63 -23.5t62 23.5t34 63.5h41q-2 -74 -39.5 -115.5t-97.5 -41.5z" />
    <glyph glyph-name="Gdotaccent" unicode="&#x120;" horiz-adv-x="718" 
d="M351 -16q-70 0 -128 27t-99 74t-63.5 110.5t-22.5 135.5q0 69 25 132t67 109.5t99 74t120 27.5q59 0 106 -21.5t77 -55.5l18 74h66v-258h-60q-34 89 -84.5 142t-116.5 53q-41 0 -77.5 -15t-63 -47.5t-41.5 -84.5t-15 -124q0 -134 54.5 -208.5t154.5 -74.5q54 0 86 24.5
t48 54.5q10 19 15.5 52t5.5 55v25h-121v66h312v-66h-88v-272h-64l-28 89q-31 -45 -77 -71.5t-105 -26.5zM355 745q-28 0 -45 17.5t-17 45.5q0 26 18 45t44 19q28 0 45 -18t17 -46q0 -26 -18 -44.5t-44 -18.5z" />
    <glyph glyph-name="gdotaccent" unicode="&#x121;" horiz-adv-x="477" 
d="M225 -167q-92 0 -147 29t-55 74q0 31 26.5 57.5t69.5 31.5v5q-40 13 -56.5 34.5t-16.5 46.5t25 50t61 32q-37 18 -59.5 47.5t-22.5 75.5q0 72 54 111t133 39q19 0 37.5 -3t34.5 -8q22 38 55 63.5t73 25.5q29 0 47 -16t18 -41q0 -21 -13.5 -35.5t-32.5 -14.5
q-20 0 -31.5 11t-11.5 30v5t1 6q-13 3 -32.5 -12.5t-32.5 -38.5q34 -19 54 -49.5t20 -67.5q0 -72 -53.5 -111t-132.5 -39q-16 0 -31 1.5t-29 1.5q-24 0 -36 -13t-12 -27q0 -18 15 -29t52 -11h121q78 0 112 -31.5t34 -79.5q0 -60 -59.5 -105t-178.5 -45zM240 217
q42 0 63.5 25.5t21.5 76.5q0 43 -24 72t-68 29q-43 0 -64.5 -24.5t-21.5 -77.5t25 -77t68 -24zM231 -116q66 0 108 20.5t42 54.5q0 24 -15.5 39t-54.5 15h-112q-45 0 -66.5 -15.5t-21.5 -46.5q0 -25 24 -46t96 -21zM236 537q-28 0 -45 17.5t-17 45.5q0 26 18 45t44 19
q28 0 45 -18t17 -46q0 -26 -18 -44.5t-44 -18.5z" />
    <glyph glyph-name="uni0122" unicode="&#x122;" horiz-adv-x="718" 
d="M351 -16q-70 0 -128 27t-99 74t-63.5 110.5t-22.5 135.5q0 69 25 132t67 109.5t99 74t120 27.5q59 0 106 -21.5t77 -55.5l18 74h66v-258h-60q-34 89 -84.5 142t-116.5 53q-41 0 -77.5 -15t-63 -47.5t-41.5 -84.5t-15 -124q0 -134 54.5 -208.5t154.5 -74.5q54 0 86 24.5
t48 54.5q10 19 15.5 52t5.5 55v25h-121v66h312v-66h-88v-272h-64l-28 89q-31 -45 -77 -71.5t-105 -26.5zM290 -316l-17 32q43 21 64.5 46.5t24.5 51.5l-5 3q-4 -4 -11 -6t-15 -2q-18 0 -32.5 15t-14.5 37q0 25 17.5 43.5t42.5 18.5q32 0 51 -22t19 -56q0 -49 -27 -89.5
t-97 -71.5z" />
    <glyph glyph-name="uni0123" unicode="&#x123;" horiz-adv-x="477" 
d="M225 -167q-92 0 -147 29t-55 74q0 31 26.5 57.5t69.5 31.5v5q-40 13 -56.5 34.5t-16.5 46.5t25 50t61 32q-37 18 -59.5 47.5t-22.5 75.5q0 72 54 111t133 39q19 0 37.5 -3t34.5 -8q22 38 55 63.5t73 25.5q29 0 47 -16t18 -41q0 -21 -13.5 -35.5t-32.5 -14.5
q-20 0 -31.5 11t-11.5 30v5t1 6q-13 3 -32.5 -12.5t-32.5 -38.5q34 -19 54 -49.5t20 -67.5q0 -72 -53.5 -111t-132.5 -39q-16 0 -31 1.5t-29 1.5q-24 0 -36 -13t-12 -27q0 -18 15 -29t52 -11h121q78 0 112 -31.5t34 -79.5q0 -60 -59.5 -105t-178.5 -45zM240 217
q42 0 63.5 25.5t21.5 76.5q0 43 -24 72t-68 29q-43 0 -64.5 -24.5t-21.5 -77.5t25 -77t68 -24zM231 -116q66 0 108 20.5t42 54.5q0 24 -15.5 39t-54.5 15h-112q-45 0 -66.5 -15.5t-21.5 -46.5q0 -25 24 -46t96 -21zM295 776l17 -32q-43 -21 -64.5 -46.5t-24.5 -51.5l5 -3
q4 4 11 6t15 2q18 0 32.5 -15t14.5 -37q0 -25 -17.5 -43.5t-42.5 -18.5q-32 0 -51 22t-19 56q0 49 27 89.5t97 71.5z" />
    <glyph glyph-name="Hbar" unicode="&#x126;" horiz-adv-x="789" 
d="M30 0v66h111v381h-111v58h111v87h-111v66h309v-66h-95v-87h301v87h-95v66h309v-66h-111v-87h111v-58h-111v-381h111v-66h-309v66h95v236h-301v-236h95v-66h-309zM244 360h301v87h-301v-87z" />
    <glyph glyph-name="hbar" unicode="&#x127;" horiz-adv-x="570" 
d="M23 0v66h73v438h-73v56h73v55h-73v72h167v-127h123v-56h-123v-160q39 64 80 92t90 28q54 0 88 -38t34 -105v-255h73v-66h-234v66h67v221q0 25 -6 46t-19 34q-10 10 -23.5 15t-30.5 5q-21 0 -42.5 -10t-38 -29t-27.5 -46.5t-11 -61.5v-174h67v-66h-234z" />
    <glyph glyph-name="Imacron" unicode="&#x12a;" horiz-adv-x="405" 
d="M40 0v66h111v526h-111v66h325v-66h-111v-526h111v-66h-325zM76 758v75h251v-75h-251z" />
    <glyph glyph-name="imacron" unicode="&#x12b;" horiz-adv-x="316" 
d="M40 0v66h83v326h-83v66h177v-392h83v-66h-260zM29 550v75h251v-75h-251z" />
    <glyph glyph-name="Ibreve" unicode="&#x12c;" horiz-adv-x="405" 
d="M40 0v66h111v526h-111v66h325v-66h-111v-526h111v-66h-325zM202 748q-60 0 -97.5 41.5t-41.5 115.5h41q12 -40 35 -63.5t63 -23.5t62 23.5t34 63.5h41q-2 -74 -39.5 -115.5t-97.5 -41.5z" />
    <glyph glyph-name="ibreve" unicode="&#x12d;" horiz-adv-x="316" 
d="M40 0v66h83v326h-83v66h177v-392h83v-66h-260zM155 540q-60 0 -97.5 41.5t-41.5 115.5h41q12 -40 35 -63.5t63 -23.5t62 23.5t34 63.5h41q-2 -74 -39.5 -115.5t-97.5 -41.5z" />
    <glyph glyph-name="Iogonek" unicode="&#x12e;" horiz-adv-x="405" 
d="M40 0v66h111v526h-111v66h325v-66h-111v-526h111v-66h-105l-12 -12q-50 -50 -64 -78t-14 -49q0 -28 15.5 -39.5t34.5 -11.5q17 0 31.5 7t24.5 14l22 -35q-22 -17 -48 -28t-53 -11q-50 0 -78 24.5t-28 65.5q0 34 21 65.5t67 71.5l19 16h-158z" />
    <glyph glyph-name="iogonek" unicode="&#x12f;" horiz-adv-x="316" 
d="M164 554q-29 0 -47 17.5t-18 47.5t18 49t47 19t47 -18t18 -48t-18 -48.5t-47 -18.5zM40 0v66h83v326h-83v66h177v-392h83v-66h-70l-12 -12q-50 -50 -64 -78t-14 -49q0 -28 15.5 -39.5t34.5 -11.5q17 0 31.5 7t24.5 14l22 -35q-22 -17 -48 -28t-53 -11q-50 0 -78 24.5
t-28 65.5q0 34 21 65.5t67 71.5l19 16h-128z" />
    <glyph glyph-name="Idotaccent" unicode="&#x130;" horiz-adv-x="405" 
d="M40 0v66h111v526h-111v66h325v-66h-111v-526h111v-66h-325zM202 745q-28 0 -45 17.5t-17 45.5q0 26 18 45t44 19q28 0 45 -18t17 -46q0 -26 -18 -44.5t-44 -18.5z" />
    <glyph glyph-name="dotlessi" unicode="&#x131;" horiz-adv-x="316" 
d="M40 0v66h83v326h-83v66h177v-392h83v-66h-260z" />
    <glyph glyph-name="uni0136" unicode="&#x136;" horiz-adv-x="724" 
d="M30 0v66h111v526h-111v66h309v-66h-95v-279l267 279h-86v66h262v-66h-83l-207 -207l236 -319h83v-66h-292v66h84l-179 251l-85 -85v-166h95v-66h-309zM310 -316l-17 32q43 21 64.5 46.5t24.5 51.5l-5 3q-4 -4 -11 -6t-15 -2q-18 0 -32.5 15t-14.5 37q0 25 17.5 43.5
t42.5 18.5q32 0 51 -22t19 -56q0 -49 -27 -89.5t-97 -71.5z" />
    <glyph glyph-name="uni0137" unicode="&#x137;" horiz-adv-x="541" 
d="M23 0v66h73v549h-73v72h167v-468l166 173h-75v66h224v-66h-69l-121 -121l158 -205h54v-66h-217v66h57l-111 150l-66 -65v-85h57v-66h-224zM205 -316l-17 32q43 21 64.5 46.5t24.5 51.5l-5 3q-4 -4 -11 -6t-15 -2q-18 0 -32.5 15t-14.5 37q0 25 17.5 43.5t42.5 18.5
q32 0 51 -22t19 -56q0 -49 -27 -89.5t-97 -71.5z" />
    <glyph glyph-name="Lacute" unicode="&#x139;" horiz-adv-x="610" 
d="M30 0v66h111v526h-111v66h325v-66h-111v-526h138q30 0 50 5t35 23.5t28.5 54.5t32.5 96h48v-245h-546zM164 741l48 124q14 37 29 55.5t37 18.5q17 0 29.5 -13t12.5 -30q0 -14 -9 -30t-31 -44l-66 -81h-50z" />
    <glyph glyph-name="lacute" unicode="&#x13a;" horiz-adv-x="298" 
d="M19 0v66h83v549h-83v72h177v-621h83v-66h-260zM105 762l48 124q14 37 29 55.5t37 18.5q17 0 29.5 -13t12.5 -30q0 -14 -9 -30t-31 -44l-66 -81h-50z" />
    <glyph glyph-name="uni013B" unicode="&#x13b;" horiz-adv-x="610" 
d="M30 0v66h111v526h-111v66h325v-66h-111v-526h138q30 0 50 5t35 23.5t28.5 54.5t32.5 96h48v-245h-546zM253 -316l-17 32q43 21 64.5 46.5t24.5 51.5l-5 3q-4 -4 -11 -6t-15 -2q-18 0 -32.5 15t-14.5 37q0 25 17.5 43.5t42.5 18.5q32 0 51 -22t19 -56q0 -49 -27 -89.5
t-97 -71.5z" />
    <glyph glyph-name="uni013C" unicode="&#x13c;" horiz-adv-x="298" 
d="M19 0v66h83v549h-83v72h177v-621h83v-66h-260zM91 -316l-17 32q43 21 64.5 46.5t24.5 51.5l-5 3q-4 -4 -11 -6t-15 -2q-18 0 -32.5 15t-14.5 37q0 25 17.5 43.5t42.5 18.5q32 0 51 -22t19 -56q0 -49 -27 -89.5t-97 -71.5z" />
    <glyph glyph-name="Lcaron" unicode="&#x13d;" horiz-adv-x="610" 
d="M30 0v66h111v526h-111v66h325v-66h-111v-526h138q30 0 50 5t35 23.5t28.5 54.5t32.5 96h48v-245h-546zM425 494l-4 144q-1 43 11.5 63.5t37.5 20.5q19 0 30.5 -13.5t11.5 -35.5q0 -11 -3 -25t-9 -36l-34 -118h-41z" />
    <glyph glyph-name="lcaron" unicode="&#x13e;" horiz-adv-x="298" 
d="M19 0v66h83v549h-83v72h177v-621h83v-66h-260zM271 523l-4 144q-1 43 11.5 63.5t37.5 20.5q19 0 30.5 -13.5t11.5 -35.5q0 -11 -3 -25t-9 -36l-34 -118h-41z" />
    <glyph glyph-name="Ldot" unicode="&#x13f;" horiz-adv-x="610" 
d="M30 0v66h111v526h-111v66h325v-66h-111v-526h138q30 0 50 4.5t35 21.5t28.5 50.5t32.5 90.5h48v-233h-546zM474 299q-28 0 -45 17.5t-17 45.5q0 26 18 45t44 19q28 0 45 -18t17 -46q0 -26 -18 -44.5t-44 -18.5z" />
    <glyph glyph-name="ldot" unicode="&#x140;" horiz-adv-x="356" 
d="M19 0v66h83v549h-83v72h177v-621h83v-66h-260zM327 287q-27 0 -43.5 17t-16.5 44q0 25 17.5 43.5t42.5 18.5q27 0 43.5 -17.5t16.5 -44.5q0 -25 -17.5 -43t-42.5 -18z" />
    <glyph glyph-name="Lslash" unicode="&#x141;" horiz-adv-x="610" 
d="M30 0v66h111v212l-87 -29v64l87 29v250h-111v66h325v-66h-111v-216l168 56v-62l-168 -57v-247h138q30 0 50 5t35 23.5t28.5 54.5t32.5 96h48v-245h-546z" />
    <glyph glyph-name="lslash" unicode="&#x142;" horiz-adv-x="314" 
d="M27 0v66h83v239l-89 -30v60l89 30v250h-83v72h177v-290l95 32v-60l-95 -32v-271h83v-66h-260z" />
    <glyph glyph-name="Nacute" unicode="&#x143;" horiz-adv-x="792" 
d="M591 -16l-372 541h-9v-459h104v-66h-279v66h101v526h-101v66h218l331 -480h9v414h-104v66h279v-66h-101v-608h-76zM364 741l48 124q14 37 29 55.5t37 18.5q17 0 29.5 -13t12.5 -30q0 -14 -9 -30t-31 -44l-66 -81h-50z" />
    <glyph glyph-name="nacute" unicode="&#x144;" horiz-adv-x="582" 
d="M35 0v66h73v326h-73v66h165v-116q39 64 81 93t91 29q54 0 88 -38t34 -105v-255h73v-66h-234v66h67v221q0 25 -6 46t-19 34q-10 10 -23.5 15t-30.5 5q-21 0 -42.5 -10t-38 -29t-27.5 -46.5t-11 -61.5v-174h67v-66h-234zM270 533l48 124q14 37 29 55.5t37 18.5
q17 0 29.5 -13t12.5 -30q0 -14 -9 -30t-31 -44l-66 -81h-50z" />
    <glyph glyph-name="uni0145" unicode="&#x145;" horiz-adv-x="792" 
d="M591 -16l-372 541h-9v-459h104v-66h-279v66h101v526h-101v66h218l331 -480h9v414h-104v66h279v-66h-101v-608h-76zM335 -316l-17 32q43 21 64.5 46.5t24.5 51.5l-5 3q-4 -4 -11 -6t-15 -2q-18 0 -32.5 15t-14.5 37q0 25 17.5 43.5t42.5 18.5q32 0 51 -22t19 -56
q0 -49 -27 -89.5t-97 -71.5z" />
    <glyph glyph-name="uni0146" unicode="&#x146;" horiz-adv-x="582" 
d="M35 0v66h73v326h-73v66h165v-116q39 64 81 93t91 29q54 0 88 -38t34 -105v-255h73v-66h-234v66h67v221q0 25 -6 46t-19 34q-10 10 -23.5 15t-30.5 5q-21 0 -42.5 -10t-38 -29t-27.5 -46.5t-11 -61.5v-174h67v-66h-234zM243 -316l-17 32q43 21 64.5 46.5t24.5 51.5l-5 3
q-4 -4 -11 -6t-15 -2q-18 0 -32.5 15t-14.5 37q0 25 17.5 43.5t42.5 18.5q32 0 51 -22t19 -56q0 -49 -27 -89.5t-97 -71.5z" />
    <glyph glyph-name="Ncaron" unicode="&#x147;" horiz-adv-x="792" 
d="M591 -16l-372 541h-9v-459h104v-66h-279v66h101v526h-101v66h218l331 -480h9v414h-104v66h279v-66h-101v-608h-76zM378 751l-111 183h49l83 -93l82 93h49l-111 -183h-41z" />
    <glyph glyph-name="ncaron" unicode="&#x148;" horiz-adv-x="582" 
d="M35 0v66h73v326h-73v66h165v-116q39 64 81 93t91 29q54 0 88 -38t34 -105v-255h73v-66h-234v66h67v221q0 25 -6 46t-19 34q-10 10 -23.5 15t-30.5 5q-21 0 -42.5 -10t-38 -29t-27.5 -46.5t-11 -61.5v-174h67v-66h-234zM284 543l-111 183h49l83 -93l82 93h49l-111 -183
h-41z" />
    <glyph glyph-name="Omacron" unicode="&#x14c;" horiz-adv-x="720" 
d="M360 -16q-67 0 -126 26t-102.5 71.5t-68.5 109t-25 138.5q0 73 26 136.5t70 109.5t102.5 72.5t123.5 26.5q67 0 126 -25.5t102.5 -71t68.5 -109.5t25 -139q0 -74 -26 -137t-70 -109t-102.5 -72.5t-123.5 -26.5zM360 50q98 0 150 74t52 205t-52 205t-150 74t-150 -74.5
t-52 -204.5t52 -204.5t150 -74.5zM234 758v75h251v-75h-251z" />
    <glyph glyph-name="omacron" unicode="&#x14d;" horiz-adv-x="529" 
d="M265 -9q-107 0 -168 66t-61 170q0 52 16.5 96t46.5 75.5t72.5 49.5t93.5 18q105 0 166.5 -65.5t61.5 -169.5q0 -52 -16.5 -96.5t-46.5 -76t-72 -49.5t-93 -18zM269 45q58 0 89 45t31 139t-34.5 138.5t-94.5 44.5q-59 0 -89.5 -44.5t-30.5 -138.5t34.5 -139t94.5 -45z
M138 550v75h251v-75h-251z" />
    <glyph glyph-name="Obreve" unicode="&#x14e;" horiz-adv-x="720" 
d="M360 -16q-67 0 -126 26t-102.5 71.5t-68.5 109t-25 138.5q0 73 26 136.5t70 109.5t102.5 72.5t123.5 26.5q67 0 126 -25.5t102.5 -71t68.5 -109.5t25 -139q0 -74 -26 -137t-70 -109t-102.5 -72.5t-123.5 -26.5zM360 50q98 0 150 74t52 205t-52 205t-150 74t-150 -74.5
t-52 -204.5t52 -204.5t150 -74.5zM360 748q-60 0 -97.5 41.5t-41.5 115.5h41q12 -40 35 -63.5t63 -23.5t62 23.5t34 63.5h41q-2 -74 -39.5 -115.5t-97.5 -41.5z" />
    <glyph glyph-name="obreve" unicode="&#x14f;" horiz-adv-x="529" 
d="M265 -9q-107 0 -168 66t-61 170q0 52 16.5 96t46.5 75.5t72.5 49.5t93.5 18q105 0 166.5 -65.5t61.5 -169.5q0 -52 -16.5 -96.5t-46.5 -76t-72 -49.5t-93 -18zM269 45q58 0 89 45t31 139t-34.5 138.5t-94.5 44.5q-59 0 -89.5 -44.5t-30.5 -138.5t34.5 -139t94.5 -45z
M264 540q-60 0 -97.5 41.5t-41.5 115.5h41q12 -40 35 -63.5t63 -23.5t62 23.5t34 63.5h41q-2 -74 -39.5 -115.5t-97.5 -41.5z" />
    <glyph glyph-name="Ohungarumlaut" unicode="&#x150;" horiz-adv-x="720" 
d="M360 -16q-67 0 -126 26t-102.5 71.5t-68.5 109t-25 138.5q0 73 26 136.5t70 109.5t102.5 72.5t123.5 26.5q67 0 126 -25.5t102.5 -71t68.5 -109.5t25 -139q0 -74 -26 -137t-70 -109t-102.5 -72.5t-123.5 -26.5zM360 50q98 0 150 74t52 205t-52 205t-150 74t-150 -74.5
t-52 -204.5t52 -204.5t150 -74.5zM261 741l52 124q16 37 31.5 55.5t37.5 18.5q17 0 28.5 -12t11.5 -29q0 -14 -9.5 -31t-32.5 -45l-69 -81h-50zM411 741l52 124q16 37 31.5 55.5t37.5 18.5q17 0 28.5 -12t11.5 -29q0 -14 -9.5 -31t-32.5 -45l-69 -81h-50z" />
    <glyph glyph-name="ohungarumlaut" unicode="&#x151;" horiz-adv-x="529" 
d="M265 -9q-107 0 -168 66t-61 170q0 52 16.5 96t46.5 75.5t72.5 49.5t93.5 18q105 0 166.5 -65.5t61.5 -169.5q0 -52 -16.5 -96.5t-46.5 -76t-72 -49.5t-93 -18zM269 45q58 0 89 45t31 139t-34.5 138.5t-94.5 44.5q-59 0 -89.5 -44.5t-30.5 -138.5t34.5 -139t94.5 -45z
M165 533l52 124q16 37 31.5 55.5t37.5 18.5q17 0 28.5 -12t11.5 -29q0 -14 -9.5 -31t-32.5 -45l-69 -81h-50zM315 533l52 124q16 37 31.5 55.5t37.5 18.5q17 0 28.5 -12t11.5 -29q0 -14 -9.5 -31t-32.5 -45l-69 -81h-50z" />
    <glyph glyph-name="OE" unicode="&#x152;" horiz-adv-x="1015" 
d="M410 0q-92 0 -162 23.5t-116.5 65.5t-70 100.5t-23.5 129.5q0 68 21.5 129.5t65.5 108t113 74t163 27.5h548v-214h-48q-13 44 -23.5 73t-23 45.5t-30 23t-46.5 6.5h-197v-226h69q28 0 44.5 3t27 13.5t17 30.5t13.5 54h53v-262h-53q-6 35 -12.5 56t-17 32t-27.5 14t-45 3
h-69v-244h193q33 0 53 7t34 25.5t24.5 51.5t24.5 84h48v-234h-548zM410 66h68v526h-78q-125 0 -183.5 -62t-58.5 -211q0 -131 60 -192t192 -61z" />
    <glyph glyph-name="oe" unicode="&#x153;" horiz-adv-x="840" 
d="M265 -9q-107 0 -168 66t-61 170q0 52 16.5 96t46.5 75.5t72.5 49.5t93.5 18q60 0 104.5 -23.5t72.5 -65.5q29 42 72 65.5t97 23.5q51 0 88.5 -21t61.5 -55t35 -78t10 -89h-316q2 -84 38 -126.5t102 -42.5q42 0 73.5 19.5t52.5 65.5h48q-19 -73 -71.5 -110.5t-127.5 -37.5
q-58 0 -100.5 24t-67.5 64q-28 -40 -71.5 -64t-100.5 -24zM491 270h219q-5 63 -29.5 103t-76.5 40q-47 0 -77 -33t-36 -110zM269 45q58 0 89 45t31 139t-34.5 138.5t-94.5 44.5q-59 0 -89.5 -44.5t-30.5 -138.5t34.5 -139t94.5 -45z" />
    <glyph glyph-name="Racute" unicode="&#x154;" horiz-adv-x="685" 
d="M589 -11q-44 0 -80 25t-37 93l-2 80q-1 51 -21 77t-91 26h-114v-224h108v-66h-322v66h111v526h-111v66h322q75 0 124.5 -15t78.5 -39.5t40.5 -55t11.5 -61.5q0 -51 -36 -97.5t-131 -62.5v-9q76 -16 104.5 -53t32.5 -88l6 -73q2 -25 9.5 -35t20.5 -10q12 0 22 10t22 32
l44 -21q-16 -41 -44 -66t-68 -25zM244 350h106q80 0 109.5 34.5t29.5 94.5q0 54 -28 83.5t-99 29.5h-118v-242zM319 741l48 124q14 37 29 55.5t37 18.5q17 0 29.5 -13t12.5 -30q0 -14 -9 -30t-31 -44l-66 -81h-50z" />
    <glyph glyph-name="racute" unicode="&#x155;" horiz-adv-x="422" 
d="M35 0v66h73v326h-73v66h165v-106q17 57 56.5 84.5t78.5 27.5q38 0 59 -23t21 -55q0 -26 -17.5 -45.5t-42.5 -19.5q-26 0 -44.5 15.5t-18.5 43.5q0 4 0.5 8.5t1.5 8.5q-34 1 -57 -31.5t-35 -77.5v-222h87v-66h-254zM199 533l48 124q14 37 29 55.5t37 18.5q17 0 29.5 -13
t12.5 -30q0 -14 -9 -30t-31 -44l-66 -81h-50z" />
    <glyph glyph-name="uni0156" unicode="&#x156;" horiz-adv-x="685" 
d="M589 -11q-44 0 -80 25t-37 93l-2 80q-1 51 -21 77t-91 26h-114v-224h108v-66h-322v66h111v526h-111v66h322q75 0 124.5 -15t78.5 -39.5t40.5 -55t11.5 -61.5q0 -51 -36 -97.5t-131 -62.5v-9q76 -16 104.5 -53t32.5 -88l6 -73q2 -25 9.5 -35t20.5 -10q12 0 22 10t22 32
l44 -21q-16 -41 -44 -66t-68 -25zM244 350h106q80 0 109.5 34.5t29.5 94.5q0 54 -28 83.5t-99 29.5h-118v-242zM305 -316l-17 32q43 21 64.5 46.5t24.5 51.5l-5 3q-4 -4 -11 -6t-15 -2q-18 0 -32.5 15t-14.5 37q0 25 17.5 43.5t42.5 18.5q32 0 51 -22t19 -56
q0 -49 -27 -89.5t-97 -71.5z" />
    <glyph glyph-name="uni0157" unicode="&#x157;" horiz-adv-x="422" 
d="M35 0v66h73v326h-73v66h165v-106q17 57 56.5 84.5t78.5 27.5q38 0 59 -23t21 -55q0 -26 -17.5 -45.5t-42.5 -19.5q-26 0 -44.5 15.5t-18.5 43.5q0 4 0.5 8.5t1.5 8.5q-34 1 -57 -31.5t-35 -77.5v-222h87v-66h-254zM100 -316l-17 32q43 21 64.5 46.5t24.5 51.5l-5 3
q-4 -4 -11 -6t-15 -2q-18 0 -32.5 15t-14.5 37q0 25 17.5 43.5t42.5 18.5q32 0 51 -22t19 -56q0 -49 -27 -89.5t-97 -71.5z" />
    <glyph glyph-name="Rcaron" unicode="&#x158;" horiz-adv-x="685" 
d="M589 -11q-44 0 -80 25t-37 93l-2 80q-1 51 -21 77t-91 26h-114v-224h108v-66h-322v66h111v526h-111v66h322q75 0 124.5 -15t78.5 -39.5t40.5 -55t11.5 -61.5q0 -51 -36 -97.5t-131 -62.5v-9q76 -16 104.5 -53t32.5 -88l6 -73q2 -25 9.5 -35t20.5 -10q12 0 22 10t22 32
l44 -21q-16 -41 -44 -66t-68 -25zM244 350h106q80 0 109.5 34.5t29.5 94.5q0 54 -28 83.5t-99 29.5h-118v-242zM333 751l-111 183h49l83 -93l82 93h49l-111 -183h-41z" />
    <glyph glyph-name="rcaron" unicode="&#x159;" horiz-adv-x="422" 
d="M35 0v66h73v326h-73v66h165v-106q17 57 56.5 84.5t78.5 27.5q38 0 59 -23t21 -55q0 -26 -17.5 -45.5t-42.5 -19.5q-26 0 -44.5 15.5t-18.5 43.5q0 4 0.5 8.5t1.5 8.5q-34 1 -57 -31.5t-35 -77.5v-222h87v-66h-254zM213 543l-111 183h49l83 -93l82 93h49l-111 -183h-41z
" />
    <glyph glyph-name="Sacute" unicode="&#x15a;" horiz-adv-x="585" 
d="M326 -16q-55 0 -104 19t-79 53l-24 -69h-66v238h60q27 -50 50.5 -84.5t48 -55.5t51.5 -30t62 -9q58 0 91.5 29t33.5 80q0 30 -14.5 50.5t-39 34.5t-56 24t-65.5 20q-38 11 -76.5 24.5t-68.5 35.5t-49 55.5t-19 83.5q0 37 15 71.5t42 61t65 42.5t85 16q42 0 88 -18t74 -52
l21 67h66v-228h-60q-46 97 -92 133t-102 36q-48 0 -76 -27.5t-28 -72.5q0 -33 15 -55t40 -36.5t58 -23.5t67 -18q38 -10 75 -22t66.5 -32.5t48 -52.5t18.5 -82q0 -43 -17 -80.5t-46 -65.5t-70 -44t-89 -16zM264 741l48 124q14 37 29 55.5t37 18.5q17 0 29.5 -13t12.5 -30
q0 -14 -9 -30t-31 -44l-66 -81h-50z" />
    <glyph glyph-name="sacute" unicode="&#x15b;" horiz-adv-x="442" 
d="M45 -9v173h61q19 -54 58.5 -89t87.5 -35q40 0 58.5 18t18.5 46q0 30 -27 47.5t-94 36.5q-82 23 -118.5 55.5t-36.5 86.5q0 55 44 95.5t114 40.5q35 0 65 -13.5t46 -39.5l10 53h59v-157h-60q-23 50 -49.5 79t-72.5 29q-26 0 -48.5 -15t-22.5 -43q0 -30 28 -48.5t89 -34.5
q79 -22 117.5 -52.5t38.5 -88.5q0 -26 -11 -51.5t-32 -46t-52 -33.5t-69 -13q-43 0 -77 16.5t-56 43.5l-11 -60h-58zM189 533l48 124q14 37 29 55.5t37 18.5q17 0 29.5 -13t12.5 -30q0 -14 -9 -30t-31 -44l-66 -81h-50z" />
    <glyph glyph-name="Scedilla" unicode="&#x15e;" horiz-adv-x="585" 
d="M285 -243q-25 0 -53 8t-52 24l22 36q19 -12 36 -16.5t34 -4.5q28 0 41.5 9.5t13.5 27.5q0 19 -19.5 31t-50.5 12q-9 0 -17 -1t-17 -3l-16 22l80 84q-44 6 -81.5 24t-62.5 46l-24 -69h-66v238h60q27 -50 50.5 -84.5t48 -55.5t51.5 -30t62 -9q58 0 91.5 29t33.5 80
q0 30 -14.5 50.5t-39 34.5t-56 24t-65.5 20q-38 11 -76.5 24.5t-68.5 35.5t-49 55.5t-19 83.5q0 37 15 71.5t42 61t65 42.5t85 16q42 0 88 -18t74 -52l21 67h66v-228h-60q-46 97 -92 133t-102 36q-48 0 -76 -27.5t-28 -72.5q0 -33 15 -55t40 -36.5t58 -23.5t67 -18
q38 -10 75 -22t66.5 -32.5t48 -52.5t18.5 -82q0 -41 -15.5 -77.5t-42.5 -64t-65 -44.5t-83 -20l-49 -49l1 -4q49 -4 75 -27t26 -54q0 -43 -31 -68t-79 -25z" />
    <glyph glyph-name="scedilla" unicode="&#x15f;" horiz-adv-x="442" 
d="M45 -9v173h61q19 -54 58.5 -89t87.5 -35q40 0 58.5 18t18.5 46q0 30 -27 47.5t-94 36.5q-82 23 -118.5 55.5t-36.5 86.5q0 55 44 95.5t114 40.5q35 0 65 -13.5t46 -39.5l10 53h59v-157h-60q-23 50 -49.5 79t-72.5 29q-26 0 -48.5 -15t-22.5 -43q0 -30 28 -48.5t89 -34.5
q79 -22 117.5 -52.5t38.5 -88.5q0 -46 -35 -89t-97 -53l-58 -58l1 -4q49 -4 75 -27t26 -54q0 -43 -31 -68t-79 -25q-25 0 -53 8t-52 24l22 36q19 -12 36 -16.5t34 -4.5q28 0 41.5 9.5t13.5 27.5q0 19 -19.5 31t-50.5 12q-9 0 -17 -1t-17 -3l-16 22l86 91q-34 4 -61 20
t-46 38l-11 -60h-58z" />
    <glyph glyph-name="Scaron" unicode="&#x160;" horiz-adv-x="585" 
d="M326 -16q-55 0 -104 19t-79 53l-24 -69h-66v238h60q27 -50 50.5 -84.5t48 -55.5t51.5 -30t62 -9q58 0 91.5 29t33.5 80q0 30 -14.5 50.5t-39 34.5t-56 24t-65.5 20q-38 11 -76.5 24.5t-68.5 35.5t-49 55.5t-19 83.5q0 37 15 71.5t42 61t65 42.5t85 16q42 0 88 -18t74 -52
l21 67h66v-228h-60q-46 97 -92 133t-102 36q-48 0 -76 -27.5t-28 -72.5q0 -33 15 -55t40 -36.5t58 -23.5t67 -18q38 -10 75 -22t66.5 -32.5t48 -52.5t18.5 -82q0 -43 -17 -80.5t-46 -65.5t-70 -44t-89 -16zM278 751l-111 183h49l83 -93l82 93h49l-111 -183h-41z" />
    <glyph glyph-name="scaron" unicode="&#x161;" horiz-adv-x="442" 
d="M45 -9v173h61q19 -54 58.5 -89t87.5 -35q40 0 58.5 18t18.5 46q0 30 -27 47.5t-94 36.5q-82 23 -118.5 55.5t-36.5 86.5q0 55 44 95.5t114 40.5q35 0 65 -13.5t46 -39.5l10 53h59v-157h-60q-23 50 -49.5 79t-72.5 29q-26 0 -48.5 -15t-22.5 -43q0 -30 28 -48.5t89 -34.5
q79 -22 117.5 -52.5t38.5 -88.5q0 -26 -11 -51.5t-32 -46t-52 -33.5t-69 -13q-43 0 -77 16.5t-56 43.5l-11 -60h-58zM203 543l-111 183h49l83 -93l82 93h49l-111 -183h-41z" />
    <glyph glyph-name="uni0162" unicode="&#x162;" horiz-adv-x="677" 
d="M171 0v66h116v536h-44q-33 0 -54.5 -7t-38 -26t-31 -54t-32.5 -91h-47v234h597v-234h-47q-18 56 -32.5 91t-31 54t-38 26t-54.5 7h-44v-536h116v-66h-335zM278 -316l-17 32q43 21 64.5 46.5t24.5 51.5l-5 3q-4 -4 -11 -6t-15 -2q-18 0 -32.5 15t-14.5 37q0 25 17.5 43.5
t42.5 18.5q32 0 51 -22t19 -56q0 -49 -27 -89.5t-97 -71.5z" />
    <glyph glyph-name="uni0162" unicode="&#x21a;" horiz-adv-x="677" 
d="M171 0v66h116v536h-44q-33 0 -54.5 -7t-38 -26t-31 -54t-32.5 -91h-47v234h597v-234h-47q-18 56 -32.5 91t-31 54t-38 26t-54.5 7h-44v-536h116v-66h-335zM278 -316l-17 32q43 21 64.5 46.5t24.5 51.5l-5 3q-4 -4 -11 -6t-15 -2q-18 0 -32.5 15t-14.5 37q0 25 17.5 43.5
t42.5 18.5q32 0 51 -22t19 -56q0 -49 -27 -89.5t-97 -71.5z" />
    <glyph glyph-name="uni0163" unicode="&#x163;" horiz-adv-x="362" 
d="M217 -9q-60 0 -90.5 33t-30.5 89v279h-90v66h90v109l94 10v-119h150v-66h-150v-270q0 -34 12 -50.5t43 -16.5q21 0 38 19.5t32 59.5l45 -19q-19 -66 -57 -95t-86 -29zM140 -316l-17 32q43 21 64.5 46.5t24.5 51.5l-5 3q-4 -4 -11 -6t-15 -2q-18 0 -32.5 15t-14.5 37
q0 25 17.5 43.5t42.5 18.5q32 0 51 -22t19 -56q0 -49 -27 -89.5t-97 -71.5z" />
    <glyph glyph-name="uni0163" unicode="&#x21b;" horiz-adv-x="362" 
d="M217 -9q-60 0 -90.5 33t-30.5 89v279h-90v66h90v109l94 10v-119h150v-66h-150v-270q0 -34 12 -50.5t43 -16.5q21 0 38 19.5t32 59.5l45 -19q-19 -66 -57 -95t-86 -29zM140 -316l-17 32q43 21 64.5 46.5t24.5 51.5l-5 3q-4 -4 -11 -6t-15 -2q-18 0 -32.5 15t-14.5 37
q0 25 17.5 43.5t42.5 18.5q32 0 51 -22t19 -56q0 -49 -27 -89.5t-97 -71.5z" />
    <glyph glyph-name="Tcaron" unicode="&#x164;" horiz-adv-x="677" 
d="M171 0v66h116v536h-44q-33 0 -54.5 -7t-38 -26t-31 -54t-32.5 -91h-47v234h597v-234h-47q-18 56 -32.5 91t-31 54t-38 26t-54.5 7h-44v-536h116v-66h-335zM321 751l-111 183h49l83 -93l82 93h49l-111 -183h-41z" />
    <glyph glyph-name="tcaron" unicode="&#x165;" horiz-adv-x="362" 
d="M217 -9q-60 0 -90.5 33t-30.5 89v279h-90v66h90v109l94 10v-119h150v-66h-150v-270q0 -34 12 -50.5t43 -16.5q21 0 38 19.5t32 59.5l45 -19q-19 -66 -57 -95t-86 -29zM265 523l-4 144q-1 43 11.5 63.5t37.5 20.5q19 0 30.5 -13.5t11.5 -35.5q0 -11 -3 -25t-9 -36
l-34 -118h-41z" />
    <glyph glyph-name="Umacron" unicode="&#x16a;" horiz-adv-x="751" 
d="M374 -16q-125 0 -191.5 60.5t-66.5 154.5v393h-96v66h297v-66h-98v-360q0 -95 47.5 -135.5t138.5 -40.5q40 0 68.5 12.5t50.5 34.5q25 25 33 61t8 92v336h-103v66h271v-66h-94v-393q0 -42 -17.5 -81t-50.5 -68.5t-83 -47.5t-114 -18zM261 758v75h251v-75h-251z" />
    <glyph glyph-name="umacron" unicode="&#x16b;" horiz-adv-x="565" 
d="M211 -6q-54 0 -86.5 38t-32.5 105v255h-73v66h167v-287q0 -26 5.5 -47t18.5 -34q9 -9 22 -14t30 -5q21 0 42.5 10t38 29t27.5 46.5t11 61.5v174h-76v66h170v-392h73v-66h-165v116q-39 -64 -81 -93t-91 -29zM157 550v75h251v-75h-251z" />
    <glyph glyph-name="Ubreve" unicode="&#x16c;" horiz-adv-x="751" 
d="M374 -16q-125 0 -191.5 60.5t-66.5 154.5v393h-96v66h297v-66h-98v-360q0 -95 47.5 -135.5t138.5 -40.5q40 0 68.5 12.5t50.5 34.5q25 25 33 61t8 92v336h-103v66h271v-66h-94v-393q0 -42 -17.5 -81t-50.5 -68.5t-83 -47.5t-114 -18zM387 748q-60 0 -97.5 41.5
t-41.5 115.5h41q12 -40 35 -63.5t63 -23.5t62 23.5t34 63.5h41q-2 -74 -39.5 -115.5t-97.5 -41.5z" />
    <glyph glyph-name="ubreve" unicode="&#x16d;" horiz-adv-x="565" 
d="M211 -6q-54 0 -86.5 38t-32.5 105v255h-73v66h167v-287q0 -26 5.5 -47t18.5 -34q9 -9 22 -14t30 -5q21 0 42.5 10t38 29t27.5 46.5t11 61.5v174h-76v66h170v-392h73v-66h-165v116q-39 -64 -81 -93t-91 -29zM283 540q-60 0 -97.5 41.5t-41.5 115.5h41q12 -40 35 -63.5
t63 -23.5t62 23.5t34 63.5h41q-2 -74 -39.5 -115.5t-97.5 -41.5z" />
    <glyph glyph-name="Uring" unicode="&#x16e;" horiz-adv-x="751" 
d="M374 -16q-125 0 -191.5 60.5t-66.5 154.5v393h-96v66h297v-66h-98v-360q0 -95 47.5 -135.5t138.5 -40.5q40 0 68.5 12.5t50.5 34.5q25 25 33 61t8 92v336h-103v66h271v-66h-94v-393q0 -42 -17.5 -81t-50.5 -68.5t-83 -47.5t-114 -18zM387 735q-52 0 -78.5 30.5
t-26.5 71.5t26.5 71.5t78.5 30.5q51 0 78 -30.5t27 -71.5t-27 -71.5t-78 -30.5zM387 770q27 0 41.5 19.5t14.5 47.5t-14.5 47.5t-41.5 19.5q-26 0 -41 -19.5t-15 -47.5t15 -47.5t41 -19.5z" />
    <glyph glyph-name="uring" unicode="&#x16f;" horiz-adv-x="565" 
d="M211 -6q-54 0 -86.5 38t-32.5 105v255h-73v66h167v-287q0 -26 5.5 -47t18.5 -34q9 -9 22 -14t30 -5q21 0 42.5 10t38 29t27.5 46.5t11 61.5v174h-76v66h170v-392h73v-66h-165v116q-39 -64 -81 -93t-91 -29zM283 527q-52 0 -78.5 30.5t-26.5 71.5t26.5 71.5t78.5 30.5
q51 0 78 -30.5t27 -71.5t-27 -71.5t-78 -30.5zM283 562q27 0 41.5 19.5t14.5 47.5t-14.5 47.5t-41.5 19.5q-26 0 -41 -19.5t-15 -47.5t15 -47.5t41 -19.5z" />
    <glyph glyph-name="Uhungarumlaut" unicode="&#x170;" horiz-adv-x="751" 
d="M374 -16q-125 0 -191.5 60.5t-66.5 154.5v393h-96v66h297v-66h-98v-360q0 -95 47.5 -135.5t138.5 -40.5q40 0 68.5 12.5t50.5 34.5q25 25 33 61t8 92v336h-103v66h271v-66h-94v-393q0 -42 -17.5 -81t-50.5 -68.5t-83 -47.5t-114 -18zM288 741l52 124q16 37 31.5 55.5
t37.5 18.5q17 0 28.5 -12t11.5 -29q0 -14 -9.5 -31t-32.5 -45l-69 -81h-50zM438 741l52 124q16 37 31.5 55.5t37.5 18.5q17 0 28.5 -12t11.5 -29q0 -14 -9.5 -31t-32.5 -45l-69 -81h-50z" />
    <glyph glyph-name="uhungarumlaut" unicode="&#x171;" horiz-adv-x="565" 
d="M211 -6q-54 0 -86.5 38t-32.5 105v255h-73v66h167v-287q0 -26 5.5 -47t18.5 -34q9 -9 22 -14t30 -5q21 0 42.5 10t38 29t27.5 46.5t11 61.5v174h-76v66h170v-392h73v-66h-165v116q-39 -64 -81 -93t-91 -29zM184 533l52 124q16 37 31.5 55.5t37.5 18.5q17 0 28.5 -12
t11.5 -29q0 -14 -9.5 -31t-32.5 -45l-69 -81h-50zM334 533l52 124q16 37 31.5 55.5t37.5 18.5q17 0 28.5 -12t11.5 -29q0 -14 -9.5 -31t-32.5 -45l-69 -81h-50z" />
    <glyph glyph-name="Uogonek" unicode="&#x172;" horiz-adv-x="751" 
d="M373 -243q-50 0 -78 24.5t-28 65.5q0 34 21 65.5t67 71.5v0q-116 5 -177.5 65t-61.5 150v393h-96v66h297v-66h-98v-360q0 -95 47.5 -135.5t138.5 -40.5q40 0 68.5 12.5t50.5 34.5q25 25 33 61t8 92v336h-103v66h271v-66h-94v-393q0 -38 -14 -73.5t-41 -64t-67.5 -48.5
t-93.5 -26q-49 -49 -63 -77t-14 -49q0 -28 15.5 -39.5t34.5 -11.5q17 0 31.5 7t24.5 14l22 -35q-22 -17 -48 -28t-53 -11z" />
    <glyph glyph-name="uogonek" unicode="&#x173;" horiz-adv-x="565" 
d="M211 -6q-54 0 -86.5 38t-32.5 105v255h-73v66h167v-287q0 -26 5.5 -47t18.5 -34q9 -9 22 -14t30 -5q21 0 42.5 10t38 29t27.5 46.5t11 61.5v174h-76v66h170v-392h73v-66h-35l-12 -12q-50 -50 -64 -78t-14 -49q0 -28 15.5 -39.5t34.5 -11.5q17 0 31.5 7t24.5 14l22 -35
q-22 -17 -48 -28t-53 -11q-50 0 -78 24.5t-28 65.5q0 34 21 65.5t67 71.5l19 16h-68v116q-39 -64 -81 -93t-91 -29z" />
    <glyph glyph-name="Wcircumflex" unicode="&#x174;" horiz-adv-x="992" 
d="M265 -4l-187 596h-91v66h310v-66h-106l141 -474h9l138 410l-18 64h-91v66h317v-66h-117l127 -474h9l145 474h-83v66h231v-66h-71l-198 -596h-101l-117 425l-147 -425h-100zM388 742l111 183h41l111 -183h-49l-83 93l-82 -93h-49z" />
    <glyph glyph-name="wcircumflex" unicode="&#x175;" horiz-adv-x="767" 
d="M199 -6l-135 398h-64v66h235v-66h-75l98 -310h4l101 252l-20 58h-62v66h238v-66h-84l103 -310h4l97 310h-65v66h193v-66h-58l-138 -398h-92l-87 257l-105 -257h-88zM263 534l111 183h41l111 -183h-49l-83 93l-82 -93h-49z" />
    <glyph glyph-name="Ycircumflex" unicode="&#x176;" horiz-adv-x="647" 
d="M174 0v66h99v208l-181 318h-82v66h289v-66h-90l140 -258l149 258h-84v66h232v-66h-77l-193 -317v-209h101v-66h-303zM213 742l111 183h41l111 -183h-49l-83 93l-82 -93h-49z" />
    <glyph glyph-name="ycircumflex" unicode="&#x177;" horiz-adv-x="506" 
d="M107 -167q-44 0 -70 21.5t-26 57.5q0 25 18 45t45 20q28 0 43.5 -18t15.5 -40q0 -8 -2.5 -17.5t-4.5 -13.5q29 6 50.5 28.5t46.5 86.5q-15 37 -42 103t-53 129t-45 110l-19 47h-64v66h242v-66h-78l107 -288l113 288h-64v66h193v-66h-59l-159 -381q-45 -106 -91 -142
t-97 -36zM138 534l111 183h41l111 -183h-49l-83 93l-82 -93h-49z" />
    <glyph glyph-name="Ydieresis" unicode="&#x178;" horiz-adv-x="647" 
d="M174 0v66h99v208l-181 318h-82v66h289v-66h-90l140 -258l149 258h-84v66h232v-66h-77l-193 -317v-209h101v-66h-303zM254 764q-25 0 -42 18t-17 43t17 43.5t42 18.5t42 -18.5t17 -43.5t-17 -43t-42 -18zM436 764q-25 0 -42 18t-17 43t17 43.5t42 18.5t42 -18.5t17 -43.5
t-17 -43t-42 -18z" />
    <glyph glyph-name="Zacute" unicode="&#x179;" horiz-adv-x="629" 
d="M42 0v51l413 541h-199q-30 0 -50 -4t-35.5 -21t-29.5 -52t-33 -95h-48v238h524v-51l-411 -541h220q30 0 50 5t35 23.5t28.5 54.5t32.5 96h48v-245h-545zM289 741l48 124q14 37 29 55.5t37 18.5q17 0 29.5 -13t12.5 -30q0 -14 -9 -30t-31 -44l-66 -81h-50z" />
    <glyph glyph-name="zacute" unicode="&#x17a;" horiz-adv-x="465" 
d="M39 0v53l285 351h-114q-26 0 -43 -4t-28.5 -16t-20.5 -34.5t-20 -58.5h-46v167h382v-53l-286 -351h137q25 0 41 4.5t27 18t19 38t18 63.5h46v-178h-397zM219 533l48 124q14 37 29 55.5t37 18.5q17 0 29.5 -13t12.5 -30q0 -14 -9 -30t-31 -44l-66 -81h-50z" />
    <glyph glyph-name="Zdotaccent" unicode="&#x17b;" horiz-adv-x="629" 
d="M42 0v51l413 541h-199q-30 0 -50 -4t-35.5 -21t-29.5 -52t-33 -95h-48v238h524v-51l-411 -541h220q30 0 50 5t35 23.5t28.5 54.5t32.5 96h48v-245h-545zM320 745q-28 0 -45 17.5t-17 45.5q0 26 18 45t44 19q28 0 45 -18t17 -46q0 -26 -18 -44.5t-44 -18.5z" />
    <glyph glyph-name="zdotaccent" unicode="&#x17c;" horiz-adv-x="465" 
d="M39 0v53l285 351h-114q-26 0 -43 -4t-28.5 -16t-20.5 -34.5t-20 -58.5h-46v167h382v-53l-286 -351h137q25 0 41 4.5t27 18t19 38t18 63.5h46v-178h-397zM250 537q-28 0 -45 17.5t-17 45.5q0 26 18 45t44 19q28 0 45 -18t17 -46q0 -26 -18 -44.5t-44 -18.5z" />
    <glyph glyph-name="Zcaron" unicode="&#x17d;" horiz-adv-x="629" 
d="M42 0v51l413 541h-199q-30 0 -50 -4t-35.5 -21t-29.5 -52t-33 -95h-48v238h524v-51l-411 -541h220q30 0 50 5t35 23.5t28.5 54.5t32.5 96h48v-245h-545zM303 751l-111 183h49l83 -93l82 93h49l-111 -183h-41z" />
    <glyph glyph-name="zcaron" unicode="&#x17e;" horiz-adv-x="465" 
d="M39 0v53l285 351h-114q-26 0 -43 -4t-28.5 -16t-20.5 -34.5t-20 -58.5h-46v167h382v-53l-286 -351h137q25 0 41 4.5t27 18t19 38t18 63.5h46v-178h-397zM233 543l-111 183h49l83 -93l82 93h49l-111 -183h-41z" />
    <glyph glyph-name="florin" unicode="&#x192;" horiz-adv-x="533" 
d="M88 -150q-57 0 -89.5 25t-32.5 60q0 28 15.5 47t43.5 19q25 0 40 -15.5t15 -40.5q0 -11 -4.5 -22.5t-8.5 -18.5q2 -1 8.5 -3.5t16.5 -2.5q25 0 42.5 29.5t27.5 110.5l37 298h-106v61h114l4 34q9 68 29 110.5t46 66.5t56.5 33t61.5 9q55 0 97 -26.5t42 -72.5
q0 -29 -16.5 -48.5t-45.5 -19.5q-25 0 -41.5 15.5t-16.5 43.5q0 15 4.5 26.5t11.5 21.5q-6 5 -16 8t-20 3q-34 0 -56 -27t-32 -97l-11 -80h121v-61h-128l-35 -265q-17 -121 -60 -171t-114 -50z" />
    <glyph glyph-name="Aringacute" unicode="&#x1fa;" horiz-adv-x="682" 
d="M-13 0v66h71l219 571q-22 13 -33 36t-11 50q0 41 26.5 71.5t78.5 30.5q51 0 78 -30.5t27 -71.5q0 -27 -12 -50.5t-34 -36.5l206 -570h91v-66h-308v66h104l-57 165h-237l-61 -165h83v-66h-231zM338 656q27 0 41.5 19.5t14.5 47.5t-14.5 47.5t-41.5 19.5q-26 0 -41 -19.5
t-15 -47.5t15 -47.5t41 -19.5zM316 558l-99 -269h196l-93 269h-4zM298 865l48 124q14 37 29 55.5t37 18.5q17 0 29.5 -13t12.5 -30q0 -14 -9 -30t-31 -44l-66 -81h-50z" />
    <glyph glyph-name="aringacute" unicode="&#x1fb;" horiz-adv-x="491" 
d="M177 -5q-63 0 -98 33.5t-35 84.5q0 24 8 45t26 39q28 28 68 40t102 21q44 7 57 11t13 17v47q0 44 -22 62.5t-69 18.5q-22 0 -40.5 -4.5t-36.5 -14.5q13 -6 21 -19.5t8 -29.5q0 -22 -15 -39t-43 -17q-29 0 -45 18t-16 40q0 27 15 49t40.5 37t60 23t72.5 8q78 0 121 -33.5
t43 -105.5v-232q0 -17 6.5 -25t24.5 -8q10 0 19.5 10t16.5 26l35 -21q-18 -42 -43.5 -60.5t-59.5 -18.5q-31 0 -56.5 19t-25.5 61h-5q-19 -37 -61 -59.5t-86 -22.5zM220 59q34 0 66 26t32 66v79q-7 -3 -16.5 -5t-28.5 -5q-72 -11 -99.5 -26.5t-27.5 -60.5q0 -33 18 -53.5
t56 -20.5zM250 522q-52 0 -78.5 30.5t-26.5 71.5t26.5 71.5t78.5 30.5q51 0 78 -30.5t27 -71.5t-27 -71.5t-78 -30.5zM250 557q27 0 41.5 19.5t14.5 47.5t-14.5 47.5t-41.5 19.5q-26 0 -41 -19.5t-15 -47.5t15 -47.5t41 -19.5zM219 783l48 124q14 37 29 55.5t37 18.5
q17 0 29.5 -13t12.5 -30q0 -14 -9 -30t-31 -44l-66 -81h-50z" />
    <glyph glyph-name="AEacute" unicode="&#x1fc;" horiz-adv-x="989" 
d="M-33 0v66h81l318 526h-99v66h656v-214h-48q-13 44 -23.5 73t-23 45.5t-30 23t-46.5 6.5h-197v-226h69q28 0 44.5 3t27 13.5t17 30.5t13.5 54h53v-262h-53q-6 35 -12.5 56t-17 32t-27.5 14t-45 3h-69v-244h193q33 0 53 7t34 25.5t24.5 51.5t24.5 84h48v-234h-591v66h111
v175h-220l-104 -175h89v-66h-250zM267 299h185v294h-9zM489 741l48 124q14 37 29 55.5t37 18.5q17 0 29.5 -13t12.5 -30q0 -14 -9 -30t-31 -44l-66 -81h-50z" />
    <glyph glyph-name="aeacute" unicode="&#x1fd;" horiz-adv-x="756" 
d="M177 -5q-63 0 -98 33.5t-35 84.5q0 24 8 45t26 39q28 28 68 40t102 21q44 7 57 11t13 17v47q0 44 -22 62.5t-69 18.5q-22 0 -40.5 -4.5t-36.5 -14.5q13 -6 21 -19.5t8 -29.5q0 -22 -15 -39t-43 -17q-29 0 -45 18t-16 40q0 27 15 49t40.5 37t60 23t72.5 8q52 0 86.5 -15.5
t50.5 -48.5q25 31 61 48t83 17q50 0 87.5 -21t61 -55t34.5 -78t10 -89h-310q1 -84 35.5 -126.5t100.5 -42.5q41 0 72 19.5t52 65.5h48q-19 -73 -70.5 -110.5t-126.5 -37.5q-67 0 -111.5 28.5t-66.5 77.5q-31 -55 -79.5 -78.5t-88.5 -23.5zM413 270h213q-5 63 -29 103t-75 40
q-46 0 -74.5 -33t-34.5 -110zM220 59q34 0 66 26t32 66v79q-7 -3 -16.5 -5t-28.5 -5q-72 -11 -99.5 -26.5t-27.5 -60.5q0 -33 18 -53.5t56 -20.5zM369 533l48 124q14 37 29 55.5t37 18.5q17 0 29.5 -13t12.5 -30q0 -14 -9 -30t-31 -44l-66 -81h-50z" />
    <glyph glyph-name="Oslashacute" unicode="&#x1fe;" horiz-adv-x="720" 
d="M48 -34l85 113q-44 46 -69.5 110t-25.5 140q0 73 26 136.5t70 109.5t102.5 72.5t123.5 26.5q49 0 95 -14.5t84 -40.5l52 73h81l-86 -113q44 -46 70 -110t26 -140q0 -74 -26 -137t-70 -109t-102.5 -72.5t-123.5 -26.5q-50 0 -95.5 14t-83.5 41l-52 -73h-81zM193 152
l296 406q-24 24 -56.5 37t-72.5 13q-98 0 -150 -74.5t-52 -204.5q0 -53 9 -98t26 -79zM360 50q98 0 150 74t52 205q0 53 -9 97.5t-26 78.5l-297 -405q25 -25 57.5 -37.5t72.5 -12.5zM329 741l48 124q14 37 29 55.5t37 18.5q17 0 29.5 -13t12.5 -30q0 -14 -9 -30t-31 -44
l-66 -81h-50z" />
    <glyph glyph-name="oslashacute" unicode="&#x1ff;" horiz-adv-x="529" 
d="M30 -27l66 84q-29 31 -44.5 74.5t-15.5 95.5t16.5 96t46.5 75.5t72.5 49.5t93.5 18q38 0 71 -9.5t59 -25.5l41 53h63l-67 -84q29 -31 45 -74.5t16 -94.5q0 -52 -16.5 -96.5t-46.5 -76t-72 -49.5t-93 -18q-39 0 -72 9t-59 26l-41 -53h-63zM154 128l195 246
q-16 19 -38.5 28.5t-50.5 9.5q-59 0 -89.5 -44.5t-30.5 -138.5q0 -31 3.5 -56t10.5 -45zM269 45q58 0 89 45t31 139q0 30 -4 55.5t-11 44.5l-194 -247q16 -19 38.5 -28t50.5 -9zM233 533l48 124q14 37 29 55.5t37 18.5q17 0 29.5 -13t12.5 -30q0 -14 -9 -30t-31 -44l-66 -81
h-50z" />
    <glyph glyph-name="uni0218" unicode="&#x218;" horiz-adv-x="585" 
d="M326 -16q-55 0 -104 19t-79 53l-24 -69h-66v238h60q27 -50 50.5 -84.5t48 -55.5t51.5 -30t62 -9q58 0 91.5 29t33.5 80q0 30 -14.5 50.5t-39 34.5t-56 24t-65.5 20q-38 11 -76.5 24.5t-68.5 35.5t-49 55.5t-19 83.5q0 37 15 71.5t42 61t65 42.5t85 16q42 0 88 -18t74 -52
l21 67h66v-228h-60q-46 97 -92 133t-102 36q-48 0 -76 -27.5t-28 -72.5q0 -33 15 -55t40 -36.5t58 -23.5t67 -18q38 -10 75 -22t66.5 -32.5t48 -52.5t18.5 -82q0 -43 -17 -80.5t-46 -65.5t-70 -44t-89 -16zM235 -316l-17 32q43 21 64.5 46.5t24.5 51.5l-5 3q-4 -4 -11 -6
t-15 -2q-18 0 -32.5 15t-14.5 37q0 25 17.5 43.5t42.5 18.5q32 0 51 -22t19 -56q0 -49 -27 -89.5t-97 -71.5z" />
    <glyph glyph-name="uni0219" unicode="&#x219;" horiz-adv-x="442" 
d="M45 -9v173h61q19 -54 58.5 -89t87.5 -35q40 0 58.5 18t18.5 46q0 30 -27 47.5t-94 36.5q-82 23 -118.5 55.5t-36.5 86.5q0 55 44 95.5t114 40.5q35 0 65 -13.5t46 -39.5l10 53h59v-157h-60q-23 50 -49.5 79t-72.5 29q-26 0 -48.5 -15t-22.5 -43q0 -30 28 -48.5t89 -34.5
q79 -22 117.5 -52.5t38.5 -88.5q0 -26 -11 -51.5t-32 -46t-52 -33.5t-69 -13q-43 0 -77 16.5t-56 43.5l-11 -60h-58zM160 -316l-17 32q43 21 64.5 46.5t24.5 51.5l-5 3q-4 -4 -11 -6t-15 -2q-18 0 -32.5 15t-14.5 37q0 25 17.5 43.5t42.5 18.5q32 0 51 -22t19 -56
q0 -49 -27 -89.5t-97 -71.5z" />
    <glyph glyph-name="uni0259" unicode="&#x259;" horiz-adv-x="490" 
d="M236 466q52 0 93 -18t69 -49t42.5 -74t14.5 -92q0 -51 -17 -95.5t-47 -77t-71 -51t-90 -18.5q-51 0 -88.5 21t-61.5 55t-35 78t-10 89h316q-2 84 -38.5 126.5t-101.5 42.5q-42 0 -73.5 -19.5t-52.5 -65.5h-48q19 73 71.5 110.5t127.5 37.5zM237 44q47 0 77 33t36 110
h-219q5 -63 29.5 -103t76.5 -40z" />
    <glyph glyph-name="uni02BB" unicode="&#x2bb;" horiz-adv-x="228" 
d="M114 420q-34 0 -54 23t-20 59q0 56 34.5 100t118.5 81l19 -34q-57 -25 -84.5 -53.5t-33.5 -60.5l6 -3q5 4 12 6t15 2q19 0 34 -16t15 -39q0 -26 -17.5 -45.5t-44.5 -19.5z" />
    <glyph glyph-name="circumflex" unicode="&#x2c6;" horiz-adv-x="299" 
d="M18 534l111 183h41l111 -183h-49l-83 93l-82 -93h-49z" />
    <glyph glyph-name="caron" unicode="&#x2c7;" horiz-adv-x="299" 
d="M130 543l-111 183h49l83 -93l82 93h49l-111 -183h-41z" />
    <glyph glyph-name="breve" unicode="&#x2d8;" horiz-adv-x="336" 
d="M169 540q-60 0 -97.5 41.5t-41.5 115.5h41q12 -40 35 -63.5t63 -23.5t62 23.5t34 63.5h41q-2 -74 -39.5 -115.5t-97.5 -41.5z" />
    <glyph glyph-name="dotaccent" unicode="&#x2d9;" horiz-adv-x="192" 
d="M96 537q-28 0 -45 17.5t-17 45.5q0 26 18 45t44 19q28 0 45 -18t17 -46q0 -26 -18 -44.5t-44 -18.5z" />
    <glyph glyph-name="ring" unicode="&#x2da;" horiz-adv-x="258" 
d="M129 527q-52 0 -78.5 30.5t-26.5 71.5t26.5 71.5t78.5 30.5q51 0 78 -30.5t27 -71.5t-27 -71.5t-78 -30.5zM129 562q27 0 41.5 19.5t14.5 47.5t-14.5 47.5t-41.5 19.5q-26 0 -41 -19.5t-15 -47.5t15 -47.5t41 -19.5z" />
    <glyph glyph-name="ogonek" unicode="&#x2db;" horiz-adv-x="269" 
d="M112 -243q-50 0 -78 24.5t-28 65.5q0 34 21 65.5t67 71.5l35 30h60l-26 -26q-50 -50 -64 -78t-14 -49q0 -28 15.5 -39.5t34.5 -11.5q17 0 31.5 7t24.5 14l22 -35q-22 -17 -48 -28t-53 -11z" />
    <glyph glyph-name="tilde" unicode="&#x2dc;" horiz-adv-x="331" 
d="M13 537q9 68 31 96t67 28q19 0 37.5 -7.5t34 -16.5t29 -16.5t23.5 -7.5q14 0 22 14t13 43h48q-9 -68 -31 -96t-67 -28q-19 0 -37.5 7.5t-34 16.5t-29 16.5t-23.5 7.5q-14 0 -22 -14t-13 -43h-48z" />
    <glyph glyph-name="hungarumlaut" unicode="&#x2dd;" horiz-adv-x="288" 
d="M-14 533l52 124q16 37 31.5 55.5t37.5 18.5q17 0 28.5 -12t11.5 -29q0 -14 -9.5 -31t-32.5 -45l-69 -81h-50zM136 533l52 124q16 37 31.5 55.5t37.5 18.5q17 0 28.5 -12t11.5 -29q0 -14 -9.5 -31t-32.5 -45l-69 -81h-50z" />
    <glyph glyph-name="uni0326" unicode="&#x326;" horiz-adv-x="225" 
d="M50 -316l-17 32q43 21 64.5 46.5t24.5 51.5l-5 3q-4 -4 -11 -6t-15 -2q-18 0 -32.5 15t-14.5 37q0 25 17.5 43.5t42.5 18.5q32 0 51 -22t19 -56q0 -49 -27 -89.5t-97 -71.5z" />
    <glyph glyph-name="uni0E3F" unicode="&#xe3f;" horiz-adv-x="590" 
d="M30 0v66h104v501h-104v67h263h19t17 -1l28 127h63l-30 -134q84 -16 113.5 -56.5t29.5 -88.5q0 -19 -8.5 -41t-27.5 -42t-51.5 -36.5t-80.5 -24.5v-5q96 -7 144.5 -50.5t48.5 -100.5q0 -34 -12 -67t-42.5 -58t-83.5 -40.5t-133 -15.5h-4l-21 -138h-63l22 138h-191z
M233 362h50q82 0 113.5 31t31.5 80q0 46 -28.5 70.5t-114.5 24.5h-52v-206zM233 66h43q96 0 135 29t39 95q0 49 -40 81.5t-136 32.5h-41v-238z" />
    <glyph glyph-name="Wgrave" unicode="&#x1e80;" horiz-adv-x="992" 
d="M265 -4l-187 596h-91v66h310v-66h-106l141 -474h9l138 410l-18 64h-91v66h317v-66h-117l127 -474h9l145 474h-83v66h231v-66h-71l-198 -596h-101l-117 425l-147 -425h-100zM501 741l-66 81q-22 28 -31 44t-9 30q0 17 12.5 30t29.5 13q22 0 37 -18.5t29 -55.5l48 -124h-50
z" />
    <glyph glyph-name="wgrave" unicode="&#x1e81;" horiz-adv-x="767" 
d="M199 -6l-135 398h-64v66h235v-66h-75l98 -310h4l101 252l-20 58h-62v66h238v-66h-84l103 -310h4l97 310h-65v66h193v-66h-58l-138 -398h-92l-87 257l-105 -257h-88zM376 533l-66 81q-22 28 -31 44t-9 30q0 17 12.5 30t29.5 13q22 0 37 -18.5t29 -55.5l48 -124h-50z" />
    <glyph glyph-name="Wacute" unicode="&#x1e82;" horiz-adv-x="992" 
d="M265 -4l-187 596h-91v66h310v-66h-106l141 -474h9l138 410l-18 64h-91v66h317v-66h-117l127 -474h9l145 474h-83v66h231v-66h-71l-198 -596h-101l-117 425l-147 -425h-100zM489 741l48 124q14 37 29 55.5t37 18.5q17 0 29.5 -13t12.5 -30q0 -14 -9 -30t-31 -44l-66 -81
h-50z" />
    <glyph glyph-name="wacute" unicode="&#x1e83;" horiz-adv-x="767" 
d="M199 -6l-135 398h-64v66h235v-66h-75l98 -310h4l101 252l-20 58h-62v66h238v-66h-84l103 -310h4l97 310h-65v66h193v-66h-58l-138 -398h-92l-87 257l-105 -257h-88zM364 533l48 124q14 37 29 55.5t37 18.5q17 0 29.5 -13t12.5 -30q0 -14 -9 -30t-31 -44l-66 -81h-50z" />
    <glyph glyph-name="Wdieresis" unicode="&#x1e84;" horiz-adv-x="992" 
d="M265 -4l-187 596h-91v66h310v-66h-106l141 -474h9l138 410l-18 64h-91v66h317v-66h-117l127 -474h9l145 474h-83v66h231v-66h-71l-198 -596h-101l-117 425l-147 -425h-100zM429 764q-25 0 -42 18t-17 43t17 43.5t42 18.5t42 -18.5t17 -43.5t-17 -43t-42 -18zM611 764
q-25 0 -42 18t-17 43t17 43.5t42 18.5t42 -18.5t17 -43.5t-17 -43t-42 -18z" />
    <glyph glyph-name="wdieresis" unicode="&#x1e85;" horiz-adv-x="767" 
d="M199 -6l-135 398h-64v66h235v-66h-75l98 -310h4l101 252l-20 58h-62v66h238v-66h-84l103 -310h4l97 310h-65v66h193v-66h-58l-138 -398h-92l-87 257l-105 -257h-88zM304 556q-25 0 -42 18t-17 43t17 43.5t42 18.5t42 -18.5t17 -43.5t-17 -43t-42 -18zM486 556
q-25 0 -42 18t-17 43t17 43.5t42 18.5t42 -18.5t17 -43.5t-17 -43t-42 -18z" />
    <glyph glyph-name="uni1E9E" unicode="&#x1e9e;" horiz-adv-x="726" 
d="M399 658h271v-51l-180 -234q55 -4 94.5 -21.5t64 -43t36 -57.5t11.5 -65q0 -43 -15.5 -80t-45 -64t-72 -42.5t-95.5 -15.5q-35 0 -66 9t-54.5 25t-37 38.5t-13.5 50.5q0 31 18 54t51 23q29 0 45.5 -17.5t16.5 -44.5q0 -17 -10 -32.5t-21 -24.5q13 -13 33.5 -17t42.5 -4
q57 0 85 36.5t28 105.5q0 33 -9 57.5t-33 40t-67 23.5t-110 8v51l177 226h-138q-42 0 -77 -7.5t-59 -29.5t-37.5 -63.5t-13.5 -109.5v-382h-199v66h96v328q0 80 20.5 131.5t58 81t89.5 40.5t115 11z" />
    <glyph glyph-name="Ygrave" unicode="&#x1ef2;" horiz-adv-x="647" 
d="M174 0v66h99v208l-181 318h-82v66h289v-66h-90l140 -258l149 258h-84v66h232v-66h-77l-193 -317v-209h101v-66h-303zM326 741l-66 81q-22 28 -31 44t-9 30q0 17 12.5 30t29.5 13q22 0 37 -18.5t29 -55.5l48 -124h-50z" />
    <glyph glyph-name="ygrave" unicode="&#x1ef3;" horiz-adv-x="506" 
d="M107 -167q-44 0 -70 21.5t-26 57.5q0 25 18 45t45 20q28 0 43.5 -18t15.5 -40q0 -8 -2.5 -17.5t-4.5 -13.5q29 6 50.5 28.5t46.5 86.5q-15 37 -42 103t-53 129t-45 110l-19 47h-64v66h242v-66h-78l107 -288l113 288h-64v66h193v-66h-59l-159 -381q-45 -106 -91 -142
t-97 -36zM251 533l-66 81q-22 28 -31 44t-9 30q0 17 12.5 30t29.5 13q22 0 37 -18.5t29 -55.5l48 -124h-50z" />
    <glyph glyph-name="uni2002" unicode="&#x2002;" horiz-adv-x="500" 
 />
    <glyph glyph-name="uni2003" unicode="&#x2003;" horiz-adv-x="1000" 
 />
    <glyph glyph-name="uni2004" unicode="&#x2004;" horiz-adv-x="333" 
 />
    <glyph glyph-name="uni2005" unicode="&#x2005;" horiz-adv-x="250" 
 />
    <glyph glyph-name="uni2007" unicode="&#x2007;" horiz-adv-x="540" 
 />
    <glyph glyph-name="uni2008" unicode="&#x2008;" horiz-adv-x="231" 
 />
    <glyph glyph-name="uni2009" unicode="&#x2009;" horiz-adv-x="133" 
 />
    <glyph glyph-name="uni200A" unicode="&#x200a;" horiz-adv-x="75" 
 />
    <glyph glyph-name="uni200B" unicode="&#x200b;" horiz-adv-x="0" 
 />
    <glyph glyph-name="uni200C" unicode="&#x200c;" horiz-adv-x="0" 
 />
    <glyph glyph-name="uni200D" unicode="&#x200d;" horiz-adv-x="0" 
 />
    <glyph glyph-name="endash" unicode="&#x2013;" horiz-adv-x="540" 
d="M55 212v69h430v-69h-430z" />
    <glyph glyph-name="emdash" unicode="&#x2014;" horiz-adv-x="790" 
d="M55 212v69h680v-69h-680z" />
    <glyph glyph-name="quoteleft" unicode="&#x2018;" horiz-adv-x="228" 
d="M114 420q-34 0 -54 23t-20 59q0 56 34.5 100t118.5 81l19 -34q-57 -25 -84.5 -53.5t-33.5 -60.5l6 -3q5 4 12 6t15 2q19 0 34 -16t15 -39q0 -26 -17.5 -45.5t-44.5 -19.5z" />
    <glyph glyph-name="quoteright" unicode="&#x2019;" horiz-adv-x="228" 
d="M35 411l-19 34q57 25 84.5 53.5t33.5 60.5l-6 3q-5 -4 -12 -6t-15 -2q-19 0 -34 16t-15 39q0 26 17.5 45.5t44.5 19.5q34 0 54 -23t20 -59q0 -56 -34.5 -100t-118.5 -81z" />
    <glyph glyph-name="quotesinglbase" unicode="&#x201a;" horiz-adv-x="231" 
d="M35 -151l-19 34q57 25 84.5 53.5t33.5 60.5l-6 3q-5 -4 -12 -6t-15 -2q-19 0 -34 16t-15 39q0 26 17.5 45.5t44.5 19.5q34 0 54 -23t20 -59q0 -56 -34.5 -100t-118.5 -81z" />
    <glyph glyph-name="quotedblleft" unicode="&#x201c;" horiz-adv-x="423" 
d="M117 420q-34 0 -54 23t-20 59q0 56 34.5 100t118.5 81l19 -34q-57 -25 -84.5 -53.5t-33.5 -60.5l6 -3q5 4 12 6t15 2q19 0 34 -16t15 -39q0 -26 -17.5 -45.5t-44.5 -19.5zM309 420q-34 0 -54 23t-20 59q0 56 34.5 100t118.5 81l19 -34q-57 -25 -84.5 -53.5t-33.5 -60.5
l6 -3q5 4 12 6t15 2q19 0 34 -16t15 -39q0 -26 -17.5 -45.5t-44.5 -19.5z" />
    <glyph glyph-name="quotedblright" unicode="&#x201d;" horiz-adv-x="420" 
d="M35 411l-19 34q57 25 84.5 53.5t33.5 60.5l-6 3q-5 -4 -12 -6t-15 -2q-19 0 -34 16t-15 39q0 26 17.5 45.5t44.5 19.5q34 0 54 -23t20 -59q0 -56 -34.5 -100t-118.5 -81zM227 411l-19 34q57 25 84.5 53.5t33.5 60.5l-6 3q-5 -4 -12 -6t-15 -2q-19 0 -34 16t-15 39
q0 26 17.5 45.5t44.5 19.5q34 0 54 -23t20 -59q0 -56 -34.5 -100t-118.5 -81z" />
    <glyph glyph-name="quotedblbase" unicode="&#x201e;" horiz-adv-x="423" 
d="M35 -151l-19 34q57 25 84.5 53.5t33.5 60.5l-6 3q-5 -4 -12 -6t-15 -2q-19 0 -34 16t-15 39q0 26 17.5 45.5t44.5 19.5q34 0 54 -23t20 -59q0 -56 -34.5 -100t-118.5 -81zM227 -151l-19 34q57 25 84.5 53.5t33.5 60.5l-6 3q-5 -4 -12 -6t-15 -2q-19 0 -34 16t-15 39
q0 26 17.5 45.5t44.5 19.5q34 0 54 -23t20 -59q0 -56 -34.5 -100t-118.5 -81z" />
    <glyph glyph-name="dagger" unicode="&#x2020;" horiz-adv-x="518" 
d="M259 -104q-10 0 -27 28t-17 65v154l24 280q-35 12 -66 20t-42 8h-7t-6 -1q1 -4 3 -11t2 -15q0 -21 -13.5 -35t-33.5 -14q-18 0 -34 13t-16 36q0 25 22 48t70 23q24 0 51 -7t70 -22l-33 175l9 23q6 16 16.5 27.5t27.5 11.5t27.5 -11.5t16.5 -27.5l9 -23l-35 -188
q35 -11 67 -19.5t43 -8.5h7t6 1q-1 4 -3 11t-2 15q0 21 13.5 35t33.5 14q18 0 34 -13t16 -36q0 -25 -22 -48t-70 -23q-23 0 -49.5 7t-69.5 21l21 -266v-154q0 -37 -17 -65t-26 -28z" />
    <glyph glyph-name="daggerdbl" unicode="&#x2021;" horiz-adv-x="518" 
d="M259 -105q-17 0 -27.5 12t-16.5 27l-9 23l35 187q-35 12 -67 20.5t-43 8.5h-7t-6 -1q1 -4 3 -11t2 -15q0 -21 -13.5 -35t-33.5 -14q-18 0 -34 13t-16 36q0 25 22 48t70 23q23 0 49 -6.5t68 -20.5l-19 122l21 112q-34 11 -64.5 19t-41.5 8h-7t-6 -1q1 -4 3 -11t2 -15
q0 -21 -13.5 -35t-33.5 -14q-18 0 -34 13t-16 36q0 25 22 48t70 23q24 0 51 -7t70 -22l-33 175l9 23q6 16 16.5 27.5t27.5 11.5t27.5 -11.5t16.5 -27.5l9 -23l-35 -188q35 -11 67 -19.5t43 -8.5h7t6 1q-1 4 -3 11t-2 15q0 21 13.5 35t33.5 14q18 0 34 -13t16 -36
q0 -25 -22 -48t-70 -23q-23 0 -49.5 6.5t-67.5 20.5l18 -122l-20 -112q34 -11 64.5 -19t41.5 -8h7t6 1q-1 4 -3 11t-2 15q0 21 13.5 35t33.5 14q18 0 34 -13t16 -36q0 -25 -22 -48t-70 -23q-24 0 -51 7t-70 22l33 -175l-9 -23q-6 -15 -16.5 -27t-27.5 -12z" />
    <glyph glyph-name="bullet" unicode="&#x2022;" horiz-adv-x="490" 
d="M245 179q-57 0 -98 41t-41 98t41 98.5t98 41.5t98 -41.5t41 -98.5t-41 -98t-98 -41z" />
    <glyph glyph-name="ellipsis" unicode="&#x2026;" horiz-adv-x="673" 
d="M116 -16q-28 0 -47 19t-19 45t19 45t47 19q27 0 46 -19t19 -45t-19 -45t-46 -19zM337 -16q-28 0 -47 19t-19 45t19 45t47 19q27 0 46 -19t19 -45t-19 -45t-46 -19zM558 -16q-28 0 -47 19t-19 45t19 45t47 19q27 0 46 -19t19 -45t-19 -45t-46 -19z" />
    <glyph glyph-name="uni202F" unicode="&#x202f;" horiz-adv-x="133" 
 />
    <glyph glyph-name="guilsinglleft" unicode="&#x2039;" horiz-adv-x="300" 
d="M219 30l-152 154q-16 16 -21.5 24.5t-5.5 15.5t5.5 15.5t21.5 24.5l152 154l35 -24l-117 -168l117 -172z" />
    <glyph glyph-name="guilsinglright" unicode="&#x203a;" horiz-adv-x="300" 
d="M81 418l152 -154q16 -16 21.5 -24.5t5.5 -15.5t-5.5 -15.5t-21.5 -24.5l-152 -154l-35 24l117 168l-117 172z" />
    <glyph glyph-name="fraction" unicode="&#x2044;" horiz-adv-x="190" 
d="M-187 -82l249 361l247 361h69l-249 -361l-247 -361h-69z" />
    <glyph glyph-name="zero.sup" unicode="&#x2070;" 
d="M221 233q-39 0 -70.5 18t-53.5 49.5t-33.5 76t-11.5 96.5t12 96.5t34.5 77t54 50.5t70.5 18t70.5 -18t53.5 -49.5t33.5 -76t11.5 -96.5t-12 -96.5t-34.5 -77t-54 -50.5t-70.5 -18zM223 282q40 0 56.5 46.5t16.5 145.5t-18 145.5t-57 46.5q-40 0 -56 -46.5t-16 -145.5
t18 -145.5t56 -46.5z" />
    <glyph glyph-name="four.sup" unicode="&#x2074;" 
d="M178 245v52h75v79h-210v55l180 280h112v-283h73v-52h-73v-79h62v-52h-219zM105 428h149v222h-11l-138 -220v-2z" />
    <glyph glyph-name="five.sup" unicode="&#x2075;" 
d="M212 233q-32 0 -60.5 7.5t-50 21t-34 32.5t-12.5 41q0 24 15 41.5t39 17.5q23 0 35 -15t12 -34q0 -14 -7 -26.5t-17 -19.5q10 -7 28 -13t43 -6q44 0 67.5 27.5t23.5 77.5q0 51 -22 76t-64 25q-26 0 -48 -9.5t-40 -25.5l-39 10l15 238l14 12q34 -13 71 -19.5t69 -6.5
q35 0 62.5 7t51.5 20l14 -31q-22 -37 -56.5 -56t-80.5 -19q-31 0 -56 6t-44 13l-8 -121q18 14 44.5 23.5t57.5 9.5q40 0 69 -12t47.5 -31.5t27.5 -45t9 -52.5q0 -30 -10.5 -59.5t-32 -52t-54.5 -37t-79 -14.5z" />
    <glyph glyph-name="six.sup" unicode="&#x2076;" 
d="M229 233q-40 0 -72 17.5t-53.5 47t-33 70t-11.5 86.5q0 120 54 190.5t146 70.5q62 0 94 -27.5t32 -64.5q0 -24 -14 -40.5t-36 -16.5t-34 13.5t-12 32.5q0 13 5.5 24t15.5 17q-10 7 -23.5 11.5t-29.5 4.5q-50 0 -79 -46t-28 -150q17 28 44 44.5t62 16.5q61 0 97 -39
t36 -101q0 -31 -10 -60t-30 -51.5t-50 -36t-70 -13.5zM230 280q34 0 50.5 28t16.5 78q0 47 -17.5 74t-52.5 27q-33 0 -53.5 -27.5t-20.5 -74.5t22.5 -76t54.5 -29z" />
    <glyph glyph-name="seven.sup" unicode="&#x2077;" 
d="M197 233q-23 0 -37 14.5t-14 39.5q0 54 37.5 125t111.5 155q5 6 20.5 22.5t24.5 24.5l-4 5q-18 -12 -37 -18.5t-36 -6.5q-34 0 -56.5 15.5t-42.5 15.5q-19 0 -29 -21.5t-17 -84.5h-50v187h53l6 -56h4q10 33 25.5 46t36.5 13t36.5 -10.5t28.5 -23t25.5 -23t27.5 -10.5
q4 0 7.5 0.5t5.5 1.5q-3 4 -6 11.5t-3 14.5q0 19 12 32t34 13q21 0 33.5 -14.5t12.5 -33.5t-12.5 -38t-29.5 -41q-43 -50 -73.5 -117.5t-43.5 -177.5q-2 -28 -14 -44t-37 -16z" />
    <glyph glyph-name="eight.sup" unicode="&#x2078;" 
d="M221 233q-77 0 -117.5 36.5t-40.5 86.5q0 33 21.5 61t64.5 44q-35 18 -55.5 45.5t-20.5 70.5q0 55 42.5 96.5t111.5 41.5q71 0 108.5 -34.5t37.5 -80.5q0 -34 -20.5 -60t-58.5 -41q42 -18 67 -47.5t25 -71.5q0 -61 -46 -104t-119 -43zM261 512q22 16 31 39t9 45
q0 28 -19.5 50.5t-56.5 22.5q-34 0 -53 -20t-19 -47q0 -37 28 -57t80 -33zM227 279q37 0 58 22.5t21 51.5q0 37 -31.5 56.5t-96.5 38.5q-19 -14 -29.5 -35t-10.5 -47q0 -37 22.5 -62t66.5 -25z" />
    <glyph glyph-name="nine.sup" unicode="&#x2079;" 
d="M186 233q-62 0 -94 27.5t-32 64.5q0 25 14 41t36 16t34.5 -13t12.5 -32q0 -13 -6 -24.5t-16 -17.5q10 -7 23.5 -11.5t29.5 -4.5q50 0 79.5 46.5t28.5 150.5q-18 -28 -45 -45t-62 -17q-61 0 -97 39t-36 101q0 31 10 60t30 51.5t50 36t70 13.5t72 -17t53.5 -47t33 -70.5
t11.5 -86.5q0 -119 -54 -190t-146 -71zM218 461q33 0 53.5 27.5t20.5 74.5t-22.5 76t-54.5 29q-34 0 -50.5 -28t-16.5 -78q0 -47 18 -74t52 -27z" />
    <glyph glyph-name="zero.inf" unicode="&#x2080;" 
d="M221 -202q-39 0 -70.5 18t-53.5 49.5t-33.5 76t-11.5 96.5t12 96.5t34.5 77t54 50.5t70.5 18t70.5 -18t53.5 -49.5t33.5 -76t11.5 -96.5t-12 -96.5t-34.5 -77t-54 -50.5t-70.5 -18zM223 -153q40 0 56.5 46.5t16.5 145.5t-18 145.5t-57 46.5q-40 0 -56 -46.5t-16 -145.5
t18 -145.5t56 -46.5z" />
    <glyph glyph-name="one.inf" unicode="&#x2081;" 
d="M90 -190v53h104v310q-9 -4 -23 -6.5t-30 -2.5q-13 0 -28 2.5t-25 5.5v44q43 -2 81.5 13.5t55.5 43.5h57v-410h102v-53h-294z" />
    <glyph glyph-name="two.inf" unicode="&#x2082;" 
d="M105 -202q-22 0 -36 17.5t-14 43.5q0 41 34 81t91 77q53 36 79.5 62.5t26.5 72.5q0 37 -21 58.5t-59 21.5q-28 0 -49 -13t-31 -36q18 -6 28 -19.5t10 -31.5q0 -22 -13.5 -37.5t-38.5 -15.5q-24 0 -39.5 19t-15.5 47q0 26 11 50.5t32 43t52 30t69 11.5q78 0 119.5 -41
t41.5 -95q0 -27 -11.5 -48.5t-31 -38t-45 -31t-53.5 -28.5q-53 -29 -82 -51t-42 -53l1 -2q15 10 33.5 16t38.5 6q18 0 34 -5.5t30 -11.5t26.5 -11.5t24.5 -5.5q20 0 30 18t20 61l37 -4q-6 -85 -32 -121t-66 -36q-27 0 -46.5 11t-35.5 24t-30.5 24t-31.5 11q-4 0 -7.5 -0.5
t-5.5 -1.5q4 -3 6.5 -9.5t2.5 -15.5q0 -17 -11 -30t-30 -13z" />
    <glyph glyph-name="three.inf" unicode="&#x2083;" 
d="M215 -202q-72 0 -115.5 30.5t-43.5 75.5q0 25 15 41.5t40 16.5q24 0 36.5 -15t12.5 -34q0 -14 -7.5 -25.5t-17.5 -18.5q9 -11 29 -18t45 -7q40 0 62 23t22 63q0 42 -22.5 66t-84.5 24h-18v49h16q58 0 79.5 24.5t21.5 65.5q0 37 -20 56t-57 19q-23 0 -41 -7.5t-28 -16.5
q13 -6 21 -18t8 -28q0 -19 -12 -34t-37 -15q-23 0 -38 16t-15 41q0 43 43.5 75.5t113.5 32.5q77 0 117.5 -35t40.5 -81q0 -40 -29 -71.5t-94 -43.5v-3q66 -5 98.5 -35.5t32.5 -76.5q0 -56 -46.5 -96t-127.5 -40z" />
    <glyph glyph-name="four.inf" unicode="&#x2084;" 
d="M178 -190v52h75v79h-210v55l180 280h112v-283h73v-52h-73v-79h62v-52h-219zM105 -7h149v222h-11l-138 -220v-2z" />
    <glyph glyph-name="five.inf" unicode="&#x2085;" 
d="M212 -202q-32 0 -60.5 7.5t-50 21t-34 32.5t-12.5 41q0 24 15 41.5t39 17.5q23 0 35 -15t12 -34q0 -14 -7 -26.5t-17 -19.5q10 -7 28 -13t43 -6q44 0 67.5 27.5t23.5 77.5q0 51 -22 76t-64 25q-26 0 -48 -9.5t-40 -25.5l-39 10l15 238l14 12q34 -13 71 -19.5t69 -6.5
q35 0 62.5 7t51.5 20l14 -31q-22 -37 -56.5 -56t-80.5 -19q-31 0 -56 6t-44 13l-8 -121q18 14 44.5 23.5t57.5 9.5q40 0 69 -12t47.5 -31.5t27.5 -45t9 -52.5q0 -30 -10.5 -59.5t-32 -52t-54.5 -37t-79 -14.5z" />
    <glyph glyph-name="six.inf" unicode="&#x2086;" 
d="M229 -202q-40 0 -72 17.5t-53.5 47t-33 70t-11.5 86.5q0 120 54 190.5t146 70.5q62 0 94 -27.5t32 -64.5q0 -24 -14 -40.5t-36 -16.5t-34 13.5t-12 32.5q0 13 5.5 24t15.5 17q-10 7 -23.5 11.5t-29.5 4.5q-50 0 -79 -46t-28 -150q17 28 44 44.5t62 16.5q61 0 97 -39
t36 -101q0 -31 -10 -60t-30 -51.5t-50 -36t-70 -13.5zM230 -155q34 0 50.5 28t16.5 78q0 47 -17.5 74t-52.5 27q-33 0 -53.5 -27.5t-20.5 -74.5t22.5 -76t54.5 -29z" />
    <glyph glyph-name="seven.inf" unicode="&#x2087;" 
d="M197 -202q-23 0 -37 14.5t-14 39.5q0 54 37.5 125t111.5 155q5 6 20.5 22.5t24.5 24.5l-4 5q-18 -12 -37 -18.5t-36 -6.5q-34 0 -56.5 15.5t-42.5 15.5q-19 0 -29 -21.5t-17 -84.5h-50v187h53l6 -56h4q10 33 25.5 46t36.5 13t36.5 -10.5t28.5 -23t25.5 -23t27.5 -10.5
q4 0 7.5 0.5t5.5 1.5q-3 4 -6 11.5t-3 14.5q0 19 12 32t34 13q21 0 33.5 -14.5t12.5 -33.5t-12.5 -38t-29.5 -41q-43 -50 -73.5 -117.5t-43.5 -177.5q-2 -28 -14 -44t-37 -16z" />
    <glyph glyph-name="eight.inf" unicode="&#x2088;" 
d="M221 -202q-77 0 -117.5 36.5t-40.5 86.5q0 33 21.5 61t64.5 44q-35 18 -55.5 45.5t-20.5 70.5q0 55 42.5 96.5t111.5 41.5q71 0 108.5 -34.5t37.5 -80.5q0 -34 -20.5 -60t-58.5 -41q42 -18 67 -47.5t25 -71.5q0 -61 -46 -104t-119 -43zM261 77q22 16 31 39t9 45
q0 28 -19.5 50.5t-56.5 22.5q-34 0 -53 -20t-19 -47q0 -37 28 -57t80 -33zM227 -156q37 0 58 22.5t21 51.5q0 37 -31.5 56.5t-96.5 38.5q-19 -14 -29.5 -35t-10.5 -47q0 -37 22.5 -62t66.5 -25z" />
    <glyph glyph-name="nine.inf" unicode="&#x2089;" 
d="M186 -202q-62 0 -94 27.5t-32 64.5q0 25 14 41t36 16t34.5 -13t12.5 -32q0 -13 -6 -24.5t-16 -17.5q10 -7 23.5 -11.5t29.5 -4.5q50 0 79.5 46.5t28.5 150.5q-18 -28 -45 -45t-62 -17q-61 0 -97 39t-36 101q0 31 10 60t30 51.5t50 36t70 13.5t72 -17t53.5 -47t33 -70.5
t11.5 -86.5q0 -119 -54 -190t-146 -71zM218 26q33 0 53.5 27.5t20.5 74.5t-22.5 76t-54.5 29q-34 0 -50.5 -28t-16.5 -78q0 -47 18 -74t52 -27z" />
    <glyph glyph-name="colonmonetary" unicode="&#x20a1;" horiz-adv-x="586" 
d="M172 -139l26 161q-67 41 -104.5 120.5t-37.5 176.5q0 61 18.5 117t51 100t78.5 73t101 38l17 114h63l-18 -112q22 -1 42.5 -6.5t37.5 -12.5l21 131h63l-27 -169q17 -17 26.5 -38t9.5 -45q0 -38 -20.5 -62.5t-51.5 -24.5l-62 -354q37 18 56 56t24 85h60
q-7 -85 -46.5 -140.5t-99.5 -74.5l-21 -133h-63l20 123h-1q-21 0 -41 3t-39 9l-21 -135h-62zM431 556q-10 13 -28.5 23t-52.5 10l-87 -509q18 -12 38.5 -18t45.5 -6h4h4l67 381q-12 9 -19.5 22.5t-7.5 31.5q0 20 9.5 36t26.5 29zM167 327q0 -70 13.5 -123.5t39.5 -88.5
l80 468q-57 -16 -95 -78t-38 -178z" />
    <glyph glyph-name="uni20A6" unicode="&#x20a6;" horiz-adv-x="832" 
d="M561 -7l-132 250h-180v-179h100v-64h-269v64h97v181h-97v56h97v84h-97v56h97v129h-97v64h252l97 -191h175v127h-98v64h267v-64h-98v-129h98v-56h-98v-84h98v-56h-98v-252h-114zM249 570v-137h80l-72 137h-8zM501 303h103v90h-149zM249 293h154l-47 90h-107v-90zM596 116
h8v137h-78z" />
    <glyph glyph-name="uni20A8" unicode="&#x20a8;" horiz-adv-x="1023" 
d="M550 -11q-41 0 -71.5 23.5t-31.5 88.5l-1 74q-1 48 -20.5 73t-88.5 25h-98v-208h104v-65h-310v65h107v503h-107v66h284q72 0 120 -14.5t76 -38t39 -53.5t11 -61q0 -49 -30.5 -95t-116.5 -62v-9q74 -16 101 -49t31 -82l7 -72q3 -24 11.5 -34.5t24.5 -10.5q18 0 32 15
t20 34l-1 55h57q18 -51 54 -84t81 -33q38 0 53 16.5t15 42.5q0 27 -23 43.5t-86 33.5q-77 22 -109.5 52t-32.5 81t39.5 89t105.5 38q33 0 59.5 -12.5t42.5 -37.5l9 50h55v-151h-56q-22 47 -45.5 74.5t-66.5 27.5q-25 0 -44 -14t-19 -39q0 -28 24.5 -44t81.5 -32
q74 -20 108 -49t34 -83q0 -24 -10 -48.5t-29 -43.5t-47 -31t-64 -12q-40 0 -71 15.5t-51 40.5l-7 -56h-54l-1 57q-16 -26 -37 -42.5t-58 -16.5zM239 333h79q77 0 105.5 33.5t28.5 92.5q0 53 -27 81t-96 28h-90v-235z" />
    <glyph glyph-name="uni20A9" unicode="&#x20a9;" horiz-adv-x="1062" 
d="M80 259v59h156l-25 89h-131v58h115l-30 105h-85v64h282v-64h-94l29 -108h230v0l-29 108h-87v64h303v-64h-115l26 -108h204l31 108h-82v64h224v-64h-68l-32 -105h100v-58h-118l-27 -89h145v-59h-163l-81 -263h-118l-84 358l-113 -358h-116l-74 263h-173zM815 410h-178
l23 -95h128zM480 315l30 95h-199l26 -95h143zM713 93h12l48 169h-100zM409 93l54 169h-112l46 -169h12z" />
    <glyph glyph-name="uni20AA" unicode="&#x20aa;" horiz-adv-x="658" 
d="M226 0v313h62v-216h76q49 0 79.5 3.5t46.5 19.5q11 11 17 29t8 59t2 115t-1 196h62q2 -40 4 -96l4 -112t3 -104.5t1 -73.5q0 -35 -8.5 -60.5t-31 -41.5t-62.5 -23.5t-102 -7.5h-160zM76 0v515h156q66 0 107.5 -7.5t64 -23t30.5 -40.5t8 -60q0 -31 -1.5 -82t-5.5 -100h-57
q-1 51 -2.5 84.5t-4 54.5t-7 32.5t-12.5 19.5q-18 18 -53.5 21.5t-78.5 3.5h-77v-418h-67z" />
    <glyph glyph-name="Euro" unicode="&#x20ac;" horiz-adv-x="649" 
d="M31 216v56h85q-1 9 -1 17.5v17.5q0 11 0.5 22.5t1.5 21.5h-86v57h97q13 52 39.5 96.5t62.5 76.5t81 50.5t95 18.5q42 0 79.5 -11.5t65 -30.5t44 -45t16.5 -54t-17.5 -52.5t-52.5 -24.5q-32 0 -50.5 18.5t-18.5 49.5q0 16 7 30.5t17 24.5q-10 15 -36 24.5t-51 9.5
q-56 0 -107 -38.5t-69 -142.5h186v-57h-192q-1 -9 -1 -19v-20t0.5 -20t1.5 -20h191v-56h-182q17 -74 62 -114.5t108 -40.5t103 39.5t47 108.5h60q-1 -45 -17.5 -86t-46 -71.5t-71.5 -49t-95 -18.5q-55 0 -99.5 18t-77 49t-54.5 73.5t-32 91.5h-93z" />
    <glyph glyph-name="uni20B1" unicode="&#x20b1;" horiz-adv-x="687" 
d="M49 0v66h107v327h-107v58h107v117h-107v66h277q68 0 115 -14.5t76.5 -39.5t43.5 -58.5t17 -70.5h65v-58h-68q-5 -33 -19.5 -64.5t-43 -56.5t-72.5 -40t-107 -15h-78v-151h118v-66h-324zM255 568v-120h214q-4 50 -35 85t-110 35h-69zM255 277h70q78 0 108.5 34t34.5 85
h-213v-119z" />
    <glyph glyph-name="uni20B9" unicode="&#x20b9;" horiz-adv-x="581" 
d="M58 409v60h250q-5 49 -33.5 74t-88.5 25h-128v66h485v-66h-196q34 -17 50.5 -42t20.5 -54h125v-66h-127q-8 -40 -40.5 -73.5t-101.5 -46.5v-9q74 -16 101 -49t31 -82l2 -42q1 -25 10.5 -35t23.5 -10q12 0 22 10t22 32l44 -21q-16 -41 -44 -66t-68 -25q-44 0 -80 25
t-37 93v39q-1 48 -20.5 73t-88.5 25h-134v66h117q66 0 96 25t36 74h-249z" />
    <glyph glyph-name="uni20BD" unicode="&#x20bd;" horiz-adv-x="628" 
d="M46 0v66h107v89h-108v57h108v67h-107v57h107v232h-107v66h293q71 0 119.5 -14t78 -38t42 -56.5t12.5 -67.5q0 -28 -11 -59.5t-38.5 -58t-75 -44t-120.5 -17.5h-94v-67h227v-57h-227v-89h118v-66h-324zM337 568h-85v-232h86q45 0 73.5 10t44.5 26.5t21.5 37.5t5.5 43
q0 47 -30 81t-116 34z" />
    <glyph glyph-name="uni2116" unicode="&#x2116;" horiz-adv-x="1179" 
d="M933 249q-89 0 -142 54.5t-53 141.5q0 86 55.5 141.5t139.5 55.5q87 0 140.5 -53.5t53.5 -140.5q0 -86 -55 -142.5t-139 -56.5zM507 -7l-294 533h-8v-460h99v-66h-269v66h96v502h-96v66h233l254 -474h9v408h-99v66h269v-66h-97v-575h-97zM936 302q46 0 71.5 36.5
t25.5 108.5q0 73 -28 108.5t-76 35.5q-46 0 -72 -35.5t-26 -108.5q0 -72 28.5 -108.5t76.5 -36.5zM762 94v66h341v-66h-341z" />
    <glyph glyph-name="uni2117" unicode="&#x2117;" horiz-adv-x="787" 
d="M393 -32q-76 0 -142 28t-114.5 76.5t-76.5 115t-28 142.5t28 142t76.5 114t114.5 76t142 28t142.5 -28t115 -76t76.5 -114t28 -142t-28 -142.5t-76.5 -115t-115 -76.5t-142.5 -28zM393 6q68 0 126.5 25t101 68.5t67 103t24.5 127.5q0 67 -24.5 126t-67 102.5t-101 68.5
t-126.5 25q-67 0 -125 -25t-101 -68.5t-67.5 -102.5t-24.5 -126q0 -68 24.5 -127.5t67.5 -103t101 -68.5t125 -25zM243 148v40h59v288h-59v41h166q86 0 121.5 -33t35.5 -77q0 -21 -7.5 -41.5t-25 -37t-47 -26.5t-73.5 -10h-45v-104h64v-40h-189zM368 330h41q51 0 67 21
t16 55q0 29 -17.5 50t-66.5 21h-40v-147z" />
    <glyph glyph-name="uni2120" unicode="&#x2120;" horiz-adv-x="781" 
d="M175 356q-25 0 -47 8.5t-35 24.5l-11 -31h-33v107h32q22 -40 42.5 -57.5t51.5 -17.5q26 0 39 11.5t13 34.5q0 25 -22.5 35t-51.5 18q-34 10 -65.5 27.5t-31.5 64.5q0 33 25.5 60t68.5 27q19 0 38 -8t32 -24l9 30h33v-102h-32q-19 38 -37.5 54t-42.5 16q-22 0 -34 -10
t-12 -30q0 -28 24 -38.5t54 -17.5q34 -8 64 -24.5t30 -62.5q0 -39 -29 -67t-72 -28zM319 361v35h42v227h-42v35h142l67 -213h7l67 213h140v-35h-45v-227h45v-35h-139v35h33v210h-14l-80 -245h-42l-83 245h-16v-210h35v-35h-117z" />
    <glyph glyph-name="trademark" unicode="&#x2122;" horiz-adv-x="831" 
d="M369 361v35h42v227h-42v35h142l67 -213h7l67 213h140v-35h-45v-227h45v-35h-139v35h33v210h-14l-80 -245h-42l-83 245h-16v-210h35v-35h-117zM100 361v35h55v230h-13q-30 0 -42.5 -15.5t-30.5 -66.5h-26v114h286v-114h-27q-15 49 -28.5 65.5t-43.5 16.5h-13v-230h55v-35
h-172z" />
    <glyph glyph-name="onethird" unicode="&#x2153;" horiz-adv-x="1110" 
d="M90 170v53h104v310q-9 -4 -23 -6.5t-30 -2.5q-13 0 -28 2.5t-25 5.5v44q43 -2 81.5 13.5t55.5 43.5h57v-410h102v-53h-294zM288 -82l249 361l247 361h69l-249 -361l-247 -361h-69zM880 -82q-72 0 -115.5 30.5t-43.5 75.5q0 25 15 41.5t40 16.5q24 0 36.5 -15t12.5 -34
q0 -14 -7.5 -25.5t-17.5 -18.5q9 -11 29 -18t45 -7q40 0 62 23t22 63q0 42 -22.5 66t-84.5 24h-18v49h16q58 0 79.5 24.5t21.5 65.5q0 37 -20 56t-57 19q-23 0 -41 -7.5t-28 -16.5q13 -6 21 -18t8 -28q0 -19 -12 -34t-37 -15q-23 0 -38 16t-15 41q0 43 43.5 75.5t113.5 32.5
q77 0 117.5 -35t40.5 -81q0 -40 -29 -71.5t-94 -43.5v-3q66 -5 98.5 -35.5t32.5 -76.5q0 -56 -46.5 -96t-127.5 -40z" />
    <glyph glyph-name="twothirds" unicode="&#x2154;" horiz-adv-x="1100" 
d="M105 158q-22 0 -36 17.5t-14 43.5q0 41 34 81t91 77q53 36 79.5 62.5t26.5 72.5q0 37 -21 58.5t-59 21.5q-28 0 -49 -13t-31 -36q18 -6 28 -19.5t10 -31.5q0 -22 -13.5 -37.5t-38.5 -15.5q-24 0 -39.5 19t-15.5 47q0 26 11 50.5t32 43t52 30t69 11.5q78 0 119.5 -41
t41.5 -95q0 -27 -11.5 -48.5t-31 -38t-45 -31t-53.5 -28.5q-53 -29 -82 -51t-42 -53l1 -2q15 10 33.5 16t38.5 6q18 0 34 -5.5t30 -11.5t26.5 -11.5t24.5 -5.5q20 0 30 18t20 61l37 -4q-6 -85 -32 -121t-66 -36q-27 0 -46.5 11t-35.5 24t-30.5 24t-31.5 11q-4 0 -7.5 -0.5
t-5.5 -1.5q4 -3 6.5 -9.5t2.5 -15.5q0 -17 -11 -30t-30 -13zM278 -82l249 361l247 361h69l-249 -361l-247 -361h-69zM870 -82q-72 0 -115.5 30.5t-43.5 75.5q0 25 15 41.5t40 16.5q24 0 36.5 -15t12.5 -34q0 -14 -7.5 -25.5t-17.5 -18.5q9 -11 29 -18t45 -7q40 0 62 23
t22 63q0 42 -22.5 66t-84.5 24h-18v49h16q58 0 79.5 24.5t21.5 65.5q0 37 -20 56t-57 19q-23 0 -41 -7.5t-28 -16.5q13 -6 21 -18t8 -28q0 -19 -12 -34t-37 -15q-23 0 -38 16t-15 41q0 43 43.5 75.5t113.5 32.5q77 0 117.5 -35t40.5 -81q0 -40 -29 -71.5t-94 -43.5v-3
q66 -5 98.5 -35.5t32.5 -76.5q0 -56 -46.5 -96t-127.5 -40z" />
    <glyph glyph-name="uni2155" unicode="&#x2155;" horiz-adv-x="1100" 
d="M90 170v53h104v310q-9 -4 -23 -6.5t-30 -2.5q-13 0 -28 2.5t-25 5.5v44q43 -2 81.5 13.5t55.5 43.5h57v-410h102v-53h-294zM288 -82l249 361l247 361h69l-249 -361l-247 -361h-69zM867 -82q-32 0 -60.5 7.5t-50 21t-34 32.5t-12.5 41q0 24 15 41.5t39 17.5q23 0 35 -15
t12 -34q0 -14 -7 -26.5t-17 -19.5q10 -7 28 -13t43 -6q44 0 67.5 27.5t23.5 77.5q0 51 -22 76t-64 25q-26 0 -48 -9.5t-40 -25.5l-39 10l15 238l14 12q34 -13 71 -19.5t69 -6.5q35 0 62.5 7t51.5 20l14 -31q-22 -37 -56.5 -56t-80.5 -19q-31 0 -56 6t-44 13l-8 -121
q18 14 44.5 23.5t57.5 9.5q40 0 69 -12t47.5 -31.5t27.5 -45t9 -52.5q0 -30 -10.5 -59.5t-32 -52t-54.5 -37t-79 -14.5z" />
    <glyph glyph-name="uni2156" unicode="&#x2156;" horiz-adv-x="1090" 
d="M105 158q-22 0 -36 17.5t-14 43.5q0 41 34 81t91 77q53 36 79.5 62.5t26.5 72.5q0 37 -21 58.5t-59 21.5q-28 0 -49 -13t-31 -36q18 -6 28 -19.5t10 -31.5q0 -22 -13.5 -37.5t-38.5 -15.5q-24 0 -39.5 19t-15.5 47q0 26 11 50.5t32 43t52 30t69 11.5q78 0 119.5 -41
t41.5 -95q0 -27 -11.5 -48.5t-31 -38t-45 -31t-53.5 -28.5q-53 -29 -82 -51t-42 -53l1 -2q15 10 33.5 16t38.5 6q18 0 34 -5.5t30 -11.5t26.5 -11.5t24.5 -5.5q20 0 30 18t20 61l37 -4q-6 -85 -32 -121t-66 -36q-27 0 -46.5 11t-35.5 24t-30.5 24t-31.5 11q-4 0 -7.5 -0.5
t-5.5 -1.5q4 -3 6.5 -9.5t2.5 -15.5q0 -17 -11 -30t-30 -13zM278 -82l249 361l247 361h69l-249 -361l-247 -361h-69zM857 -82q-32 0 -60.5 7.5t-50 21t-34 32.5t-12.5 41q0 24 15 41.5t39 17.5q23 0 35 -15t12 -34q0 -14 -7 -26.5t-17 -19.5q10 -7 28 -13t43 -6
q44 0 67.5 27.5t23.5 77.5q0 51 -22 76t-64 25q-26 0 -48 -9.5t-40 -25.5l-39 10l15 238l14 12q34 -13 71 -19.5t69 -6.5q35 0 62.5 7t51.5 20l14 -31q-22 -37 -56.5 -56t-80.5 -19q-31 0 -56 6t-44 13l-8 -121q18 14 44.5 23.5t57.5 9.5q40 0 69 -12t47.5 -31.5t27.5 -45
t9 -52.5q0 -30 -10.5 -59.5t-32 -52t-54.5 -37t-79 -14.5z" />
    <glyph glyph-name="uni2157" unicode="&#x2157;" horiz-adv-x="1070" 
d="M215 158q-72 0 -115.5 30.5t-43.5 75.5q0 25 15 41.5t40 16.5q24 0 36.5 -15t12.5 -34q0 -14 -7.5 -25.5t-17.5 -18.5q9 -11 29 -18t45 -7q40 0 62 23t22 63q0 42 -22.5 66t-84.5 24h-18v49h16q58 0 79.5 24.5t21.5 65.5q0 37 -20 56t-57 19q-23 0 -41 -7.5t-28 -16.5
q13 -6 21 -18t8 -28q0 -19 -12 -34t-37 -15q-23 0 -38 16t-15 41q0 43 43.5 75.5t113.5 32.5q77 0 117.5 -35t40.5 -81q0 -40 -29 -71.5t-94 -43.5v-3q66 -5 98.5 -35.5t32.5 -76.5q0 -56 -46.5 -96t-127.5 -40zM258 -82l249 361l247 361h69l-249 -361l-247 -361h-69z
M837 -82q-32 0 -60.5 7.5t-50 21t-34 32.5t-12.5 41q0 24 15 41.5t39 17.5q23 0 35 -15t12 -34q0 -14 -7 -26.5t-17 -19.5q10 -7 28 -13t43 -6q44 0 67.5 27.5t23.5 77.5q0 51 -22 76t-64 25q-26 0 -48 -9.5t-40 -25.5l-39 10l15 238l14 12q34 -13 71 -19.5t69 -6.5
q35 0 62.5 7t51.5 20l14 -31q-22 -37 -56.5 -56t-80.5 -19q-31 0 -56 6t-44 13l-8 -121q18 14 44.5 23.5t57.5 9.5q40 0 69 -12t47.5 -31.5t27.5 -45t9 -52.5q0 -30 -10.5 -59.5t-32 -52t-54.5 -37t-79 -14.5z" />
    <glyph glyph-name="uni2158" unicode="&#x2158;" horiz-adv-x="1100" 
d="M178 170v52h75v79h-210v55l180 280h112v-283h73v-52h-73v-79h62v-52h-219zM105 353h149v222h-11l-138 -220v-2zM288 -82l249 361l247 361h69l-249 -361l-247 -361h-69zM867 -82q-32 0 -60.5 7.5t-50 21t-34 32.5t-12.5 41q0 24 15 41.5t39 17.5q23 0 35 -15t12 -34
q0 -14 -7 -26.5t-17 -19.5q10 -7 28 -13t43 -6q44 0 67.5 27.5t23.5 77.5q0 51 -22 76t-64 25q-26 0 -48 -9.5t-40 -25.5l-39 10l15 238l14 12q34 -13 71 -19.5t69 -6.5q35 0 62.5 7t51.5 20l14 -31q-22 -37 -56.5 -56t-80.5 -19q-31 0 -56 6t-44 13l-8 -121
q18 14 44.5 23.5t57.5 9.5q40 0 69 -12t47.5 -31.5t27.5 -45t9 -52.5q0 -30 -10.5 -59.5t-32 -52t-54.5 -37t-79 -14.5z" />
    <glyph glyph-name="uni2159" unicode="&#x2159;" horiz-adv-x="1085" 
d="M90 170v53h104v310q-9 -4 -23 -6.5t-30 -2.5q-13 0 -28 2.5t-25 5.5v44q43 -2 81.5 13.5t55.5 43.5h57v-410h102v-53h-294zM288 -82l249 361l247 361h69l-249 -361l-247 -361h-69zM869 -82q-40 0 -72 17.5t-53.5 47t-33 70t-11.5 86.5q0 120 54 190.5t146 70.5
q62 0 94 -27.5t32 -64.5q0 -24 -14 -40.5t-36 -16.5t-34 13.5t-12 32.5q0 13 5.5 24t15.5 17q-10 7 -23.5 11.5t-29.5 4.5q-50 0 -79 -46t-28 -150q17 28 44 44.5t62 16.5q61 0 97 -39t36 -101q0 -31 -10 -60t-30 -51.5t-50 -36t-70 -13.5zM870 -35q34 0 50.5 28t16.5 78
q0 47 -17.5 74t-52.5 27q-33 0 -53.5 -27.5t-20.5 -74.5t22.5 -76t54.5 -29z" />
    <glyph glyph-name="uni215A" unicode="&#x215a;" horiz-adv-x="1055" 
d="M212 158q-32 0 -60.5 7.5t-50 21t-34 32.5t-12.5 41q0 24 15 41.5t39 17.5q23 0 35 -15t12 -34q0 -14 -7 -26.5t-17 -19.5q10 -7 28 -13t43 -6q44 0 67.5 27.5t23.5 77.5q0 51 -22 76t-64 25q-26 0 -48 -9.5t-40 -25.5l-39 10l15 238l14 12q34 -13 71 -19.5t69 -6.5
q35 0 62.5 7t51.5 20l14 -31q-22 -37 -56.5 -56t-80.5 -19q-31 0 -56 6t-44 13l-8 -121q18 14 44.5 23.5t57.5 9.5q40 0 69 -12t47.5 -31.5t27.5 -45t9 -52.5q0 -30 -10.5 -59.5t-32 -52t-54.5 -37t-79 -14.5zM258 -82l249 361l247 361h69l-249 -361l-247 -361h-69zM839 -82
q-40 0 -72 17.5t-53.5 47t-33 70t-11.5 86.5q0 120 54 190.5t146 70.5q62 0 94 -27.5t32 -64.5q0 -24 -14 -40.5t-36 -16.5t-34 13.5t-12 32.5q0 13 5.5 24t15.5 17q-10 7 -23.5 11.5t-29.5 4.5q-50 0 -79 -46t-28 -150q17 28 44 44.5t62 16.5q61 0 97 -39t36 -101
q0 -31 -10 -60t-30 -51.5t-50 -36t-70 -13.5zM840 -35q34 0 50.5 28t16.5 78q0 47 -17.5 74t-52.5 27q-33 0 -53.5 -27.5t-20.5 -74.5t22.5 -76t54.5 -29z" />
    <glyph glyph-name="oneeighth" unicode="&#x215b;" horiz-adv-x="1090" 
d="M90 170v53h104v310q-9 -4 -23 -6.5t-30 -2.5q-13 0 -28 2.5t-25 5.5v44q43 -2 81.5 13.5t55.5 43.5h57v-410h102v-53h-294zM288 -82l249 361l247 361h69l-249 -361l-247 -361h-69zM866 -82q-77 0 -117.5 36.5t-40.5 86.5q0 33 21.5 61t64.5 44q-35 18 -55.5 45.5
t-20.5 70.5q0 55 42.5 96.5t111.5 41.5q71 0 108.5 -34.5t37.5 -80.5q0 -34 -20.5 -60t-58.5 -41q42 -18 67 -47.5t25 -71.5q0 -61 -46 -104t-119 -43zM906 197q22 16 31 39t9 45q0 28 -19.5 50.5t-56.5 22.5q-34 0 -53 -20t-19 -47q0 -37 28 -57t80 -33zM872 -36
q37 0 58 22.5t21 51.5q0 37 -31.5 56.5t-96.5 38.5q-19 -14 -29.5 -35t-10.5 -47q0 -37 22.5 -62t66.5 -25z" />
    <glyph glyph-name="threeeighths" unicode="&#x215c;" horiz-adv-x="1060" 
d="M215 158q-72 0 -115.5 30.5t-43.5 75.5q0 25 15 41.5t40 16.5q24 0 36.5 -15t12.5 -34q0 -14 -7.5 -25.5t-17.5 -18.5q9 -11 29 -18t45 -7q40 0 62 23t22 63q0 42 -22.5 66t-84.5 24h-18v49h16q58 0 79.5 24.5t21.5 65.5q0 37 -20 56t-57 19q-23 0 -41 -7.5t-28 -16.5
q13 -6 21 -18t8 -28q0 -19 -12 -34t-37 -15q-23 0 -38 16t-15 41q0 43 43.5 75.5t113.5 32.5q77 0 117.5 -35t40.5 -81q0 -40 -29 -71.5t-94 -43.5v-3q66 -5 98.5 -35.5t32.5 -76.5q0 -56 -46.5 -96t-127.5 -40zM258 -82l249 361l247 361h69l-249 -361l-247 -361h-69z
M836 -82q-77 0 -117.5 36.5t-40.5 86.5q0 33 21.5 61t64.5 44q-35 18 -55.5 45.5t-20.5 70.5q0 55 42.5 96.5t111.5 41.5q71 0 108.5 -34.5t37.5 -80.5q0 -34 -20.5 -60t-58.5 -41q42 -18 67 -47.5t25 -71.5q0 -61 -46 -104t-119 -43zM876 197q22 16 31 39t9 45
q0 28 -19.5 50.5t-56.5 22.5q-34 0 -53 -20t-19 -47q0 -37 28 -57t80 -33zM842 -36q37 0 58 22.5t21 51.5q0 37 -31.5 56.5t-96.5 38.5q-19 -14 -29.5 -35t-10.5 -47q0 -37 22.5 -62t66.5 -25z" />
    <glyph glyph-name="fiveeighths" unicode="&#x215d;" horiz-adv-x="1060" 
d="M212 158q-32 0 -60.5 7.5t-50 21t-34 32.5t-12.5 41q0 24 15 41.5t39 17.5q23 0 35 -15t12 -34q0 -14 -7 -26.5t-17 -19.5q10 -7 28 -13t43 -6q44 0 67.5 27.5t23.5 77.5q0 51 -22 76t-64 25q-26 0 -48 -9.5t-40 -25.5l-39 10l15 238l14 12q34 -13 71 -19.5t69 -6.5
q35 0 62.5 7t51.5 20l14 -31q-22 -37 -56.5 -56t-80.5 -19q-31 0 -56 6t-44 13l-8 -121q18 14 44.5 23.5t57.5 9.5q40 0 69 -12t47.5 -31.5t27.5 -45t9 -52.5q0 -30 -10.5 -59.5t-32 -52t-54.5 -37t-79 -14.5zM258 -82l249 361l247 361h69l-249 -361l-247 -361h-69zM836 -82
q-77 0 -117.5 36.5t-40.5 86.5q0 33 21.5 61t64.5 44q-35 18 -55.5 45.5t-20.5 70.5q0 55 42.5 96.5t111.5 41.5q71 0 108.5 -34.5t37.5 -80.5q0 -34 -20.5 -60t-58.5 -41q42 -18 67 -47.5t25 -71.5q0 -61 -46 -104t-119 -43zM876 197q22 16 31 39t9 45q0 28 -19.5 50.5
t-56.5 22.5q-34 0 -53 -20t-19 -47q0 -37 28 -57t80 -33zM842 -36q37 0 58 22.5t21 51.5q0 37 -31.5 56.5t-96.5 38.5q-19 -14 -29.5 -35t-10.5 -47q0 -37 22.5 -62t66.5 -25z" />
    <glyph glyph-name="seveneighths" unicode="&#x215e;" horiz-adv-x="985" 
d="M197 158q-23 0 -37 14.5t-14 39.5q0 54 37.5 125t111.5 155q5 6 20.5 22.5t24.5 24.5l-4 5q-18 -12 -37 -18.5t-36 -6.5q-34 0 -56.5 15.5t-42.5 15.5q-19 0 -29 -21.5t-17 -84.5h-50v187h53l6 -56h4q10 33 25.5 46t36.5 13t36.5 -10.5t28.5 -23t25.5 -23t27.5 -10.5
q4 0 7.5 0.5t5.5 1.5q-3 4 -6 11.5t-3 14.5q0 19 12 32t34 13q21 0 33.5 -14.5t12.5 -33.5t-12.5 -38t-29.5 -41q-43 -50 -73.5 -117.5t-43.5 -177.5q-2 -28 -14 -44t-37 -16zM183 -82l249 361l247 361h69l-249 -361l-247 -361h-69zM761 -82q-77 0 -117.5 36.5t-40.5 86.5
q0 33 21.5 61t64.5 44q-35 18 -55.5 45.5t-20.5 70.5q0 55 42.5 96.5t111.5 41.5q71 0 108.5 -34.5t37.5 -80.5q0 -34 -20.5 -60t-58.5 -41q42 -18 67 -47.5t25 -71.5q0 -61 -46 -104t-119 -43zM801 197q22 16 31 39t9 45q0 28 -19.5 50.5t-56.5 22.5q-34 0 -53 -20t-19 -47
q0 -37 28 -57t80 -33zM767 -36q37 0 58 22.5t21 51.5q0 37 -31.5 56.5t-96.5 38.5q-19 -14 -29.5 -35t-10.5 -47q0 -37 22.5 -62t66.5 -25z" />
    <glyph glyph-name="minus" unicode="&#x2212;" horiz-adv-x="520" 
d="M73 283v68h374v-68h-374z" />
    <glyph glyph-name="dotmath" unicode="&#x22c5;" horiz-adv-x="331" 
d="M166 253q-28 0 -47 19t-19 45t19 45t47 19q27 0 46 -19t19 -45t-19 -45t-46 -19z" />
    <glyph glyph-name="uniE00C" unicode="&#x261a;" horiz-adv-x="1473" 
d="M1000 -8q-34 0 -52.5 27t-31.5 58l-12 29q63 33 103.5 77t63.5 107l-18 7q-52 -100 -133 -150t-221 -50h-16t-20 1l-1 3q12 7 22.5 21t10.5 30q0 13 -7 24.5t-24 23.5q5 7 8.5 14.5t3.5 15.5q0 16 -9 28.5t-28 26.5q7 9 11.5 17.5t4.5 21.5t-8.5 22.5t-22.5 16.5
q14 5 27.5 12t26.5 18q4 -25 14.5 -52t29 -49.5t45.5 -37t65 -14.5q17 0 35.5 4.5t31.5 11.5l-5 18q-13 -4 -27.5 -6.5t-27.5 -2.5q-34 0 -58 15t-40.5 38.5t-25 53t-10.5 57.5q-1 11 -2.5 17t-8.5 6q-4 0 -7.5 -4t-9.5 -11q-33 -39 -84 -50.5t-117 -14.5q-4 0 -8 -1.5
t-8 -3.5q-23 -13 -53 -26t-60 -13q-37 0 -64.5 11t-27.5 30q0 11 8 17.5t18 10.5q95 36 157 66t96 51l-9 13q-20 -8 -38 -14.5t-40 -14.5q-103 1 -171 3t-110 5t-64.5 7t-35.5 10t-19.5 13t-6.5 15q0 28 110.5 51.5t359.5 23.5q89 0 161 -11t127 -28t96 -37t69 -38l10 14
q-12 11 -28.5 21.5t-29.5 20.5q16 34 33.5 60t51.5 26q30 0 50.5 -19t20.5 -46q0 -9 -3.5 -20t-9.5 -20l-15 -22l9 -8l23 16q12 8 24 12t24 4q28 0 47.5 -20t19.5 -47q0 -19 -10.5 -36.5t-37.5 -31.5l-19 -10l3 -14h27q46 0 68 -19.5t22 -49.5t-22 -49.5t-68 -19.5h-27
l-3 -14l19 -10q27 -14 37.5 -31.5t10.5 -36.5q0 -27 -19.5 -47t-47.5 -20q-12 0 -24 4t-24 12l-23 16l-9 -8l15 -22q6 -9 9.5 -20t3.5 -20q0 -27 -20.5 -46t-50.5 -19zM1351 0q-58 22 -94.5 40.5t-76.5 41.5q18 13 30.5 34t12.5 48q0 16 -7.5 33.5t-22.5 30.5l1 3
q37 7 60 31t23 61t-23 61t-60 31l-1 3q15 13 22.5 30.5t7.5 33.5q0 27 -12.5 48t-30.5 34q40 23 76.5 41.5t94.5 40.5l13 -4q32 -90 45.5 -167.5t13.5 -151.5t-13.5 -151.5t-45.5 -167.5zM489 267q-22 0 -57 6.5t-75 21.5l1 3q38 4 69.5 15t52.5 25q31 1 50.5 4.5t49.5 7.5
q25 -7 31.5 -13.5t6.5 -16.5t-12 -20t-30 -17t-41.5 -11.5t-45.5 -4.5zM498 173q-32 0 -63.5 8.5t-56 21.5t-39.5 28t-15 28q0 3 1.5 7t5.5 7q43 -22 91.5 -29.5t77.5 -7.5q28 0 57 9t53 21q20 -12 24.5 -20.5t4.5 -12.5q0 -10 -12 -20.5t-31.5 -19.5t-45 -14.5t-52.5 -5.5z
M513 85q-34 0 -64 8t-52.5 20.5t-36 27.5t-13.5 29q0 4 1 8.5t3 8.5q30 -22 73 -33.5t77 -11.5t69.5 10t69.5 29q11 -7 16 -14t5 -14q0 -13 -14 -25.5t-36 -22t-48 -15t-50 -5.5z" />
    <glyph glyph-name="uniE00C" unicode="&#xe00c;" horiz-adv-x="1473" 
d="M1000 -8q-34 0 -52.5 27t-31.5 58l-12 29q63 33 103.5 77t63.5 107l-18 7q-52 -100 -133 -150t-221 -50h-16t-20 1l-1 3q12 7 22.5 21t10.5 30q0 13 -7 24.5t-24 23.5q5 7 8.5 14.5t3.5 15.5q0 16 -9 28.5t-28 26.5q7 9 11.5 17.5t4.5 21.5t-8.5 22.5t-22.5 16.5
q14 5 27.5 12t26.5 18q4 -25 14.5 -52t29 -49.5t45.5 -37t65 -14.5q17 0 35.5 4.5t31.5 11.5l-5 18q-13 -4 -27.5 -6.5t-27.5 -2.5q-34 0 -58 15t-40.5 38.5t-25 53t-10.5 57.5q-1 11 -2.5 17t-8.5 6q-4 0 -7.5 -4t-9.5 -11q-33 -39 -84 -50.5t-117 -14.5q-4 0 -8 -1.5
t-8 -3.5q-23 -13 -53 -26t-60 -13q-37 0 -64.5 11t-27.5 30q0 11 8 17.5t18 10.5q95 36 157 66t96 51l-9 13q-20 -8 -38 -14.5t-40 -14.5q-103 1 -171 3t-110 5t-64.5 7t-35.5 10t-19.5 13t-6.5 15q0 28 110.5 51.5t359.5 23.5q89 0 161 -11t127 -28t96 -37t69 -38l10 14
q-12 11 -28.5 21.5t-29.5 20.5q16 34 33.5 60t51.5 26q30 0 50.5 -19t20.5 -46q0 -9 -3.5 -20t-9.5 -20l-15 -22l9 -8l23 16q12 8 24 12t24 4q28 0 47.5 -20t19.5 -47q0 -19 -10.5 -36.5t-37.5 -31.5l-19 -10l3 -14h27q46 0 68 -19.5t22 -49.5t-22 -49.5t-68 -19.5h-27
l-3 -14l19 -10q27 -14 37.5 -31.5t10.5 -36.5q0 -27 -19.5 -47t-47.5 -20q-12 0 -24 4t-24 12l-23 16l-9 -8l15 -22q6 -9 9.5 -20t3.5 -20q0 -27 -20.5 -46t-50.5 -19zM1351 0q-58 22 -94.5 40.5t-76.5 41.5q18 13 30.5 34t12.5 48q0 16 -7.5 33.5t-22.5 30.5l1 3
q37 7 60 31t23 61t-23 61t-60 31l-1 3q15 13 22.5 30.5t7.5 33.5q0 27 -12.5 48t-30.5 34q40 23 76.5 41.5t94.5 40.5l13 -4q32 -90 45.5 -167.5t13.5 -151.5t-13.5 -151.5t-45.5 -167.5zM489 267q-22 0 -57 6.5t-75 21.5l1 3q38 4 69.5 15t52.5 25q31 1 50.5 4.5t49.5 7.5
q25 -7 31.5 -13.5t6.5 -16.5t-12 -20t-30 -17t-41.5 -11.5t-45.5 -4.5zM498 173q-32 0 -63.5 8.5t-56 21.5t-39.5 28t-15 28q0 3 1.5 7t5.5 7q43 -22 91.5 -29.5t77.5 -7.5q28 0 57 9t53 21q20 -12 24.5 -20.5t4.5 -12.5q0 -10 -12 -20.5t-31.5 -19.5t-45 -14.5t-52.5 -5.5z
M513 85q-34 0 -64 8t-52.5 20.5t-36 27.5t-13.5 29q0 4 1 8.5t3 8.5q30 -22 73 -33.5t77 -11.5t69.5 10t69.5 29q11 -7 16 -14t5 -14q0 -13 -14 -25.5t-36 -22t-48 -15t-50 -5.5z" />
    <glyph glyph-name="uniE00D" unicode="&#x261b;" horiz-adv-x="1473" 
d="M473 -8q-30 0 -50.5 19t-20.5 46q0 9 3.5 20t9.5 20l15 22l-9 8l-23 -16q-12 -8 -24 -12t-24 -4q-28 0 -47.5 20t-19.5 47q0 19 10.5 36.5t37.5 31.5l19 10l-3 14h-27q-46 0 -68 19.5t-22 49.5t22 49.5t68 19.5h27l3 14l-19 10q-27 14 -37.5 31.5t-10.5 36.5
q0 27 19.5 47t47.5 20q12 0 24 -4t24 -12l23 -16l9 8l-15 22q-6 9 -9.5 20t-3.5 20q0 27 20.5 46t50.5 19q34 0 51.5 -26t33.5 -60q-13 -10 -29.5 -20.5t-28.5 -21.5l10 -14q28 18 69 38t96 37t127 28t161 11q249 0 359.5 -23.5t110.5 -51.5q0 -8 -6.5 -15t-19.5 -13
t-35.5 -10t-64.5 -7t-110 -5t-171 -3q-22 8 -40 14.5t-38 14.5l-9 -13q34 -21 96 -51t157 -66q10 -4 18 -10.5t8 -17.5q0 -19 -27.5 -30t-64.5 -11q-30 0 -60 13t-53 26q-4 2 -8 3.5t-8 1.5q-66 3 -117 14.5t-84 50.5q-6 7 -9.5 11t-7.5 4q-7 0 -8.5 -6t-2.5 -17
q-2 -28 -10.5 -57.5t-25 -53t-40.5 -38.5t-58 -15q-13 0 -27.5 2.5t-27.5 6.5l-5 -18q13 -7 31.5 -11.5t35.5 -4.5q38 0 65 14.5t45.5 37t29 49.5t14.5 52q13 -11 26.5 -18t27.5 -12q-14 -7 -22.5 -16.5t-8.5 -22.5t4.5 -21.5t11.5 -17.5q-19 -14 -28 -26.5t-9 -28.5
q0 -8 3.5 -15.5t8.5 -14.5q-17 -12 -24 -23.5t-7 -24.5q0 -16 10.5 -30t22.5 -21l-1 -3q-6 -1 -20 -1h-16q-140 0 -221 50t-133 150l-18 -7q23 -63 63.5 -107t103.5 -77l-12 -29q-13 -31 -31.5 -58t-52.5 -27zM122 0l-13 4q-32 90 -45.5 167.5t-13.5 151.5t13.5 151.5
t45.5 167.5l13 4q58 -22 94.5 -40.5t76.5 -41.5q-18 -13 -30.5 -34t-12.5 -48q0 -16 7.5 -33.5t22.5 -30.5l-1 -3q-37 -7 -60 -31t-23 -61t23 -61t60 -31l1 -3q-15 -13 -22.5 -30.5t-7.5 -33.5q0 -27 12.5 -48t30.5 -34q-40 -23 -76.5 -41.5t-94.5 -40.5zM984 267
q-22 0 -45.5 4.5t-41.5 11.5t-30 17t-12 20t6.5 16.5t31.5 13.5q30 -4 49.5 -7.5t50.5 -4.5q21 -14 52.5 -25t69.5 -15l1 -3q-40 -15 -75 -21.5t-57 -6.5zM975 173q-27 0 -52.5 5.5t-45 14.5t-31.5 19.5t-12 20.5q0 4 4.5 12.5t24.5 20.5q24 -12 53 -21t57 -9q29 0 77.5 7.5
t91.5 29.5q4 -3 5.5 -7t1.5 -7q0 -13 -15 -28t-39.5 -28t-56 -21.5t-63.5 -8.5zM960 85q-24 0 -50 5.5t-48 15t-36 22t-14 25.5q0 7 5 14t16 14q34 -19 69.5 -29t69.5 -10t77 11.5t73 33.5q2 -4 3 -8.5t1 -8.5q0 -14 -13.5 -29t-36 -27.5t-52.5 -20.5t-64 -8z" />
    <glyph glyph-name="uniE00D" unicode="&#xe00d;" horiz-adv-x="1473" 
d="M473 -8q-30 0 -50.5 19t-20.5 46q0 9 3.5 20t9.5 20l15 22l-9 8l-23 -16q-12 -8 -24 -12t-24 -4q-28 0 -47.5 20t-19.5 47q0 19 10.5 36.5t37.5 31.5l19 10l-3 14h-27q-46 0 -68 19.5t-22 49.5t22 49.5t68 19.5h27l3 14l-19 10q-27 14 -37.5 31.5t-10.5 36.5
q0 27 19.5 47t47.5 20q12 0 24 -4t24 -12l23 -16l9 8l-15 22q-6 9 -9.5 20t-3.5 20q0 27 20.5 46t50.5 19q34 0 51.5 -26t33.5 -60q-13 -10 -29.5 -20.5t-28.5 -21.5l10 -14q28 18 69 38t96 37t127 28t161 11q249 0 359.5 -23.5t110.5 -51.5q0 -8 -6.5 -15t-19.5 -13
t-35.5 -10t-64.5 -7t-110 -5t-171 -3q-22 8 -40 14.5t-38 14.5l-9 -13q34 -21 96 -51t157 -66q10 -4 18 -10.5t8 -17.5q0 -19 -27.5 -30t-64.5 -11q-30 0 -60 13t-53 26q-4 2 -8 3.5t-8 1.5q-66 3 -117 14.5t-84 50.5q-6 7 -9.5 11t-7.5 4q-7 0 -8.5 -6t-2.5 -17
q-2 -28 -10.5 -57.5t-25 -53t-40.5 -38.5t-58 -15q-13 0 -27.5 2.5t-27.5 6.5l-5 -18q13 -7 31.5 -11.5t35.5 -4.5q38 0 65 14.5t45.5 37t29 49.5t14.5 52q13 -11 26.5 -18t27.5 -12q-14 -7 -22.5 -16.5t-8.5 -22.5t4.5 -21.5t11.5 -17.5q-19 -14 -28 -26.5t-9 -28.5
q0 -8 3.5 -15.5t8.5 -14.5q-17 -12 -24 -23.5t-7 -24.5q0 -16 10.5 -30t22.5 -21l-1 -3q-6 -1 -20 -1h-16q-140 0 -221 50t-133 150l-18 -7q23 -63 63.5 -107t103.5 -77l-12 -29q-13 -31 -31.5 -58t-52.5 -27zM122 0l-13 4q-32 90 -45.5 167.5t-13.5 151.5t13.5 151.5
t45.5 167.5l13 4q58 -22 94.5 -40.5t76.5 -41.5q-18 -13 -30.5 -34t-12.5 -48q0 -16 7.5 -33.5t22.5 -30.5l-1 -3q-37 -7 -60 -31t-23 -61t23 -61t60 -31l1 -3q-15 -13 -22.5 -30.5t-7.5 -33.5q0 -27 12.5 -48t30.5 -34q-40 -23 -76.5 -41.5t-94.5 -40.5zM984 267
q-22 0 -45.5 4.5t-41.5 11.5t-30 17t-12 20t6.5 16.5t31.5 13.5q30 -4 49.5 -7.5t50.5 -4.5q21 -14 52.5 -25t69.5 -15l1 -3q-40 -15 -75 -21.5t-57 -6.5zM975 173q-27 0 -52.5 5.5t-45 14.5t-31.5 19.5t-12 20.5q0 4 4.5 12.5t24.5 20.5q24 -12 53 -21t57 -9q29 0 77.5 7.5
t91.5 29.5q4 -3 5.5 -7t1.5 -7q0 -13 -15 -28t-39.5 -28t-56 -21.5t-63.5 -8.5zM960 85q-24 0 -50 5.5t-48 15t-36 22t-14 25.5q0 7 5 14t16 14q34 -19 69.5 -29t69.5 -10t77 11.5t73 33.5q2 -4 3 -8.5t1 -8.5q0 -14 -13.5 -29t-36 -27.5t-52.5 -20.5t-64 -8z" />
    <glyph glyph-name="uniE00A" unicode="&#x261c;" horiz-adv-x="1473" 
d="M656 62q-52 0 -105.5 7.5t-93.5 21.5q-53 18 -79.5 41.5t-26.5 49.5q0 8 2.5 14.5t7.5 11.5q-16 12 -25 25.5t-9 26.5q0 7 2.5 13.5t9.5 13.5q-34 19 -50.5 36.5t-16.5 29.5q0 13 8.5 19.5t18.5 10.5q78 29 133 50t95 37v2h-7q-54 0 -127.5 0.5t-142 4t-122.5 11.5
t-69 23q-5 5 -8 11.5t-3 16.5q0 7 2.5 14.5t7.5 13.5q24 27 138.5 42.5t323.5 15.5q126 0 208.5 -15t142.5 -42q14 37 36.5 59.5t59.5 22.5q46 0 67 -34t11 -72h1q10 7 22.5 10t22.5 3q13 0 25.5 -4.5t22.5 -12.5q41 28 83.5 54.5t88.5 50.5l13 -4q28 -72 43.5 -147.5
t15.5 -158.5q0 -78 -16.5 -163t-47.5 -157l-13 -4q-46 23 -89 49t-86 54q-10 -7 -23 -11.5t-26 -4.5q-12 0 -24 3.5t-23 10.5l-1 -1q10 -45 -13.5 -74t-65.5 -29q-37 0 -60 23.5t-33 57.5q-37 -12 -94.5 -19.5t-111.5 -7.5zM967 619q-23 0 -40.5 -16t-26.5 -49
q25 -12 47.5 -25t41.5 -26q14 16 21 30.5t7 34.5q0 19 -12.5 35t-37.5 16zM108 524q19 -5 66.5 -9.5t113.5 -7t146.5 -4.5t162.5 -3q36 16 67 34t72 43q-14 3 -31 5.5t-41 4.5t-59 3t-85 1q-185 0 -279.5 -10.5t-131.5 -23.5q-11 -4 -15 -8.5t-4 -8.5t5 -9t13 -7zM912 233
q40 0 72.5 12.5t53.5 34.5q14 13 19.5 31.5t5.5 32.5q0 57 -65.5 112.5t-193.5 102.5q-7 2 -13 3.5t-12 1.5q-7 0 -12.5 -3t-11.5 -7q-27 -19 -63.5 -40t-86 -43.5t-116.5 -49.5t-155 -58q-10 -3 -14 -7t-4 -7q0 -13 22.5 -26.5t43.5 -13.5q25 0 57.5 12.5t49.5 26.5
q3 3 7.5 4t8.5 1q68 3 116 20t85 69q7 11 10.5 14t6.5 3q7 0 9 -6.5t3 -17.5q15 -107 60.5 -154.5t116.5 -47.5zM1089 527q-17 0 -33.5 -9t-40.5 -34q23 -19 40.5 -38.5t27.5 -40.5q27 10 44.5 27t17.5 39q0 21 -15.5 38.5t-40.5 17.5zM598 94q4 -1 20 -1.5t26 -0.5
q140 0 227.5 34t156.5 108l-3 3q-24 -16 -52.5 -25t-64.5 -9q-41 0 -74 14.5t-58 40t-42 60t-26 74.5q-10 -10 -21.5 -18t-22.5 -14q17 -12 24 -23t7 -21q0 -7 -4 -14t-11 -13q23 -13 32 -23t9 -22q0 -7 -4 -13.5t-11 -12.5q19 -11 28 -22.5t9 -23.5q0 -20 -32.5 -40
t-113.5 -35zM1098 342q0 -17 -3.5 -34.5t-9.5 -33.5q11 -4 23 -5.5t23 -1.5q30 0 48 16.5t18 41.5q0 26 -19 43t-56 17q-7 0 -14.5 -1t-15.5 -2q3 -10 4.5 -20t1.5 -20zM421 285q17 -8 44.5 -11t50.5 -3q28 0 54 5t46.5 12.5t33 16t12.5 15.5q0 4 -5.5 10.5t-18.5 15.5
q-28 -12 -59.5 -18t-68.5 -8q-21 -12 -40.5 -20t-48.5 -12v-3zM362 257q0 -9 13.5 -20.5t35 -21t49.5 -16t57 -6.5q31 0 61.5 5.5t54.5 13.5t38.5 18t14.5 18q0 4 -6 10.5t-25 13.5q-29 -15 -69 -24.5t-73 -9.5q-32 0 -71 9t-73 25q-4 -4 -5.5 -8t-1.5 -7zM1138 179
q0 22 -13.5 39.5t-51.5 30.5q-11 -21 -28 -41t-37 -37q21 -25 39.5 -35t34.5 -10q25 0 40.5 16.5t15.5 36.5zM517 160q-33 0 -66.5 8.5t-60.5 22.5q-2 -3 -3 -6.5t-1 -7.5q0 -19 38.5 -41t99.5 -22q28 0 60.5 6t60 14.5t45.5 19.5t18 20q0 6 -6.5 13t-20.5 14
q-33 -18 -80 -29.5t-84 -11.5zM1009 90q0 18 -6.5 32.5t-19.5 28.5q-20 -15 -43.5 -28t-48.5 -23q10 -31 25.5 -47t39.5 -16q26 0 39.5 16t13.5 37z" />
    <glyph glyph-name="uniE00A" unicode="&#xe00a;" horiz-adv-x="1473" 
d="M656 62q-52 0 -105.5 7.5t-93.5 21.5q-53 18 -79.5 41.5t-26.5 49.5q0 8 2.5 14.5t7.5 11.5q-16 12 -25 25.5t-9 26.5q0 7 2.5 13.5t9.5 13.5q-34 19 -50.5 36.5t-16.5 29.5q0 13 8.5 19.5t18.5 10.5q78 29 133 50t95 37v2h-7q-54 0 -127.5 0.5t-142 4t-122.5 11.5
t-69 23q-5 5 -8 11.5t-3 16.5q0 7 2.5 14.5t7.5 13.5q24 27 138.5 42.5t323.5 15.5q126 0 208.5 -15t142.5 -42q14 37 36.5 59.5t59.5 22.5q46 0 67 -34t11 -72h1q10 7 22.5 10t22.5 3q13 0 25.5 -4.5t22.5 -12.5q41 28 83.5 54.5t88.5 50.5l13 -4q28 -72 43.5 -147.5
t15.5 -158.5q0 -78 -16.5 -163t-47.5 -157l-13 -4q-46 23 -89 49t-86 54q-10 -7 -23 -11.5t-26 -4.5q-12 0 -24 3.5t-23 10.5l-1 -1q10 -45 -13.5 -74t-65.5 -29q-37 0 -60 23.5t-33 57.5q-37 -12 -94.5 -19.5t-111.5 -7.5zM967 619q-23 0 -40.5 -16t-26.5 -49
q25 -12 47.5 -25t41.5 -26q14 16 21 30.5t7 34.5q0 19 -12.5 35t-37.5 16zM108 524q19 -5 66.5 -9.5t113.5 -7t146.5 -4.5t162.5 -3q36 16 67 34t72 43q-14 3 -31 5.5t-41 4.5t-59 3t-85 1q-185 0 -279.5 -10.5t-131.5 -23.5q-11 -4 -15 -8.5t-4 -8.5t5 -9t13 -7zM912 233
q40 0 72.5 12.5t53.5 34.5q14 13 19.5 31.5t5.5 32.5q0 57 -65.5 112.5t-193.5 102.5q-7 2 -13 3.5t-12 1.5q-7 0 -12.5 -3t-11.5 -7q-27 -19 -63.5 -40t-86 -43.5t-116.5 -49.5t-155 -58q-10 -3 -14 -7t-4 -7q0 -13 22.5 -26.5t43.5 -13.5q25 0 57.5 12.5t49.5 26.5
q3 3 7.5 4t8.5 1q68 3 116 20t85 69q7 11 10.5 14t6.5 3q7 0 9 -6.5t3 -17.5q15 -107 60.5 -154.5t116.5 -47.5zM1089 527q-17 0 -33.5 -9t-40.5 -34q23 -19 40.5 -38.5t27.5 -40.5q27 10 44.5 27t17.5 39q0 21 -15.5 38.5t-40.5 17.5zM598 94q4 -1 20 -1.5t26 -0.5
q140 0 227.5 34t156.5 108l-3 3q-24 -16 -52.5 -25t-64.5 -9q-41 0 -74 14.5t-58 40t-42 60t-26 74.5q-10 -10 -21.5 -18t-22.5 -14q17 -12 24 -23t7 -21q0 -7 -4 -14t-11 -13q23 -13 32 -23t9 -22q0 -7 -4 -13.5t-11 -12.5q19 -11 28 -22.5t9 -23.5q0 -20 -32.5 -40
t-113.5 -35zM1098 342q0 -17 -3.5 -34.5t-9.5 -33.5q11 -4 23 -5.5t23 -1.5q30 0 48 16.5t18 41.5q0 26 -19 43t-56 17q-7 0 -14.5 -1t-15.5 -2q3 -10 4.5 -20t1.5 -20zM421 285q17 -8 44.5 -11t50.5 -3q28 0 54 5t46.5 12.5t33 16t12.5 15.5q0 4 -5.5 10.5t-18.5 15.5
q-28 -12 -59.5 -18t-68.5 -8q-21 -12 -40.5 -20t-48.5 -12v-3zM362 257q0 -9 13.5 -20.5t35 -21t49.5 -16t57 -6.5q31 0 61.5 5.5t54.5 13.5t38.5 18t14.5 18q0 4 -6 10.5t-25 13.5q-29 -15 -69 -24.5t-73 -9.5q-32 0 -71 9t-73 25q-4 -4 -5.5 -8t-1.5 -7zM1138 179
q0 22 -13.5 39.5t-51.5 30.5q-11 -21 -28 -41t-37 -37q21 -25 39.5 -35t34.5 -10q25 0 40.5 16.5t15.5 36.5zM517 160q-33 0 -66.5 8.5t-60.5 22.5q-2 -3 -3 -6.5t-1 -7.5q0 -19 38.5 -41t99.5 -22q28 0 60.5 6t60 14.5t45.5 19.5t18 20q0 6 -6.5 13t-20.5 14
q-33 -18 -80 -29.5t-84 -11.5zM1009 90q0 18 -6.5 32.5t-19.5 28.5q-20 -15 -43.5 -28t-48.5 -23q10 -31 25.5 -47t39.5 -16q26 0 39.5 16t13.5 37z" />
    <glyph glyph-name="uniE00B" unicode="&#x261e;" horiz-adv-x="1473" 
d="M518 8q-42 0 -65.5 29t-13.5 74l-1 1q-11 -7 -23 -10.5t-24 -3.5q-13 0 -26 4.5t-23 11.5q-43 -28 -86 -54t-89 -49l-13 4q-31 72 -47.5 157t-16.5 163q0 83 15.5 158.5t43.5 147.5l13 4q46 -24 88.5 -50.5t83.5 -54.5q10 8 22.5 12.5t25.5 4.5q10 0 22.5 -3t22.5 -10h1
q-10 38 11 72t67 34q37 0 59.5 -22.5t36.5 -59.5q60 27 142.5 42t208.5 15q209 0 323.5 -15.5t138.5 -42.5q5 -6 7.5 -13.5t2.5 -14.5q0 -10 -3 -16.5t-8 -11.5q-15 -15 -69 -23t-122.5 -11.5t-142 -4t-127.5 -0.5h-7v-2q40 -16 95 -37t133 -50q10 -4 18.5 -10.5t8.5 -19.5
q0 -12 -16.5 -29.5t-50.5 -36.5q7 -7 9.5 -13.5t2.5 -13.5q0 -13 -9 -26.5t-25 -25.5q5 -5 7.5 -11.5t2.5 -14.5q0 -26 -26.5 -49.5t-79.5 -41.5q-40 -14 -93.5 -21.5t-105.5 -7.5q-54 0 -111.5 7.5t-94.5 19.5q-10 -34 -33 -57.5t-60 -23.5zM456 568q0 -20 7 -34.5
t21 -30.5q19 13 41.5 26t47.5 25q-9 33 -26.5 49t-40.5 16q-25 0 -37.5 -16t-12.5 -35zM737 577q41 -25 72 -43t67 -34q82 1 162.5 3t146.5 4.5t113.5 7t66.5 9.5q8 2 13 7t5 9t-4 8.5t-15 8.5q-37 13 -131.5 23.5t-279.5 10.5q-50 0 -85 -1t-59 -3t-41 -4.5t-31 -5.5z
M561 233q71 0 116.5 47.5t60.5 154.5q1 11 3 17.5t9 6.5q3 0 6.5 -3t10.5 -14q37 -52 85 -69t116 -20q4 0 8.5 -1t7.5 -4q17 -14 49.5 -26.5t57.5 -12.5q21 0 43.5 13.5t22.5 26.5q0 3 -4 7t-14 7q-88 31 -155 58t-116.5 49.5t-86 43.5t-63.5 40q-6 4 -11.5 7t-12.5 3
q-6 0 -12 -1.5t-13 -3.5q-128 -47 -193.5 -102.5t-65.5 -112.5q0 -14 5.5 -32.5t19.5 -31.5q21 -22 53.5 -34.5t72.5 -12.5zM328 471q0 -22 17.5 -39t44.5 -27q10 21 27.5 40.5t40.5 38.5q-25 25 -41 34t-33 9q-25 0 -40.5 -17.5t-15.5 -38.5zM445 234q69 -74 156.5 -108
t227.5 -34q10 0 26 0.5t20 1.5l1 3q-81 15 -113.5 35t-32.5 40q0 12 9 23.5t28 22.5q-7 6 -11 12.5t-4 13.5q0 12 9 22t32 23q-7 6 -11 13t-4 14q0 10 7 21t24 23q-11 6 -22.5 14t-21.5 18q-9 -40 -26 -74.5t-42 -60t-58 -40t-74 -14.5q-36 0 -64.5 9t-52.5 25zM276 325
q0 -27 17.5 -43.5t47.5 -16.5q13 0 26 1.5t22 5.5q-7 16 -10.5 34t-3.5 36q0 11 1.5 22t5.5 21q-8 1 -16.5 1.5t-15.5 0.5q-37 0 -55.5 -17t-18.5 -45zM811 320q0 -7 12.5 -15.5t33 -16t46.5 -12.5t54 -5q23 0 50.5 3t44.5 11v3q-29 4 -48.5 12t-40.5 20q-37 2 -68.5 8
t-59.5 18q-13 -9 -18.5 -15.5t-5.5 -10.5zM787 248q0 -8 14.5 -18t38.5 -18t54.5 -13.5t61.5 -5.5q29 0 57 6.5t49.5 16t35 21t13.5 20.5q0 3 -1.5 7t-5.5 8q-34 -16 -73 -25t-71 -9q-33 0 -73 9.5t-69 24.5q-19 -8 -25 -14t-6 -10zM335 179q0 -20 15.5 -36.5t40.5 -16.5
q16 0 34.5 10t39.5 35q-20 17 -37 37t-28 41q-38 -13 -51.5 -30.5t-13.5 -39.5zM956 160q-37 0 -84 11.5t-80 29.5q-14 -7 -20.5 -14t-6.5 -13q0 -9 18 -20t45.5 -19.5t60 -14.5t60.5 -6q61 0 99.5 22t38.5 41q0 4 -1 7.5t-3 6.5q-27 -14 -60.5 -22.5t-66.5 -8.5zM464 90
q0 -21 13.5 -37t39.5 -16q24 0 39.5 16t25.5 47q-25 10 -48.5 23t-43.5 28q-14 -16 -20 -30.5t-6 -30.5z" />
    <glyph glyph-name="uniE00B" unicode="&#xe00b;" horiz-adv-x="1473" 
d="M518 8q-42 0 -65.5 29t-13.5 74l-1 1q-11 -7 -23 -10.5t-24 -3.5q-13 0 -26 4.5t-23 11.5q-43 -28 -86 -54t-89 -49l-13 4q-31 72 -47.5 157t-16.5 163q0 83 15.5 158.5t43.5 147.5l13 4q46 -24 88.5 -50.5t83.5 -54.5q10 8 22.5 12.5t25.5 4.5q10 0 22.5 -3t22.5 -10h1
q-10 38 11 72t67 34q37 0 59.5 -22.5t36.5 -59.5q60 27 142.5 42t208.5 15q209 0 323.5 -15.5t138.5 -42.5q5 -6 7.5 -13.5t2.5 -14.5q0 -10 -3 -16.5t-8 -11.5q-15 -15 -69 -23t-122.5 -11.5t-142 -4t-127.5 -0.5h-7v-2q40 -16 95 -37t133 -50q10 -4 18.5 -10.5t8.5 -19.5
q0 -12 -16.5 -29.5t-50.5 -36.5q7 -7 9.5 -13.5t2.5 -13.5q0 -13 -9 -26.5t-25 -25.5q5 -5 7.5 -11.5t2.5 -14.5q0 -26 -26.5 -49.5t-79.5 -41.5q-40 -14 -93.5 -21.5t-105.5 -7.5q-54 0 -111.5 7.5t-94.5 19.5q-10 -34 -33 -57.5t-60 -23.5zM456 568q0 -20 7 -34.5
t21 -30.5q19 13 41.5 26t47.5 25q-9 33 -26.5 49t-40.5 16q-25 0 -37.5 -16t-12.5 -35zM737 577q41 -25 72 -43t67 -34q82 1 162.5 3t146.5 4.5t113.5 7t66.5 9.5q8 2 13 7t5 9t-4 8.5t-15 8.5q-37 13 -131.5 23.5t-279.5 10.5q-50 0 -85 -1t-59 -3t-41 -4.5t-31 -5.5z
M561 233q71 0 116.5 47.5t60.5 154.5q1 11 3 17.5t9 6.5q3 0 6.5 -3t10.5 -14q37 -52 85 -69t116 -20q4 0 8.5 -1t7.5 -4q17 -14 49.5 -26.5t57.5 -12.5q21 0 43.5 13.5t22.5 26.5q0 3 -4 7t-14 7q-88 31 -155 58t-116.5 49.5t-86 43.5t-63.5 40q-6 4 -11.5 7t-12.5 3
q-6 0 -12 -1.5t-13 -3.5q-128 -47 -193.5 -102.5t-65.5 -112.5q0 -14 5.5 -32.5t19.5 -31.5q21 -22 53.5 -34.5t72.5 -12.5zM328 471q0 -22 17.5 -39t44.5 -27q10 21 27.5 40.5t40.5 38.5q-25 25 -41 34t-33 9q-25 0 -40.5 -17.5t-15.5 -38.5zM445 234q69 -74 156.5 -108
t227.5 -34q10 0 26 0.5t20 1.5l1 3q-81 15 -113.5 35t-32.5 40q0 12 9 23.5t28 22.5q-7 6 -11 12.5t-4 13.5q0 12 9 22t32 23q-7 6 -11 13t-4 14q0 10 7 21t24 23q-11 6 -22.5 14t-21.5 18q-9 -40 -26 -74.5t-42 -60t-58 -40t-74 -14.5q-36 0 -64.5 9t-52.5 25zM276 325
q0 -27 17.5 -43.5t47.5 -16.5q13 0 26 1.5t22 5.5q-7 16 -10.5 34t-3.5 36q0 11 1.5 22t5.5 21q-8 1 -16.5 1.5t-15.5 0.5q-37 0 -55.5 -17t-18.5 -45zM811 320q0 -7 12.5 -15.5t33 -16t46.5 -12.5t54 -5q23 0 50.5 3t44.5 11v3q-29 4 -48.5 12t-40.5 20q-37 2 -68.5 8
t-59.5 18q-13 -9 -18.5 -15.5t-5.5 -10.5zM787 248q0 -8 14.5 -18t38.5 -18t54.5 -13.5t61.5 -5.5q29 0 57 6.5t49.5 16t35 21t13.5 20.5q0 3 -1.5 7t-5.5 8q-34 -16 -73 -25t-71 -9q-33 0 -73 9.5t-69 24.5q-19 -8 -25 -14t-6 -10zM335 179q0 -20 15.5 -36.5t40.5 -16.5
q16 0 34.5 10t39.5 35q-20 17 -37 37t-28 41q-38 -13 -51.5 -30.5t-13.5 -39.5zM956 160q-37 0 -84 11.5t-80 29.5q-14 -7 -20.5 -14t-6.5 -13q0 -9 18 -20t45.5 -19.5t60 -14.5t60.5 -6q61 0 99.5 22t38.5 41q0 4 -1 7.5t-3 6.5q-27 -14 -60.5 -22.5t-66.5 -8.5zM464 90
q0 -21 13.5 -37t39.5 -16q24 0 39.5 16t25.5 47q-25 10 -48.5 23t-43.5 28q-14 -16 -20 -30.5t-6 -30.5z" />
    <glyph glyph-name="hcoslug" unicode="&#xe10b;" horiz-adv-x="694" 
d="M50 -100v800h594v-800h-594zM225 156q31 0 57 11t47 34q25 -25 44 -35t41 -10q32 0 55.5 25.5t24.5 68.5l-7 2q-7 -13 -17 -21t-26 -8q-15 0 -29 9.5t-33 31.5q11 15 23 25t23 17q7 -11 18.5 -18t24.5 -7q21 0 35.5 15.5t14.5 38.5t-14.5 37.5t-35.5 14.5
q-19 0 -33.5 -10t-26.5 -28q-1 20 -15 29t-34 8q4 7 6.5 15.5t2.5 18.5q0 26 -24.5 50t-70.5 24q-50 0 -79.5 -26.5t-29.5 -58.5q0 -22 7.5 -37.5t23.5 -31.5q-40 -13 -61 -36.5t-21 -54.5q0 -40 32 -66.5t77 -26.5zM285 369q-17 16 -27.5 29t-10.5 30q0 13 7.5 21t19.5 8
q13 0 21 -10.5t8 -27.5q0 -13 -5 -25t-13 -25zM353 296q-10 11 -19.5 22.5t-21.5 23.5q14 10 24.5 18.5t17.5 15.5q17 -17 15 -36t-16 -44zM261 219q-22 0 -37 15.5t-15 38.5q0 11 4 21.5t12 18.5q13 -13 33 -34.5t41 -47.5q-8 -7 -17.5 -9.5t-20.5 -2.5zM352 73h6l4 8
q2 -4 5.5 -6t8.5 -2q9 0 12.5 7t3.5 14q0 9 -4 14.5t-11 5.5q-4 0 -8 -2.5t-5 -6.5v27h-18v-7h6v-52zM125 74h30v7h-10v16h4q4 0 4.5 -1.5t1.5 -6.5h7v23h-7q-1 -5 -1.5 -6.5t-4.5 -1.5h-4v18h12q5 0 7.5 -2.5t3.5 -10.5h8v20h-51v-7h7v-41h-7v-7zM286 73q6 0 9.5 3t4.5 10
l-5 2q-1 -4 -2.5 -5.5t-2.5 -1.5q-2 0 -3 1.5t-1 3.5v20h13v7h-13v11l-12 -2v-9h-7v-7h7v-20q0 -6 3 -9.5t9 -3.5zM219 74h22v7h-4v15q0 4 2 7t5 3t4.5 -2t1.5 -5v-18h-4v-7h22v7h-6v19q0 6 -2.5 10t-9.5 4q-5 0 -8.5 -3t-5.5 -8v10h-17v-7h6v-25h-6v-7zM195 73q9 0 15 6
t6 15t-6 14.5t-15 5.5t-15 -5.5t-6 -14.5q0 -10 6 -15.5t15 -5.5zM323 73q7 0 10.5 4t3.5 9q0 12 -12 12t-12 6q0 1 1.5 2.5t3.5 1.5q3 0 5.5 -2t4.5 -5h7v13h-6l-2 -5q-1 2 -4 3.5t-7 1.5q-7 0 -10.5 -4t-3.5 -8q0 -12 12 -12.5t12 -6.5q0 -1 -1.5 -2.5t-3.5 -1.5
q-4 0 -6.5 2.5t-5.5 6.5h-7v-14h7l1 4q2 -1 5 -3t8 -2zM404 59q7 0 11 4.5t7 11.5l13 31h5v7h-17v-7h5l-8 -20l-9 20h6v7h-25v-7h5l6.5 -13t9.5 -20q-1 -4 -3 -6t-5 -2q2 2 1 6t-6 4q-3 0 -5 -2t-2 -5q0 -4 3 -6.5t8 -2.5zM195 78q-4 0 -6 3.5t-2 12.5q0 8 2 11.5t6 3.5
t6 -3.5t2 -11.5q0 -9 -2 -12.5t-6 -3.5zM372 80q-4 0 -6 3.5t-2 9.5q0 5 2 9t6 4t5.5 -3.5t1.5 -9.5t-1.5 -9.5t-5.5 -3.5zM276 0h23v7h-5v25h14v-25h-5v-7h23v7h-6v52l-10 -2q-1 1 -4 1.5t-5 0.5q-7 0 -13 -4.5t-6 -14.5v-1h-7v-7h7v-25h-6v-7zM498 -1q11 0 17 6.5t7 16.5
h-8q-1 -7 -4.5 -11.5t-9.5 -4.5q-7 0 -11.5 5.5t-4.5 16.5q0 12 4 17t10 5t9 -3.5t6 -12.5h8v22h-8l-1 -6q-3 3 -7 5t-9 2q-10 0 -18.5 -8.5t-8.5 -21.5t8 -20.5t21 -7.5zM124 0h29v7h-8v18h22v-18h-8v-7h29v7h-8v41h8v7h-29v-7h8v-16h-22v16h8v7h-29v-7h8v-41h-8v-7z
M294 39v3q0 7 2 9.5t4 2.5q1 0 2 -0.5l1 -0.5l-0.5 -1t-0.5 -2q0 -3 2 -4.5t4 -1.5v-5h-14zM425 -1q4 0 8 1.5t7 4.5q3 -4 5.5 -5t6.5 -1q6 0 9 3.5t4 8.5l-5 1q-1 -3 -2 -4t-2 -1t-3 1.5t-3 3.5q2 3 4.5 6.5t4.5 7.5h5v7h-18v-7h6q-1 -2 -3 -5t-3 -4q-3 3 -5.5 6t-6.5 7
q5 2 8 5t3 7t-3.5 8t-10.5 4t-12 -4.5t-5 -9.5q0 -4 1.5 -6.5t4.5 -5.5q-5 -1 -9 -5t-4 -10t4.5 -10t13.5 -4zM431 33q-3 3 -4.5 5.5t-1.5 4.5t1.5 3.5t3.5 1.5q3 0 4.5 -2t1.5 -4q0 -3 -1.5 -5.5t-3.5 -3.5zM368 0h26v7h-8v16q1 4 3.5 6.5t3.5 2.5v-1q0 -3 2 -4.5t4 -1.5
q3 0 5 2t2 5q0 4 -2 6t-6 2t-7 -2.5t-5 -8.5v10h-18v-7h6v-25h-6v-7zM255 -1q8 0 12.5 4t5.5 10h-7q-1 -4 -3 -5.5t-6 -1.5q-5 0 -7.5 2.5t-2.5 9.5h26q1 10 -4 16t-15 6q-8 0 -14 -6t-6 -15t5.5 -14.5t15.5 -5.5zM348 -1q8 0 12.5 4t5.5 10h-7q-1 -4 -3 -5.5t-6 -1.5
q-5 0 -7.5 2.5t-2.5 9.5h26q1 10 -4 16t-15 6q-8 0 -14 -6t-6 -15t5.5 -14.5t15.5 -5.5zM546 -1q9 0 15 6t6 15t-6 14.5t-15 5.5t-15 -5.5t-6 -14.5q0 -10 6 -15.5t15 -5.5zM210 -1q9 0 15 6t6 15t-6 14.5t-15 5.5t-15 -5.5t-6 -14.5q0 -10 6 -15.5t15 -5.5zM340 23
q0 7 2 9.5t5 2.5q4 0 5.5 -3t1.5 -9h-14zM247 23q0 7 2 9.5t5 2.5q4 0 5.5 -3t1.5 -9h-14zM546 4q-4 0 -6 3.5t-2 12.5q0 8 2 11.5t6 3.5t6 -3.5t2 -11.5q0 -9 -2 -12.5t-6 -3.5zM210 4q-4 0 -6 3.5t-2 12.5q0 8 2 11.5t6 3.5t6 -3.5t2 -11.5q0 -9 -2 -12.5t-6 -3.5zM429 6
q-4 0 -7 3t-3 7q0 3 1.5 5.5t2.5 3.5q4 -4 7 -8t7 -8q-2 -1 -4.5 -2t-3.5 -1zM576 -1q3 0 5 2t2 5t-2 5t-5 2t-5 -2t-2 -5t2 -5t5 -2z" />
    <glyph glyph-name="uniFEFF" unicode="&#xfeff;" horiz-adv-x="0" 
 />
    <glyph glyph-name="NUL" horiz-adv-x="0" 
 />
    <glyph glyph-name="a.sc" horiz-adv-x="572" 
d="M3 0v64h57l179 448h94l171 -448h70v-64h-254v64h83l-38 102h-199l-40 -102h66v-64h-189zM265 418l-76 -194h154l-72 194h-6z" />
    <glyph glyph-name="b.sc" horiz-adv-x="556" 
d="M34 0v64h85v381h-85v64h262q60 0 99.5 -10.5t62.5 -28t32.5 -39.5t9.5 -45q0 -37 -27 -71t-106 -46v-4q81 -8 117 -41t36 -82q0 -29 -10.5 -55t-35.5 -45t-68.5 -30.5t-108.5 -11.5h-263zM214 295h75q62 0 87.5 22t25.5 59q0 34 -24 52.5t-88 18.5h-76v-152zM214 62h74
q74 0 103 21t29 69q0 37 -30.5 60.5t-102.5 23.5h-73v-174z" />
    <glyph glyph-name="c.sc" horiz-adv-x="565" 
d="M295 -12q-57 0 -104 19.5t-80 54.5t-51.5 83.5t-18.5 106.5t20 108t54 85.5t79.5 56t95.5 20.5q47 0 84.5 -16.5t61.5 -44.5l15 59h58v-202h-56q-26 69 -65.5 106t-90.5 37q-63 0 -106.5 -46t-43.5 -155q0 -104 42.5 -154t119.5 -50q68 0 107 42t49 106h62
q-10 -99 -73 -157.5t-159 -58.5z" />
    <glyph glyph-name="d.sc" horiz-adv-x="606" 
d="M34 0v64h85v381h-85v64h229q150 0 226 -69t76 -181q0 -56 -17.5 -103.5t-54 -82t-92.5 -54t-132 -19.5h-235zM214 63h58q96 0 141.5 43.5t45.5 151.5q0 99 -47 143.5t-148 44.5h-50v-383z" />
    <glyph glyph-name="e.sc" horiz-adv-x="571" 
d="M34 0v64h85v381h-85v64h475v-178h-46q-10 36 -18 58.5t-18 35.5t-24.5 17.5t-38.5 4.5h-150v-160h52q41 0 53.5 12.5t22.5 60.5h44v-204h-44q-10 49 -22.5 61.5t-53.5 12.5h-52v-168h147q27 0 44 6t28 21.5t19 41.5t18 66h46v-197h-482z" />
    <glyph glyph-name="f.sc" horiz-adv-x="543" 
d="M34 0v64h85v381h-85v64h465v-182h-47q-12 39 -21.5 62.5t-21 36.5t-27 17t-39.5 4h-129v-167h42q42 0 55 12t21 60h48v-208h-48q-7 49 -21 62.5t-55 13.5h-42v-156h95v-64h-275z" />
    <glyph glyph-name="g.sc" horiz-adv-x="601" 
d="M290 -12q-56 0 -102 19.5t-78.5 55t-50.5 84.5t-18 107q0 57 20 106.5t53.5 85t79 56t96.5 20.5q48 0 85 -17t61 -46l15 61h58v-191h-58q-26 65 -64.5 98.5t-89.5 33.5q-63 0 -106.5 -48t-43.5 -153q0 -97 41 -151.5t117 -54.5q69 0 93.5 36t24.5 89v11h-95v63h257v-63
h-68v-196h-56l-25 75q-23 -35 -59.5 -58t-86.5 -23z" />
    <glyph glyph-name="h.sc" horiz-adv-x="659" 
d="M34 0v64h85v381h-85v64h255v-64h-75v-150h231v150h-75v64h255v-64h-85v-381h85v-64h-255v64h75v169h-231v-169h75v-64h-255z" />
    <glyph glyph-name="i.sc" horiz-adv-x="351" 
d="M43 0v64h85v381h-85v64h265v-64h-85v-381h85v-64h-265z" />
    <glyph glyph-name="j.sc" horiz-adv-x="473" 
d="M199 -12q-75 0 -122 36.5t-47 95.5q0 34 19 57t47 23q23 0 41 -16t18 -47q0 -22 -10.5 -38t-26.5 -24q12 -13 33 -20.5t46 -7.5q38 0 59 22.5t21 63.5v312h-85v64h261v-64h-81v-285q0 -79 -44.5 -125.5t-128.5 -46.5z" />
    <glyph glyph-name="k.sc" horiz-adv-x="607" 
d="M34 0v64h85v381h-85v64h254v-63h-74v-196l207 196h-66v63h213v-64h-62l-153 -140l177 -241h64v-64h-243v63h64l-131 180l-70 -62v-118h73v-63h-253z" />
    <glyph glyph-name="l.sc" horiz-adv-x="516" 
d="M34 0v64h85v381h-85v64h266v-64h-86v-382h105q24 0 39.5 4.5t27.5 19t22.5 43t25.5 76.5h45v-206h-445z" />
    <glyph glyph-name="m.sc" horiz-adv-x="784" 
d="M38 0v64h77v381h-77v64h222l132 -350h2l130 350h222v-64h-81v-381h81v-64h-245v64h69v367h-7l-165 -431h-45l-168 431h-7v-367h72v-64h-212z" />
    <glyph glyph-name="n.sc" horiz-adv-x="654" 
d="M38 0v64h77v381h-77v64h182l259 -365h7v301h-80v64h220v-64h-78v-453h-75l-288 406h-7v-334h80v-64h-220z" />
    <glyph glyph-name="o.sc" horiz-adv-x="600" 
d="M300 -13q-54 0 -101.5 19t-82 54t-55 84.5t-20.5 109.5q0 59 21 108.5t56 85t82.5 55t99.5 19.5q54 0 101.5 -19t82 -54t55 -84t20.5 -109q0 -59 -21 -109t-56 -85t-82.5 -55t-99.5 -20zM300 48q75 0 114 54t39 153q0 98 -39.5 152t-114.5 54q-74 0 -113 -54t-39 -152
q0 -99 39.5 -153t113.5 -54z" />
    <glyph glyph-name="p.sc" horiz-adv-x="528" 
d="M34 0v64h85v381h-85v64h239q122 0 173 -43.5t51 -109.5q0 -31 -11 -60t-36 -50t-67 -34t-104 -13h-65v-135h92v-64h-272zM214 261h58q73 0 96 24.5t23 70.5q0 43 -25 67t-95 24h-57v-186z" />
    <glyph glyph-name="q.sc" horiz-adv-x="609" 
d="M300 -11q-54 0 -102 19t-82.5 53.5t-54.5 83.5t-20 109q0 59 20.5 108.5t55.5 85t82.5 55t100.5 19.5q54 0 102 -19t82.5 -54t54.5 -84t20 -109q0 -66 -26.5 -120.5t-70.5 -89.5q18 -34 32 -45.5t30 -11.5q19 0 29.5 14t16.5 48h46q-4 -72 -30.5 -105t-75.5 -33
q-43 0 -70.5 22t-48.5 70q-21 -7 -44 -11.5t-47 -4.5zM289 234q49 0 80.5 -29.5t56.5 -87.5q13 25 20 59.5t7 78.5q0 100 -39.5 153t-114.5 53q-74 0 -113 -53t-39 -153q0 -40 6 -71t17 -48q11 43 40.5 70.5t78.5 27.5zM211 110q0 -22 19 -41.5t70 -19.5q19 0 36.5 3.5
t32.5 10.5q-16 46 -39.5 74.5t-63.5 28.5q-22 0 -38.5 -15t-16.5 -41z" />
    <glyph glyph-name="r.sc" horiz-adv-x="579" 
d="M483 -10q-44 0 -69 27t-28 85l-2 42q-2 42 -17 60t-69 18h-84v-158h83v-64h-263v64h85v381h-85v64h266q60 0 100 -11t63.5 -29.5t33 -41.5t9.5 -47q0 -45 -30.5 -80.5t-110.5 -45.5v-5q65 -8 88 -38t29 -74l5 -36q3 -23 7 -33t16 -10q8 0 16 10t19 41l41 -15
q-14 -49 -37.5 -76.5t-65.5 -27.5zM214 282h80q60 0 83 20.5t23 65.5q0 40 -21.5 59.5t-76.5 19.5h-88v-165z" />
    <glyph glyph-name="s.sc" horiz-adv-x="497" 
d="M274 -12q-45 0 -84.5 16.5t-61.5 43.5l-19 -58h-57v187h54q39 -67 74.5 -97.5t92.5 -30.5q46 0 73.5 21t27.5 56q0 40 -38 56t-103 31q-31 7 -62 17t-56 26.5t-41 43t-16 66.5q0 66 49 111t124 45q35 0 71.5 -15t57.5 -41l17 54h57v-180h-54q-34 66 -69.5 93.5
t-81.5 27.5q-39 0 -62.5 -21t-23.5 -52q0 -43 38.5 -58.5t105.5 -31.5q33 -8 64 -18t54.5 -26t38 -41.5t14.5 -64.5q0 -68 -52.5 -114t-131.5 -46z" />
    <glyph glyph-name="t.sc" horiz-adv-x="568" 
d="M146 0v64h90v390h-31q-26 0 -42.5 -5.5t-29.5 -20.5t-23.5 -44t-24.5 -75h-44v200h486v-200h-44q-14 46 -24.5 75t-23.5 44t-29.5 20.5t-42.5 5.5h-32v-390h91v-64h-276z" />
    <glyph glyph-name="u.sc" horiz-adv-x="623" 
d="M315 -12q-104 0 -158 49.5t-54 133.5v274h-77v64h247v-64h-75v-255q0 -72 36.5 -100.5t105.5 -28.5q32 0 55.5 9t39.5 25q17 17 23.5 44t6.5 67v239h-81v64h215v-64h-71v-271q0 -38 -13.5 -72t-40 -59t-66.5 -40t-93 -15z" />
    <glyph glyph-name="v.sc" horiz-adv-x="580" 
d="M251 -3l-177 448h-70v64h255v-64h-80l131 -339h6l138 339h-66v64h189v-64h-57l-183 -448h-86z" />
    <glyph glyph-name="w.sc" horiz-adv-x="823" 
d="M222 -3l-147 448h-71v64h254v-63h-79l108 -333h7l106 276l-15 57h-70v63h255v-63h-91l98 -333h7l109 333h-66v63h190v-64h-58l-152 -448h-87l-92 299l-114 -299h-92z" />
    <glyph glyph-name="x.sc" horiz-adv-x="576" 
d="M17 0v64h65l155 185l-148 196h-68v64h246v-63h-68l102 -140l115 140h-71v63h205v-64h-65l-147 -176l155 -205h68v-64h-246v63h68l-110 149l-122 -149h71v-63h-205z" />
    <glyph glyph-name="y.sc" horiz-adv-x="546" 
d="M150 0v64h77v142l-147 239h-62v64h241v-63h-69l108 -171l114 171h-66v63h190v-64h-61l-153 -233v-148h78v-64h-250z" />
    <glyph glyph-name="z.sc" horiz-adv-x="531" 
d="M42 0v57l327 390h-152q-24 0 -40 -4t-28 -18t-23 -41.5t-25 -73.5h-45v199h429v-56l-326 -390h168q24 0 40 4.5t28 19t22.5 43t25.5 76.5h44v-206h-445z" />
    <glyph glyph-name="aacute.sc" horiz-adv-x="572" 
d="M3 0v64h57l179 448h94l171 -448h70v-64h-254v64h83l-38 102h-199l-40 -102h66v-64h-189zM265 418l-76 -194h154l-72 194h-6zM252 583l48 124q14 37 29 55.5t37 18.5q17 0 29.5 -13t12.5 -30q0 -14 -9 -30t-31 -44l-66 -81h-50z" />
    <glyph glyph-name="abreve.sc" horiz-adv-x="572" 
d="M3 0v64h57l179 448h94l171 -448h70v-64h-254v64h83l-38 102h-199l-40 -102h66v-64h-189zM265 418l-76 -194h154l-72 194h-6zM283 590q-60 0 -97.5 41.5t-41.5 115.5h41q12 -40 35 -63.5t63 -23.5t62 23.5t34 63.5h41q-2 -74 -39.5 -115.5t-97.5 -41.5z" />
    <glyph glyph-name="acircumflex.sc" horiz-adv-x="572" 
d="M3 0v64h57l179 448h94l171 -448h70v-64h-254v64h83l-38 102h-199l-40 -102h66v-64h-189zM265 418l-76 -194h154l-72 194h-6zM151 584l111 183h41l111 -183h-49l-83 93l-82 -93h-49z" />
    <glyph glyph-name="adieresis.sc" horiz-adv-x="572" 
d="M3 0v64h57l179 448h94l171 -448h70v-64h-254v64h83l-38 102h-199l-40 -102h66v-64h-189zM265 418l-76 -194h154l-72 194h-6zM192 606q-25 0 -42 18t-17 43t17 43.5t42 18.5t42 -18.5t17 -43.5t-17 -43t-42 -18zM374 606q-25 0 -42 18t-17 43t17 43.5t42 18.5t42 -18.5
t17 -43.5t-17 -43t-42 -18z" />
    <glyph glyph-name="agrave.sc" horiz-adv-x="572" 
d="M3 0v64h57l179 448h94l171 -448h70v-64h-254v64h83l-38 102h-199l-40 -102h66v-64h-189zM265 418l-76 -194h154l-72 194h-6zM264 583l-66 81q-22 28 -31 44t-9 30q0 17 12.5 30t29.5 13q22 0 37 -18.5t29 -55.5l48 -124h-50z" />
    <glyph glyph-name="amacron.sc" horiz-adv-x="572" 
d="M3 0v64h57l179 448h94l171 -448h70v-64h-254v64h83l-38 102h-199l-40 -102h66v-64h-189zM265 418l-76 -194h154l-72 194h-6zM157 600v75h251v-75h-251z" />
    <glyph glyph-name="aogonek.sc" horiz-adv-x="572" 
d="M3 0v64h57l179 448h94l171 -448h70v-64h-78l-12 -12q-50 -50 -64 -78t-14 -49q0 -28 15.5 -39.5t34.5 -11.5q17 0 31.5 7t24.5 14l22 -35q-22 -17 -48 -28t-53 -11q-50 0 -78 24.5t-28 65.5q0 34 21 65.5t67 71.5l19 16h-114v64h83l-38 102h-199l-40 -102h66v-64h-189z
M265 418l-76 -194h154l-72 194h-6z" />
    <glyph glyph-name="aring.sc" horiz-adv-x="572" 
d="M3 0v64h57l169 423q-24 13 -36 36.5t-12 51.5q0 41 26.5 71.5t78.5 30.5q51 0 78 -30.5t27 -71.5q0 -28 -12 -51.5t-36 -36.5l161 -423h70v-64h-254v64h83l-38 102h-199l-40 -102h66v-64h-189zM286 508q27 0 41.5 19.5t14.5 47.5t-14.5 47.5t-41.5 19.5q-26 0 -41 -19.5
t-15 -47.5t15 -47.5t41 -19.5zM265 418l-76 -194h154l-72 194h-6z" />
    <glyph glyph-name="aringacute.sc" horiz-adv-x="572" 
d="M3 0v64h57l169 423q-24 13 -36 36.5t-12 51.5q0 41 26.5 71.5t78.5 30.5q51 0 78 -30.5t27 -71.5q0 -28 -12 -51.5t-36 -36.5l161 -423h70v-64h-254v64h83l-38 102h-199l-40 -102h66v-64h-189zM286 508q27 0 41.5 19.5t14.5 47.5t-14.5 47.5t-41.5 19.5q-26 0 -41 -19.5
t-15 -47.5t15 -47.5t41 -19.5zM265 418l-76 -194h154l-72 194h-6zM253 717l48 124q14 37 29 55.5t37 18.5q17 0 29.5 -13t12.5 -30q0 -14 -9 -30t-31 -44l-66 -81h-50z" />
    <glyph glyph-name="atilde.sc" horiz-adv-x="572" 
d="M3 0v64h57l179 448h94l171 -448h70v-64h-254v64h83l-38 102h-199l-40 -102h66v-64h-189zM265 418l-76 -194h154l-72 194h-6zM131 587q9 68 31 96t67 28q19 0 37.5 -7.5t34 -16.5t29 -16.5t23.5 -7.5q14 0 22 14t13 43h48q-9 -68 -31 -96t-67 -28q-19 0 -37.5 7.5
t-34 16.5t-29 16.5t-23.5 7.5q-14 0 -22 -14t-13 -43h-48z" />
    <glyph glyph-name="cacute.sc" horiz-adv-x="565" 
d="M295 -12q-57 0 -104 19.5t-80 54.5t-51.5 83.5t-18.5 106.5t20 108t54 85.5t79.5 56t95.5 20.5q47 0 84.5 -16.5t61.5 -44.5l15 59h58v-202h-56q-26 69 -65.5 106t-90.5 37q-63 0 -106.5 -46t-43.5 -155q0 -104 42.5 -154t119.5 -50q68 0 107 42t49 106h62
q-10 -99 -73 -157.5t-159 -58.5zM263 583l48 124q14 37 29 55.5t37 18.5q17 0 29.5 -13t12.5 -30q0 -14 -9 -30t-31 -44l-66 -81h-50z" />
    <glyph glyph-name="ccaron.sc" horiz-adv-x="565" 
d="M295 -12q-57 0 -104 19.5t-80 54.5t-51.5 83.5t-18.5 106.5t20 108t54 85.5t79.5 56t95.5 20.5q47 0 84.5 -16.5t61.5 -44.5l15 59h58v-202h-56q-26 69 -65.5 106t-90.5 37q-63 0 -106.5 -46t-43.5 -155q0 -104 42.5 -154t119.5 -50q68 0 107 42t49 106h62
q-10 -99 -73 -157.5t-159 -58.5zM277 593l-111 183h49l83 -93l82 93h49l-111 -183h-41z" />
    <glyph glyph-name="ccedilla.sc" horiz-adv-x="565" 
d="M285 -243q-25 0 -53 8t-52 24l22 36q19 -12 36 -16.5t34 -4.5q28 0 41.5 9.5t13.5 27.5q0 19 -19.5 31t-50.5 12q-9 0 -17 -1t-17 -3l-16 22l82 86q-56 1 -102 21t-78.5 54.5t-50 83t-17.5 105.5q0 58 20 108t54 85.5t79.5 56t95.5 20.5q47 0 84.5 -16.5t61.5 -44.5
l15 59h58v-202h-56q-26 69 -65.5 106t-90.5 37q-63 0 -106.5 -46t-43.5 -155q0 -104 42.5 -154t119.5 -50q68 0 107 42t49 106h62q-9 -84 -56 -139t-120 -71l-58 -59l1 -4q49 -4 75 -27t26 -54q0 -43 -31 -68t-79 -25z" />
    <glyph glyph-name="cdotaccent.sc" horiz-adv-x="565" 
d="M295 -12q-57 0 -104 19.5t-80 54.5t-51.5 83.5t-18.5 106.5t20 108t54 85.5t79.5 56t95.5 20.5q47 0 84.5 -16.5t61.5 -44.5l15 59h58v-202h-56q-26 69 -65.5 106t-90.5 37q-63 0 -106.5 -46t-43.5 -155q0 -104 42.5 -154t119.5 -50q68 0 107 42t49 106h62
q-10 -99 -73 -157.5t-159 -58.5zM294 587q-28 0 -45 17.5t-17 45.5q0 26 18 45t44 19q28 0 45 -18t17 -46q0 -26 -18 -44.5t-44 -18.5z" />
    <glyph glyph-name="dcaron.sc" horiz-adv-x="606" 
d="M34 0v64h85v381h-85v64h229q150 0 226 -69t76 -181q0 -56 -17.5 -103.5t-54 -82t-92.5 -54t-132 -19.5h-235zM214 63h58q96 0 141.5 43.5t45.5 151.5q0 99 -47 143.5t-148 44.5h-50v-383zM297 593l-111 183h49l83 -93l82 93h49l-111 -183h-41z" />
    <glyph glyph-name="dcroat.sc" horiz-adv-x="606" 
d="M34 0v64h85v162h-85v60h85v159h-85v64h229q150 0 226 -69t76 -181q0 -56 -17.5 -103.5t-54 -82t-92.5 -54t-132 -19.5h-235zM214 63h58q96 0 141.5 43.5t45.5 151.5q0 99 -47 143.5t-148 44.5h-50v-160h104v-60h-104v-163z" />
    <glyph glyph-name="eacute.sc" horiz-adv-x="571" 
d="M34 0v64h85v381h-85v64h475v-178h-46q-10 36 -18 58.5t-18 35.5t-24.5 17.5t-38.5 4.5h-150v-160h52q41 0 53.5 12.5t22.5 60.5h44v-204h-44q-10 49 -22.5 61.5t-53.5 12.5h-52v-168h147q27 0 44 6t28 21.5t19 41.5t18 66h46v-197h-482zM269 583l48 124q14 37 29 55.5
t37 18.5q17 0 29.5 -13t12.5 -30q0 -14 -9 -30t-31 -44l-66 -81h-50z" />
    <glyph glyph-name="ebreve.sc" horiz-adv-x="571" 
d="M34 0v64h85v381h-85v64h475v-178h-46q-10 36 -18 58.5t-18 35.5t-24.5 17.5t-38.5 4.5h-150v-160h52q41 0 53.5 12.5t22.5 60.5h44v-204h-44q-10 49 -22.5 61.5t-53.5 12.5h-52v-168h147q27 0 44 6t28 21.5t19 41.5t18 66h46v-197h-482zM300 590q-60 0 -97.5 41.5
t-41.5 115.5h41q12 -40 35 -63.5t63 -23.5t62 23.5t34 63.5h41q-2 -74 -39.5 -115.5t-97.5 -41.5z" />
    <glyph glyph-name="ecaron.sc" horiz-adv-x="571" 
d="M34 0v64h85v381h-85v64h475v-178h-46q-10 36 -18 58.5t-18 35.5t-24.5 17.5t-38.5 4.5h-150v-160h52q41 0 53.5 12.5t22.5 60.5h44v-204h-44q-10 49 -22.5 61.5t-53.5 12.5h-52v-168h147q27 0 44 6t28 21.5t19 41.5t18 66h46v-197h-482zM283 593l-111 183h49l83 -93
l82 93h49l-111 -183h-41z" />
    <glyph glyph-name="ecircumflex.sc" horiz-adv-x="571" 
d="M34 0v64h85v381h-85v64h475v-178h-46q-10 36 -18 58.5t-18 35.5t-24.5 17.5t-38.5 4.5h-150v-160h52q41 0 53.5 12.5t22.5 60.5h44v-204h-44q-10 49 -22.5 61.5t-53.5 12.5h-52v-168h147q27 0 44 6t28 21.5t19 41.5t18 66h46v-197h-482zM168 584l111 183h41l111 -183h-49
l-83 93l-82 -93h-49z" />
    <glyph glyph-name="edieresis.sc" horiz-adv-x="571" 
d="M34 0v64h85v381h-85v64h475v-178h-46q-10 36 -18 58.5t-18 35.5t-24.5 17.5t-38.5 4.5h-150v-160h52q41 0 53.5 12.5t22.5 60.5h44v-204h-44q-10 49 -22.5 61.5t-53.5 12.5h-52v-168h147q27 0 44 6t28 21.5t19 41.5t18 66h46v-197h-482zM209 606q-25 0 -42 18t-17 43
t17 43.5t42 18.5t42 -18.5t17 -43.5t-17 -43t-42 -18zM391 606q-25 0 -42 18t-17 43t17 43.5t42 18.5t42 -18.5t17 -43.5t-17 -43t-42 -18z" />
    <glyph glyph-name="edotaccent.sc" horiz-adv-x="571" 
d="M34 0v64h85v381h-85v64h475v-178h-46q-10 36 -18 58.5t-18 35.5t-24.5 17.5t-38.5 4.5h-150v-160h52q41 0 53.5 12.5t22.5 60.5h44v-204h-44q-10 49 -22.5 61.5t-53.5 12.5h-52v-168h147q27 0 44 6t28 21.5t19 41.5t18 66h46v-197h-482zM300 587q-28 0 -45 17.5t-17 45.5
q0 26 18 45t44 19q28 0 45 -18t17 -46q0 -26 -18 -44.5t-44 -18.5z" />
    <glyph glyph-name="egrave.sc" horiz-adv-x="571" 
d="M34 0v64h85v381h-85v64h475v-178h-46q-10 36 -18 58.5t-18 35.5t-24.5 17.5t-38.5 4.5h-150v-160h52q41 0 53.5 12.5t22.5 60.5h44v-204h-44q-10 49 -22.5 61.5t-53.5 12.5h-52v-168h147q27 0 44 6t28 21.5t19 41.5t18 66h46v-197h-482zM281 583l-66 81q-22 28 -31 44
t-9 30q0 17 12.5 30t29.5 13q22 0 37 -18.5t29 -55.5l48 -124h-50z" />
    <glyph glyph-name="emacron.sc" horiz-adv-x="571" 
d="M34 0v64h85v381h-85v64h475v-178h-46q-10 36 -18 58.5t-18 35.5t-24.5 17.5t-38.5 4.5h-150v-160h52q41 0 53.5 12.5t22.5 60.5h44v-204h-44q-10 49 -22.5 61.5t-53.5 12.5h-52v-168h147q27 0 44 6t28 21.5t19 41.5t18 66h46v-197h-482zM174 600v75h251v-75h-251z" />
    <glyph glyph-name="eogonek.sc" horiz-adv-x="571" 
d="M34 0v64h85v381h-85v64h475v-178h-46q-10 36 -18 58.5t-18 35.5t-24.5 17.5t-38.5 4.5h-150v-160h52q41 0 53.5 12.5t22.5 60.5h44v-204h-44q-10 49 -22.5 61.5t-53.5 12.5h-52v-168h147q27 0 44 6t28 21.5t19 41.5t18 66h46v-197h-26l-12 -12q-50 -50 -64 -78t-14 -49
q0 -28 15.5 -39.5t34.5 -11.5q17 0 31.5 7t24.5 14l22 -35q-22 -17 -48 -28t-53 -11q-50 0 -78 24.5t-28 65.5q0 34 21 65.5t67 71.5l19 16h-394z" />
    <glyph glyph-name="gbreve.sc" horiz-adv-x="601" 
d="M290 -12q-56 0 -102 19.5t-78.5 55t-50.5 84.5t-18 107q0 57 20 106.5t53.5 85t79 56t96.5 20.5q48 0 85 -17t61 -46l15 61h58v-191h-58q-26 65 -64.5 98.5t-89.5 33.5q-63 0 -106.5 -48t-43.5 -153q0 -97 41 -151.5t117 -54.5q69 0 93.5 36t24.5 89v11h-95v63h257v-63
h-68v-196h-56l-25 75q-23 -35 -59.5 -58t-86.5 -23zM295 590q-60 0 -97.5 41.5t-41.5 115.5h41q12 -40 35 -63.5t63 -23.5t62 23.5t34 63.5h41q-2 -74 -39.5 -115.5t-97.5 -41.5z" />
    <glyph glyph-name="uni0123.sc" horiz-adv-x="601" 
d="M290 -12q-56 0 -102 19.5t-78.5 55t-50.5 84.5t-18 107q0 57 20 106.5t53.5 85t79 56t96.5 20.5q48 0 85 -17t61 -46l15 61h58v-191h-58q-26 65 -64.5 98.5t-89.5 33.5q-63 0 -106.5 -48t-43.5 -153q0 -97 41 -151.5t117 -54.5q69 0 93.5 36t24.5 89v11h-95v63h257v-63
h-68v-196h-56l-25 75q-23 -35 -59.5 -58t-86.5 -23zM245 -316l-17 32q43 21 64.5 46.5t24.5 51.5l-5 3q-4 -4 -11 -6t-15 -2q-18 0 -32.5 15t-14.5 37q0 25 17.5 43.5t42.5 18.5q32 0 51 -22t19 -56q0 -49 -27 -89.5t-97 -71.5z" />
    <glyph glyph-name="gdotaccent.sc" horiz-adv-x="601" 
d="M290 -12q-56 0 -102 19.5t-78.5 55t-50.5 84.5t-18 107q0 57 20 106.5t53.5 85t79 56t96.5 20.5q48 0 85 -17t61 -46l15 61h58v-191h-58q-26 65 -64.5 98.5t-89.5 33.5q-63 0 -106.5 -48t-43.5 -153q0 -97 41 -151.5t117 -54.5q69 0 93.5 36t24.5 89v11h-95v63h257v-63
h-68v-196h-56l-25 75q-23 -35 -59.5 -58t-86.5 -23zM295 587q-28 0 -45 17.5t-17 45.5q0 26 18 45t44 19q28 0 45 -18t17 -46q0 -26 -18 -44.5t-44 -18.5z" />
    </font>
</defs>
</svg>
